<?xml version="1.0" standalone="no"?>
<!DOCTYPE svg PUBLIC "-//W3C//DTD SVG 1.1//EN" "http://www.w3.org/Graphics/SVG/1.1/DTD/svg11.dtd" >
<svg xmlns="http://www.w3.org/2000/svg">
<metadata>
This is a custom SVG webfont generated by Font Squirrel.
Copyright   :  Graham Meade  Apostrophic Labs All rights reserved infoapostrophiclabcom
Designer    : Graham Meade  Apostrophe
Foundry URL : httpwwwapostrophiclabcom
</metadata>
<defs>
<font id="webfontUuFN9JUq" horiz-adv-x="1290" >
<font-face units-per-em="2048" ascent="1638" descent="-410" />
<missing-glyph horiz-adv-x="980" />
<glyph unicode=" "  horiz-adv-x="980" />
<glyph unicode="&#x09;" horiz-adv-x="980" />
<glyph unicode="&#xa0;" horiz-adv-x="980" />
<glyph unicode="!" horiz-adv-x="536" d="M10 63l154 -71l72 -154l71 154l156 71l-156 72l-71 156l-72 -156zM45 1130q0 -27 12 -69q18 -59 37 -68q6 -4 37 43q31 49 39 49l4 -12q-10 -59 -21.5 -106t-25.5 -82q12 -180 17.5 -316.5t7.5 -234.5l147 -6v26q0 10 4 13l11 157q7 102 16 254q8 227 37 418v25 q0 41 -48 41q-102 -41 -159.5 -61.5t-71.5 -24.5q-49 -11 -43 -46z" />
<glyph unicode="&#x22;" horiz-adv-x="712" d="M10 1253q0 57 37 92t96 35q53 0 90 -36.5t37 -90.5q0 -80 -14 -135q-33 -123 -61 -241l-58 -242l-92 436l-26 125q-9 45 -9 57zM379 1253q0 57 37 92t96 35q53 0 90 -36.5t37 -90.5q0 -80 -14 -135q-35 -123 -64 -241.5t-55 -241.5l-92 436l-26 125q-9 45 -9 57z" />
<glyph unicode="#" horiz-adv-x="1032" d="M10 532h146l-66 -233h154l59 233h254l-65 -233h149l64 233h253v130h-219l39 149h180v127h-145l68 238h-152l-61 -238h-252l63 238h-147l-64 -238h-258v-127h221l-38 -149h-183v-130zM336 662l43 149h256l-43 -149h-256z" />
<glyph unicode="$" horiz-adv-x="1183" d="M10 268q59 -70 116.5 -120t109.5 -82q129 -82 282 -95v-116q0 -49 74 -50q43 0 43 50l-4 116q299 18 424 217q55 88 55 179q0 184 -223 313q-39 23 -101 54l-147 73l2 459q213 -33 205 -230l26 -61q35 90 207 231q-178 156 -438 166v98h-113l-4 -102q-113 -8 -209 -57 q-215 -109 -215 -287q0 -150 148 -254q70 -51 272 -147l-2 -549q-49 10 -90 26.5t-70 44.5l-112 84q-53 39 -53 78q0 2 9 5t21.5 5t22.5 5l10 2q-6 33 -14.5 51t-18.5 28t-59 29q-113 -27 -154 -164zM283 1098q0 158 229 176l-4 -410q-100 53 -148 90q-77 66 -77 144z M616 72l7 506q301 -133 301 -271q0 -16 -5.5 -35.5t-19.5 -48.5q-58 -126 -283 -151z" />
<glyph unicode="%" horiz-adv-x="1968" d="M10 1028q0 -174 125 -274q113 -94 291 -95q260 0 373 211q51 90 51 187q0 166 -125 266q-113 94 -285 94q-182 0 -303 -102q-127 -109 -127 -287zM207 1065q0 53 22 82q29 43 76 35l10 17l31 52q41 72 72 72q111 0 176 -104q53 -84 53 -207q0 -102 -35 -162 q-66 -96 -170 -96q-111 0 -180 104q-55 92 -55 207zM444 156q55 57 132 86.5t176 36.5l54 82l34 55l141 194l88 119l201 266l129 170l-64 41q-18 12 -78 13l-36 -48q-31 -41 -68 -96l-82 -121q-59 -98 -65 -104h2l-72 -96l-217 -281q-98 -123 -180 -215zM1055 299 q0 -172 125 -272q113 -92 290 -93q135 0 240 66q109 70 158 188q27 76 26 142q0 164 -125 268q-117 98 -286 98q-176 0 -301 -108q-127 -109 -127 -289zM1249 340q0 109 51 178q57 80 162 80q61 0 103 -94l29 -86q13 -37 20 -62l8 -16q10 -25 45 -25q27 -6 27 -28 q0 -258 -205 -258q-111 0 -178 104q-62 88 -62 207z" />
<glyph unicode="&#x26;" horiz-adv-x="1486" d="M10 373q-2 -49 5.5 -97.5t25.5 -95.5q88 -223 367 -227q295 -4 497 227q113 -217 250 -217q2 0 2 4q0 6 -3 20.5t-3 20.5q0 4 2 6q8 0 25.5 -7t27.5 -7q20 0 23 14l37 74q-119 2 -217 270l6 9q8 18 65 98q35 47 37 72l14 147q6 27 9 27q4 0 16 -35q16 -35 18 -35 q8 0 27 61q12 37 25 43q94 29 147 33q-10 14 -10 35q0 8 -12.5 34.5t-12.5 39.5q0 6 2 8q-16 -6 -38.5 -22.5t-36.5 -16.5q-162 0 -248 80l-47 -86q29 -14 51 -43q6 -8 14 -24l21 -38q-23 -92 -25 -104q-8 -35 -22 -53l-22 -39l-17 -29l-160 -229q-141 -178 -326 -172 q-49 0 -123 18q-184 55 -184 279q23 -47 43 -47v2l-4 118q-4 82 18 105l61 68q19 23 21 24q49 43 99 43q109 29 151 29q29 0 61.5 -8.5t67.5 -24.5q14 12 15 109q0 39 -15 67q-8 14 -8 23q0 8 45 26q27 12 41 19.5l21 11.5q29 41 34 104q8 133 -94 213q-53 41 -84 52 q-10 4 -35.5 9t-66.5 9q-51 8 -111 -14q-274 -102 -282 -295q-12 -152 141 -262q-102 -55 -193 -135q-125 -109 -133 -289zM328 1102q4 23 26 28q4 2 19.5 6.5t40.5 8.5q76 14 75 51q0 6 -3 15.5t-3 15.5q0 4 9 4q109 0 180 -105q27 -47 24 -79q-6 -82 -123 -138 q-152 49 -188 86q-63 64 -57 107z" />
<glyph unicode="'" horiz-adv-x="344" d="M10 1253q0 57 37 92t96 35q53 0 90 -36.5t37 -90.5q0 -80 -14 -135q-33 -123 -61 -241l-58 -242l-92 436l-26 125q-9 45 -9 57z" />
<glyph unicode="(" horiz-adv-x="849" d="M10 418q0 -186 49.5 -347t151.5 -296q90 -119 222 -224.5t312 -199.5q18 70 19 98q0 31 -27 51l-103 72q-46 31 -81 57q-416 311 -397 803q12 303 143 488q78 102 252 223q147 98 166 180q59 74 59 115q0 25 -22 59q-90 -43 -167 -89t-143 -95q-434 -336 -434 -895z" />
<glyph unicode=")" horiz-adv-x="858" d="M10 1423q0 -63 66 -100q162 -92 270 -303q14 -29 50 -117l96 -239q76 -193 147 -232q23 -10 23 -55q0 -125 -125 -369q-137 -260 -295 -379l-68 -48l-117 -81q-33 -18 -32 -65q0 -41 26 -84q358 186 531 424q203 266 202 643q0 559 -432 895q-66 49 -143.5 95t-169.5 89 q-29 -39 -29 -74z" />
<glyph unicode="*" horiz-adv-x="770" d="M10 868q0 43 41 62l90 26l129 37v2l-108 33q-27 6 -54.5 14.5t-56.5 18.5q-39 18 -39 59q0 23 11 39q25 35 73 35q23 0 43 -10q14 -8 144 -113q12 53 29 118l40 150q41 -115 74 -260q27 25 57 43q27 23 90 66q14 8 39 8q47 0 72 -37q4 -10 8 -18t4 -19q0 -51 -118 -88 q-35 -2 -144 -37v-10q41 -10 93.5 -24.5t123.5 -38.5q39 -20 39 -62q0 -20 -10 -37q-25 -37 -70 -37q-25 0 -41 11q-41 35 -90 65q-2 4 -16 15l-41 30q-18 -76 -35.5 -138t-34.5 -112q-12 41 -28 106l-39 153q-47 -47 -150 -111q-20 -10 -45 -10q-43 0 -67 34q-13 19 -13 37 z" />
<glyph unicode="+" horiz-adv-x="1304" d="M10 745q0 -53 35 -93t92 -40l182 35q84 14 148.5 28.5l114.5 26.5l-38 -167q-15 -66 -20 -95q-4 -14 -7 -35.5t-13 -56.5q-12 -47 -12 -90q0 -57 36.5 -91t96.5 -34q53 0 89 37t36 90q0 92 -15 133q-25 94 -43 172t-30 137q188 -47 260 -55q10 -4 32.5 -8t57.5 -14 q49 -12 92 -13q57 0 92 37t35 96q0 53 -36 90t-93 37q-82 0 -133 -14q-145 -41 -307 -74q88 334 88 441q0 53 -36 90t-89 37q-59 0 -96 -34t-37 -91q0 -6 8 -52l24 -133q31 -164 56 -258l-121 30l-99 24q-135 35 -221 34q-53 0 -91 -37t-38 -90z" />
<glyph unicode="," horiz-adv-x="458" d="M10 -223l74 38q29 15 41 25q72 49 72 99q0 45 -39 63l-23 8l-10 2l-2 4q-78 47 -78 129q0 66 49 108t115 42q92 0 135 -66q23 -51 34 -97t7 -93q-37 -229 -311 -332z" />
<glyph unicode="-" horiz-adv-x="845" d="M47 418h688l-4 12q-2 6 -2 12q0 27 31 70q23 31 35 49.5t14 24.5h-688q6 -16 6 -31q0 -33 -31 -72l-32.5 -41t-16.5 -24z" />
<glyph unicode="." horiz-adv-x="473" d="M10 63l154 72l72 156l71 -156l156 -72l-156 -71l-71 -154l-72 154z" />
<glyph unicode="/" horiz-adv-x="1421" d="M10 -340l1155 1966h183l-1155 -1966h-183z" />
<glyph unicode="0" d="M45 643q0 -139 38 -255t114 -214q166 -213 436 -213q389 0 547 369q72 160 71 348q0 287 -149 479q-162 217 -438 217q-154 0 -295 -84q-324 -188 -324 -647zM291 741q0 166 37 275q88 252 309 252q123 0 207 -86q115 -127 141 -348q10 -76 15.5 -138.5t5.5 -113.5 q0 -203 -70 -336q-86 -180 -266 -180q-123 0 -203 79q-176 182 -176 596zM340 659l227 -71l72 -418l72 418l229 71l-229 70l-72 418l-72 -418z" />
<glyph unicode="1" horiz-adv-x="782" d="M10 1032l2 -90q72 31 125 51.5t84 30.5q49 14 58 -8q2 -27 0 -279l-13 -420q-6 -176 -61 -204q-37 -18 -139 -19l6 -102q223 12 446 12q23 0 84.5 -2t163.5 -6l6 94q-199 14 -233 43q-33 27 -33 412q0 551 55 649q18 35 105 88q8 8 10 8v2q0 -2 -4 -2q-6 0 -10 2l-15 21 l90 110l-113 -68l-83 -50q-92 -53 -224 -121z" />
<glyph unicode="2" horiz-adv-x="1189" d="M10 -63q0 -8 2 -11q113 96 164 97q12 0 47 -25q31 -25 37 -25l647 -2q29 0 45.5 -2t26.5 -4q25 -10 55 -43l70 -4q4 23 7 50.5t-1 58.5q-2 29 -3 45t1 22l57 150l-112 41q-6 -20 -13.5 -41t-11.5 -43q-4 -4 -11 -9.5t-24 -9.5q-33 -14 -102.5 -19t-179.5 -5l-338 2l55 48 l25 21l211 185l156 137l98 90q201 201 200 387q0 170 -143 264q-121 86 -295 86q-115 0 -213 -37q-68 -23 -144.5 -73.5t-162.5 -126.5l94 -62q137 125 332 125q123 0 200 -53q96 -66 97 -178q0 -172 -344 -510q-123 -121 -510 -449q4 -2 4 -6q0 -10 -11.5 -34.5 t-11.5 -36.5z" />
<glyph unicode="3" horiz-adv-x="1134" d="M10 168q184 -209 482 -209q158 0 292 57q131 55 213 160q96 119 97 244q0 141 -101 235q-41 37 -91 73t-111 71q184 150 184 305q0 135 -125 209q-102 61 -248 61q-213 0 -469 -182l74 -72q164 106 295 107q94 0 172 -49q84 -55 84 -148q0 -98 -121 -203l-79 -59 q-50 -37 -126 -84l117 21l41 -46q147 -80 201 -127q104 -86 104 -200q0 -119 -98 -195q-86 -68 -211 -67q-135 0 -191 12q-111 25 -129 113l-30 149z" />
<glyph unicode="4" horiz-adv-x="1277" d="M10 418q12 -12 20.5 -24.5t14.5 -22.5q59 2 93 4t44 4q131 4 205 7t90 3h262q-2 -53 -2 -104t-2 -101q-4 -43 -25.5 -68.5t-60.5 -39.5q-20 -4 -38.5 -8.5t-41.5 -4.5v-104q25 2 61 10t85 21q47 14 81.5 19t63.5 5q45 0 131 -18q43 -12 75 -17.5t52 -7.5v86 q-117 18 -135 64q-10 27 -13 92.5t-3 169.5q145 0 237 -6l-49 166q-119 -16 -188 -13l2 306q2 215 4 359t8 220q-35 -10 -62.5 -17t-44.5 -9q-166 -231 -411 -502q-53 -59 -167 -176zM279 530l176 119q23 20 41 74q18 61 22 61l140 156l90 102q2 -51 2 -98v-94 q0 -84 -1 -163t-4 -157h-466z" />
<glyph unicode="5" horiz-adv-x="1138" d="M10 125q219 -170 467 -170q176 0 318 68q66 31 117 72.5t92 92.5q41 59 63.5 120t22.5 126q0 92 -66 201q-152 242 -676 340q10 23 20 60l23 93q14 63 43 74h17q18 0 43.5 -4t60.5 -8q70 -12 107 -12l202.5 -6.5t108.5 -2.5l80 33l37 160q-12 -12 -68 -8q-25 2 -68 -31 l-36 -37q-37 68 -54 68l-592 12l-34 -360q-4 -47 -31 -111q-35 -80 -43 -109q350 -6 563 -170q147 -111 147 -243q0 -51 -30 -119q-78 -172 -252 -172q-209 0 -268 20q-47 23 -76 35.5t-39 20.5q-35 25 -35 71q129 63 131 74q-49 92 -121 92q-39 0 -86 -22 q-20 -78 -42.5 -139.5t-45.5 -108.5z" />
<glyph unicode="6" horiz-adv-x="1175" d="M41 514q0 -252 158 -403q158 -152 405 -152q293 0 451 234q78 109 78 239q0 182 -129 297q-121 111 -308 111q-86 0 -123 -13q-92 -31 -159 -129l-43 -82q-14 -29 -21 -36l-16 -27q4 -88 51 -90q20 72 78 151q66 90 133 91q141 0 233 -115q88 -106 89 -254 q0 -121 -72 -199q-74 -80 -193 -80q-82 0 -168 54q-209 129 -209 440q0 219 144 412q174 238 571 368l-39 84q-270 -66 -444 -170q-467 -266 -467 -731z" />
<glyph unicode="7" horiz-adv-x="1173" d="M-6 1145l110 -4l41 12q10 2 18.5 3t18.5 1q43 0 113 -14q74 -12 111 -13q31 0 56 3.5t50 13.5q117 43 207 37l176 -13l-12 -24l-285 -494l-183 -307l-112 -182l-61 -94q-45 -74 -45 -93q0 -43 53 -43l11 19l34 57q47 74 72 84q6 6 6 -8q0 -23 -14.5 -63.5t-14.5 -63.5 q0 -4 4 -4t18.5 -2t34.5 -6q293 641 557 1059l116 172l112 151l-39 51q-72 -10 -149.5 -14t-163.5 -2h-140q-39 0 -55 -8q-27 -10 -25 -41q-23 0 -90 24q-61 25 -94 25q-31 -2 -61 -2h-62q-12 0 -76 -33q-14 -10 -24 -15t-14 -9v43q0 63 -13 63q-20 0 -65 -82l-63 -101 q-29 -46 -58 -83z" />
<glyph unicode="8" horiz-adv-x="1189" d="M43 317q0 -98 76 -182q152 -176 469 -176q336 0 489 197q72 94 72 198q0 150 -111 258q-78 76 -243 152q254 129 254 305q0 80 -60 156q-131 160 -401 159q-131 0 -238 -45q-215 -96 -215 -295q0 -195 287 -339q-379 -155 -379 -388zM276 373q0 96 89 172q53 33 97 54 l77 38l57 2q10 -2 16 -2q8 0 15 -2q305 -106 305 -338q0 -106 -86 -174q-78 -59 -191 -60q-127 0 -249 93q-130 94 -130 217zM291 1114q0 82 94 129q76 39 166 39q172 0 252 -131q29 -57 28 -117q0 -113 -151 -215q-53 10 -95 24.5t-77 37.5q-51 27 -148 102q-69 55 -69 131 z" />
<glyph unicode="9" horiz-adv-x="1144" d="M10 918q0 -182 129 -302q123 -111 307 -110q41 0 71 4t52 10l131 94q61 49 86 119l23 62l-49 90q-10 -39 -30.5 -76t-49.5 -74q-70 -94 -131 -94q-145 0 -238 117q-88 106 -88 254q0 125 73 201.5t196 76.5q82 0 167 -53q205 -129 205 -440q0 -219 -139 -414 q-178 -240 -575 -369l43 -84q268 68 444 170q465 270 465 736q0 246 -158 397q-158 156 -403 156q-295 0 -453 -232q-78 -114 -78 -239z" />
<glyph unicode=":" horiz-adv-x="538" d="M10 63l154 72l72 156l71 -156l156 -72l-156 -71l-71 -154l-72 154zM12 739l156 74l70 156l71 -156l156 -74l-156 -71l-71 -154l-70 154z" />
<glyph unicode=";" horiz-adv-x="536" d="M10 739l154 74l72 156l71 -156l156 -74l-156 -71l-71 -154l-72 154zM29 -223q92 45 116 63q72 49 72 99q0 45 -41 63l-29 10l-4 4q-80 45 -80 129q0 66 49.5 108t116.5 42q90 0 138 -66q41 -102 39 -190q-37 -231 -310 -332z" />
<glyph unicode="&#x3c;" horiz-adv-x="1005" d="M10 676v125l922 526v-248q-111 -29 -195 -62.5t-149 -68.5q-53 -29 -129 -80t-180 -129l138 -92l134 -86q94 -61 188.5 -102t192.5 -66v-246z" />
<glyph unicode="=" horiz-adv-x="1159" d="M10 459h1002q-2 6 -2 12v12q0 29 30 70q43 66 45 74h-1001q6 -16 6 -29q0 -35 -31 -72l-32 -43q-13 -16 -17 -24zM10 924h1002q-2 8 -2 22q0 31 30 72l32 48q11 17 13 24h-1001q6 -16 6 -31q0 -33 -31 -72l-32.5 -41t-16.5 -22z" />
<glyph unicode="&#x3e;" horiz-adv-x="1005" d="M10 147v246q98 25 192.5 66t188.5 102l133 86l140 92q-104 78 -181 129.5t-129 79.5q-129 72 -344 131v248l922 -526v-125z" />
<glyph unicode="?" horiz-adv-x="831" d="M10 1182q0 -35 23 -78l92 96q57 61 178 62q98 0 157.5 -64.5t59.5 -163.5q0 -47 -149 -307q-150 -256 -150 -299q0 -27 29 -84q84 33 139 33q51 0 125 -31l47 58q18 24 27 40q-170 4 -170 99q0 59 88 147l115 117l51 53q86 115 86 221q0 147 -107 234q-96 76 -254 76 q-109 0 -233 -54q-154 -67 -154 -155zM137 63l156 -71l72 -154l69 154l156 71l-156 72l-69 156l-72 -156z" />
<glyph unicode="@" horiz-adv-x="2547" d="M10 500q0 -219 92 -406q154 -309 473 -467q295 -147 656 -147q924 0 1243 813l-180 -205q2 18 2 33v26q0 35 -10 35q-16 0 -78 -108q-70 -123 -105 -156q-344 -322 -864 -321q-225 0 -416 61q-289 92 -454 301q-176 213 -176 510q0 193 79 381q139 319 430 493 q283 168 639 168q195 0 355 -49q223 -70 360 -223q147 -166 148 -391q0 -332 -246 -563q-72 -68 -145.5 -104t-151.5 -38q-53 41 -55 41q-27 0 -33 29q-2 6 -3 25.5t-5 54.5q6 53 55 256l54 217l24 98q51 170 135 355l-59 30q-53 -33 -101.5 -57.5t-95.5 -40.5l-14 -8 q-4 -20 -8.5 -36.5t-6.5 -27.5q-61 109 -184 113q-211 6 -428 -162q-117 -92 -191.5 -201.5t-105.5 -240.5q-10 -37 -13 -71t-3 -62q0 -123 61 -211q88 -127 254 -131q299 -6 430 270q-37 -166 -37 -240q0 -66 25 -65l47 -45l12 131l55 -90q39 -66 86 -66q180 0 332 76 q205 100 328 307q123 203 123 436q0 158 -64 299q-113 258 -391 387q-240 111 -549 111q-135 0 -262 -20.5t-248 -63.5q-360 -123 -579 -389q-236 -284 -236 -651zM848 582q0 35 5 72.5t15 80.5q29 121 131 209q104 90 230 86q100 -4 168 -39q92 -49 92 -141q-2 -6 -2 -37 q0 -20 1 -47t3 -57q6 -59 5 -97.5t-7 -58.5q0 -6 -4 -10q-29 152 -51 159q-4 2 -13 3q-41 6 -59 -93l-19 -96q-8 -41 -14 -63q-10 -57 -35 -82q-86 -90 -180 -86q-154 2 -225 125q-41 76 -41 172zM1550 1073q2 2 6 14v-18z" />
<glyph unicode="A" horiz-adv-x="1654" d="M10 -29q78 4 142.5 6.5t117.5 2.5t122 -3.5t161 -13.5v86q-207 25 -207 78q0 18 150 324q41 4 103.5 8t148.5 4h100q76 0 132 -2t93 -6q145 -303 146 -357q0 -27 -129 -45v-86q129 8 211.5 12.5t119.5 4.5q47 0 104.5 -4.5t123.5 -8.5v90q-119 12 -146 39 q-25 33 -57.5 90.5t-73.5 143.5l-115 239l-117 257l-71 155l-97 223q-44 104 -75 201l-47 -66q0 -2 -4 -2q-6 0 -11.5 4.5t-13.5 8.5l-18 12q-2 0 -2 -2q-23 -63 -55 -133l-70 -150l-285 -555l-47 -94l-29 -59q-18 -35 -44 -79l-58 -97q-45 -78 -80 -101q-37 -29 -123 -47 v-78zM563 578l223 466l111 -221l100 -207l62 -12q66 -10 74 -39l-269 8h-57l-35 -4h-18q-61 0 -109.5 2.5t-81.5 6.5z" />
<glyph unicode="B" horiz-adv-x="1320" d="M10 -37h295q12 0 12 27q0 33 -15 91t-44 150l139 -268q8 -12 31 -12q14 0 48 10t50 10q47 -4 70 -4h22h12q202 0 423 68q225 74 225 323q0 297 -408 392q244 92 244 294q0 109 -70 193q-119 143 -413 162l-193 12q-6 1 -14 1q-35 0 -102 -15q-51 -10 -54 -17v-2 q-51 0 -114.5 4l-141.5 9v-93q127 -14 156 -55q41 -63 41 -420q0 -260 -12 -518q-12 -197 -39 -217q-14 -10 -30.5 -16t-41.5 -11q-6 -2 -25.5 -3t-50.5 -5v-90zM426 291v387q33 4 64.5 6t62.5 2q346 0 444 -221q31 -66 31 -121q0 -147 -139 -219q-104 -55 -266 -55 q-158 0 -177 20q-20 27 -20 201zM426 778v105q0 383 20 397q12 12 93 12q133 0 223 -65q100 -76 100 -205q0 -162 -151 -211q-68 -23 -285 -33z" />
<glyph unicode="C" horiz-adv-x="1595" d="M49 690q0 -340 293 -547q260 -184 614 -184q188 0 592 100q6 25 6 43q0 39 -26 60q-10 8 -17.5 11t-9.5 7q16 35 30.5 62.5t29.5 52.5q0 12 -9 12q-2 0 -23.5 -10t-31.5 -10q-6 0 -14 5t-15 5q-18 0 -36 -29q-66 -92 -138 -135q-115 -74 -293 -74q-213 0 -423 140 q-256 166 -256 491q0 381 176 449l215 102q119 61 237 62q92 0 232 -35q80 -20 129 -45t71 -54q10 -14 17 -75q4 -41 24 -58q14 -10 64 -16v20q0 20 -4 54t-4 57q0 109 82 166q-33 31 -48 26q-10 0 -21 -1t-28 -3q-20 0 -44.5 3.5t-53.5 13.5q-188 55 -358 55 q-240 0 -443 -74q-117 -43 -209 -102t-159 -137q-148 -172 -148 -408z" />
<glyph unicode="D" horiz-adv-x="1816" d="M10 0l129 -25l355 9l92 55q10 4 30 -39q27 -49 58 -51q10 0 25.5 4t32 10t30.5 10t22 4q563 0 842 316q156 170 156 399q0 166 -84 301q-63 104 -161.5 182t-238.5 132q-186 78 -516 77q-35 0 -83 -3l-109 -7q-68 -6 -116 -8t-77 -2h-84q-49 0 -114 2q-16 0 -40 -3 t-50.5 -6t-50 -5t-38.5 -2l5 -95l86 7q29 2 36 -11q39 -47 39 -635q0 -457 -26 -510q-12 -18 -41 -18l-109 2v-90zM418 375v41q0 94 2 220t6 284q2 131 5 214t9 117q70 25 308 25q111 0 268 -62q156 -59 211 -59q18 0 26 2h8q44 0 74 -41l58 -96q111 -135 110 -330 q0 -352 -307 -520q-166 -92 -422 -92q-139 0 -348 55l-6 203q-2 19 -2 39z" />
<glyph unicode="E" horiz-adv-x="1447" d="M10 -41q160 4 291 8t236 4h272q25 0 78 21q29 12 50 17t34 5q8 0 10 -2q-2 -4 -16 -18l-41 -43v-2q35 0 96 2t151 8q72 4 117 5q15 0 27 1q25 0 39 -2q2 57 4 92t4 45q4 72 24.5 130.5t53.5 103.5h-88q-25 -57 -51.5 -96t-55.5 -64q-106 -96 -473 -96q-92 0 -169 7 t-144 21q-18 98 -19 310q0 49 1 102t3 113q39 4 72 6t62 2q319 0 356 -61q10 -16 13 -48t7 -84l107 -4q-41 158 -41 267q0 100 33 174l-80 12q-41 -121 -72 -133q-25 -10 -116 -13.5t-248 -3.5q-10 0 -35 41q-29 45 -33 45q-45 -16 -88 -133l-45 -116q-16 -43 -25 -54 q0 -2 -2 -2l64 367q18 98 53 98q2 0 7 -2t7 -2q4 0 4 6q0 55 5.5 123t15.5 148q190 18 371 18q154 0 262 -20q92 -18 92 -72q0 -16 -5 -41t-5 -39q0 -41 59 -41q68 0 92 324q-154 -4 -266.5 -6.5t-179.5 -2.5h-844q-8 -31 -8 -77q115 -18 129 -31q31 -27 39 -125 q4 -16 4 -51q0 -33 2 -84q4 -193 5 -317v-75q0 -68 -1 -106l-2 -51q-6 -127 -11 -207t-12 -117q-8 -53 -24 -65q-41 -12 -77 -20.5t-69 -12.5z" />
<glyph unicode="F" horiz-adv-x="1292" d="M4 -29q82 4 147.5 6.5t116.5 2.5h127l221 -7v90q-96 18 -100 27q-45 14 -61 31q-29 27 -29 194q0 154 -9 253.5t-32 144.5q27 0 68 -27l25 -21.5t9 -13.5q291 0 353 -37q25 59 55 60q2 -2 2 -119l86 -47q2 31 -16 102q-18 63 -19 95q0 16 5 39.5t16 54.5q15 49 15 82 q0 7 -1 14q-12 -4 -39 -21q-27 -14 -43 -14q0 -41 -12 -59l-19 -17q-23 -35 -319 -34q-2 0 -10 2q-35 2 -58 2t-37 4l-18 2v141q0 125 2 215t8 150q37 6 102.5 8t161.5 2q373 0 418 -70q23 -35 31 -135l39 109q0 8 2 10q2 0 27 -45q29 -41 30 -41q2 0 2 10q2 86 4 155.5 t9 123.5q-129 -10 -281 -13.5t-332 -3.5h-49q-31 0 -76 2q-29 2 -59 2h-61l-195 6h-41l-107 -2v-81q68 -6 84 -23q2 -8 5.5 -14t7.5 -17q29 -66 28 -549q0 -223 -6 -365t-20 -202q-8 -43 -62 -61l-32.5 -6.5t-57.5 -8.5z" />
<glyph unicode="G" horiz-adv-x="1757" d="M39 676q0 -285 229 -488q254 -229 723 -229q141 0 263 10.5t231 30.5q59 10 111.5 21.5t84.5 27.5l-329 10l192 25l78 6q29 4 37 15.5t0 19.5q-16 25 -17 174v172q2 96 19 102q14 4 82 13l14 86q-9 0 -18 -1q-111 0 -367 64q-297 72 -434 72q-70 0 -131 -16l-6 -150h16 q49 0 88 10q117 29 180.5 43.5t77.5 14.5q8 0 13 -4l-41 -25q-41 -23 -41 -33q0 -8 14 -10q61 -8 120.5 -14.5t121.5 -10.5q29 -18 47 -92q4 -23 8 -66.5t4 -105.5q0 -170 -16 -190q-23 -23 -66 -39.5t-108 -30.5q-106 -23 -189 -22q-166 0 -307 59q-176 72 -301 227 q-129 166 -129 348q0 141 86 283q8 18 121 76q111 55 125 82q51 74 161 112q94 37 197 37q164 0 291 -51q39 -12 86 -57q41 -35 74 -35q12 0 33.5 6t31.5 6q2 0 9 -6l15 -12q7 -6 13 -12.5t8 -6.5q41 0 41 43q0 4 -7 14.5t-7 14.5q-10 47 -15.5 80t-5.5 53q0 66 -43 66 q-20 0 -86 -45l-57 16q-10 4 -27 7l-39 7q-70 10 -132 16.5t-122 6.5q-201 0 -368 -45q-270 -68 -440 -234q-197 -190 -197 -446z" />
<glyph unicode="H" horiz-adv-x="2013" d="M10 49l41 -88q104 4 168 8q42 3 67 3q13 0 21 -1l361 -16l8 84q-156 29 -180 47q-27 27 -27 201q0 221 6 342q68 -78 340 -78q88 0 198.5 9t248.5 26q201 25 260 30l55 -4l4 -100v-41q0 -240 -22 -346q-12 -43 -74 -62q-10 -4 -36 -7t-65 -7l9 -86q31 0 72.5 1t97.5 3 q113 6 170 6q76 0 139 -5t117 -15l6 88q-111 12 -140 33q-46 33 -45 309v70l13 483q4 121 8 195.5t14 107.5q4 4 -88 74l2 2l86 -10q68 -5 93 -5h12l45 13l-15 76q-23 0 -58.5 -1.5l-82.5 -3.5q-92 -6 -143 -6q-59 0 -136 6.5t-171 16.5l-15 -88q63 -10 102.5 -19.5 t55.5 -15.5q23 -8 31 -33q21 -49 20 -249v-38l-2 -198q-10 0 -20.5 8t-20.5 8q-66 18 -166 19q-117 0 -344 -31q-113 -14 -197.5 -21.5t-142.5 -7.5q-156 0 -215 51v111q0 348 53 373q49 10 93.5 17t80.5 11q-2 23 -3 43.5t-1 42.5l-215 -4q-23 0 -56.5 2t-78.5 4 q-92 6 -135 7q-29 0 -66.5 -3.5t-87.5 -11.5l-8 -84q53 -2 89 -5t53 -13q25 -14 36 -64q10 -53 14 -120q2 -41 2 -88q0 -31 -1 -66q-2 -102 -4 -171t-4 -103q-4 -272 -15.5 -416t-23.5 -160q-14 -14 -86 -27l-42 -5z" />
<glyph unicode="I" horiz-adv-x="813" d="M10 59l6 -88q92 23 187.5 36t199.5 13q102 0 194.5 -13t176.5 -36l12 92q-49 0 -124 19q-96 18 -111 51q-14 35 -14 627v114q-29 -68 -48 -67q-2 0 -6 2q-14 29 -14 51q0 37 33 90q35 59 39 74l28 147q16 72 49 86q80 31 173 31v103q-94 -23 -187.5 -36.5t-187.5 -13.5 t-190.5 13.5t-198.5 36.5v-99q29 0 61.5 -3t71.5 -13q96 -27 114 -59q4 -2 5 -13q0 -18 -4 -46l-7 -62q-4 -35 -6 -62.5t-2 -46.5q0 -76 11.5 -153.5t35.5 -157.5l58 -197v-8q0 -2 -5 -2l-24 31q-23 31 -27 30q-2 0 -2 -2q0 -334 -90 -381l-60 -28q-26 -12 -42 -23 q-66 -35 -105 -37z" />
<glyph unicode="J" horiz-adv-x="819" d="M-317 -506q0 -31 45 -51q37 -20 67 -21q133 0 262 111q207 150 240 164q121 70 156 70q61 0 114 -86q0 -2 1 -3.5t1 0.5t-2 3v307v121q0 74 -2 172t-2 170v124v162q0 66 1 141.5t3 165.5q2 59 4 90t2 35q8 82 56 99q45 18 184 24l-4 94q-281 -12 -367 -12q-2 0 -2 -6 t4.5 -19.5t10.5 -27.5t10 -27.5t4 -19.5q0 -18 -14 -21h-4q-27 0 -111 47q-94 53 -98 54q-16 0 -44 4t-63 10q-72 18 -108 18l18 -96q35 2 67.5 2t63.5 -2q111 -12 131 -82q16 -47 22.5 -196.5t6.5 -407.5v-418q0 -258 -80 -374q-121 -176 -393 -279q-2 2 -5 21.5t-5 60.5 q-4 74 -33 74q-61 0 -103 -80q-34 -64 -34 -115z" />
<glyph unicode="K" horiz-adv-x="1646" d="M10 -37q66 4 124.5 6t115.5 2q276 0 397 -18v88q-41 0 -106 16q-74 18 -95 45q-4 16 -8 71.5t-6 150.5q-2 78 -3 139t-1 110l70 -42l45 -27q86 -57 499 -299q164 -100 164 -154h-2q-2 0 -12 3t-14 -1q-41 -4 -80 -16l6 -78q74 4 178 37l84 19.5t49 7.5q2 0 22 -8l54 -19 q80 -35 147 -37l-6 78q-127 61 -186 106q-268 199 -482 342.5t-376 237.5l98 76l302 240q122 93 188 137q162 111 286 122l-4 95q-129 -37 -262 -37q-113 0 -278 24l6 -90q123 -4 123 -26q0 -25 -23 -45q-33 -33 -75 -70l-91 -78l-430 -344v72q0 96 6 241q12 195 29 222 q20 33 184 45v90q-178 -18 -295 -19q-47 0 -129 2t-203 6l5 -88q113 -12 133 -24q18 -12 47 -55q27 -45 31 -89q-18 -61 -37 -73q2 -141 4 -236.5t4 -142.5q1 -25 0 -51q0 -65 -3 -138q-5 -102 -16 -227q-10 -172 -51 -188q-12 -8 -45 -13.5t-82 -9.5v-88z" />
<glyph unicode="L" horiz-adv-x="1390" d="M10 53l6 -80h928q98 0 183 -4t161 -10q6 12 6 25l-14 18q-14 16 -14 33q0 14 8 31q8 31 67 120q57 88 60 111l-94 10q-31 -111 -103 -145q-154 -74 -479 -74q-233 0 -272 23q-25 23 -25 225q0 831 35 901q8 14 26 25q49 10 92.5 17t77.5 9l5 92q-16 0 -39 5.5t-56 15.5 q-31 10 -54 15t-38 5q-63 0 -125 -45q-37 -27 -90 -26q-45 0 -115 14q-72 14 -118 14v-88q49 -2 79.5 -4t47.5 -8q20 -6 30 -37q10 -25 16 -112q4 -62 3 -156v-80l-4 -463q-2 -80 -2 -133q0 -51 -2 -76q-6 -115 -58 -137q-29 -11 -129 -31z" />
<glyph unicode="M" horiz-adv-x="2295" d="M10 -29q174 41 322 41q80 0 161.5 -11t165.5 -34l5 86q-131 33 -207 66q-16 23 -23.5 47t-7.5 47q0 174 12.5 378t40.5 445l188 -290l144 -222q92 -143 160.5 -279t120.5 -265l92 49q49 125 118.5 255t161.5 267l330 483q37 -246 37 -676q0 -152 -49 -208 q-47 -57 -195 -91l6 -92q98 25 193.5 36t187.5 11q154 0 307 -30v90q-39 0 -96 22q-10 4 -33.5 12.5t-60.5 24.5q-66 131 -66 928q0 80 7.5 129t19.5 72q37 61 164 73l8 90q-92 -29 -156.5 -41t-101.5 -12h-29q-14 0 -30 2l-60 6q-213 -387 -663 -1032q-4 10 -37 49l-90 109 q-68 82 -96 178q-2 0 -11 41q-2 12 -3 17.5t-1 2.5l-27 -130l-18 -87q0 -4 -5 39l-15 135q-29 195 -35 197q-14 16 -27 21q-92 61 -164 208q-4 12 -28 75l-72 175q-133 -25 -203 -24q-98 0 -213 39l-12 -113q78 -4 122 -18.5t60 -36.5q23 -35 23 -189q0 -66 -3 -142.5 t-14 -170.5q-12 -121 -19 -199t-11 -114q-18 -223 -39 -260q-45 -76 -230 -101z" />
<glyph unicode="N" horiz-adv-x="1734" d="M10 12q0 -51 55 -51h9q111 4 181.5 8t102.5 4q27 1 51 2q12 0 23 -1q33 -1 60 -3q16 0 16 9q0 12 -43 65l-43 53q0 2 4 2q-78 29 -86 162q-3 11 -3 37q0 13 1 29q2 49 4 137l16 594q106 -82 185 -187l98 -133l260 -286q127 -141 338 -314q162 -133 199 -188l96 -4 q-8 90 -11 206.5t-3 260.5q0 662 39 811q8 45 65 63q10 2 33.5 5t62.5 10l-8 86q-94 -2 -153 -3h-89q-17 -62 -43 -61h-4q-16 2 -41.5 10t-62.5 25q-37 16 -58.5 24.5t-31.5 8.5h-45q-20 0 -37 -2l-33 -76l112 -18q44 -7 64 -11q35 -12 58 -43q41 -63 41 -350v-203 q0 -111 -2.5 -196.5t-6.5 -151.5l-195 179l-128 120l-285 260q-176 160 -264 279l-111 145l-45 59l-123 -4q-62 -2 -103.5 -2t-62.5 2v-94q45 -6 48 -10q8 -6 20 -19q61 -39 76 -172q1 -18 1 -67.5t-1 -130.5l-8 -504q-2 -217 -29 -272q-18 -39 -94 -48q-66 -4 -66 -51z" />
<glyph unicode="O" horiz-adv-x="1871" d="M37 678q0 -268 227 -490q252 -240 643 -239q72 0 123 2t86 8q98 12 238 76q209 92 336 256q135 172 135 393q0 326 -279 535q-256 193 -594 192q-219 0 -426 -88q-213 -92 -342 -252q-147 -176 -147 -393zM283 760q0 248 174 393q162 129 415 129q76 0 189 -82 q123 -92 186 -104q109 -18 172 -76q55 -53 105 -156q29 -61 41 -127.5t12 -136.5q0 -250 -158 -389q-152 -135 -401 -135q-305 0 -516 186q-219 197 -219 498z" />
<glyph unicode="P" horiz-adv-x="1366" d="M10 1303q143 -14 162 -37q14 -16 21 -74l4 -70q2 -12 2 -26v-31q0 -23 -1 -55.5t-3 -77.5q-2 -43 -2 -76v-53q0 -186 43 -297q27 -72 26 -154q0 -53 -16.5 -116.5t-50.5 -139.5q-4 -23 -74 -37l-92 -22v-72q23 -4 42 -8t35 -4l66 6l111 8q55 4 108 4q74 0 121 -2t68 -6 l110 90q-215 12 -231 43q0 53 10 99q-4 86 -8 149.5t-6 106.5l-15 215q4 -10 20.5 -19.5t45.5 -23.5q127 -72 280 -72q274 0 420 166q123 143 123 252q0 166 -190 307q-164 125 -559 125q-27 0 -65 -2t-87 -6q-51 -2 -89 -3t-65 -1q-68 0 -133 2t-129 6q0 -4 6.5 -11.5 t15.5 -15.5t16 -16t7 -11l-7 -6l-16 -14l-17 -14zM438 915v39l15 324q41 8 77.5 11t71.5 3q315 0 414 -162q25 -45 38 -87t13 -85q0 -111 -98 -221q-63 -70 -205 -69q-137 0 -215 65l-52 38q-28 19 -57 42q-2 69 -2 102z" />
<glyph unicode="Q" horiz-adv-x="1900" d="M59 678q0 -268 228 -490q242 -233 628 -239q-27 -72 -26 -131q-6 -49 -49 -66l-35 -1q-35 -1 -81 -3l-92 -4q-46 -2 -67 -4l-14 -84l850 8l-41 82q-8 0 -10 2q2 0 4 2h-13l-54 6l-73 8l-65 8q-29 3 -31 7q-14 45 -18 176q10 0 19 1t20 3q88 12 176 47t166 83t139 101.5 t92 100.5q135 172 135 393q0 326 -278 535q-256 193 -594 192q-219 0 -426 -88q-213 -92 -342 -252q-148 -176 -148 -393zM305 760q0 238 176 385q47 39 123 39q14 0 37 -1t46.5 -3t46 -3t36.5 -1q23 0 59.5 7t83.5 23q96 33 148 33q119 0 221 -70q178 -113 264 -305 q29 -61 41 -127.5t12 -136.5q0 -250 -157 -389l-58 -43q-29 -20 -61 -37q-41 -23 -102.5 -36t-120.5 -17q0 33 2 66l4 69q4 111 15.5 190.5t25.5 128.5q-43 12 -64 13q-154 -104 -297 -137q-45 -8 -45 -48q0 -31 84 -38l30.5 -3.5t18.5 -1.5q8 -76 12.5 -133t8.5 -96v-2 q-209 33 -371 176q-219 197 -219 498z" />
<glyph unicode="R" horiz-adv-x="1470" d="M10 0q0 -45 56 -45l86 -14q10 -2 20 -2h21q12 0 31 5l41 11q22 6 42.5 11t34.5 5q80 0 244 -18q43 0 43 49q0 29 -64 47q-27 0 -192 -37l-27 47q88 4 92 11q14 25 13 26q-29 58 -30 432q0 47 1 99q53 -6 114.5 -8.5t129.5 -2.5l142 -149q58 -63 93 -107 q59 -72 102.5 -142.5t75.5 -141.5q98 -135 158 -135q4 0 51 6q41 2 78 4t70 4q29 12 28 37q0 45 -49 49q-78 6 -88 29q-37 84 -119 174q-23 23 -55.5 73t-73.5 121l-81 130l-54 81q338 117 338 363q0 74 -41 145q-72 127 -244 191q-143 51 -311 51q-39 0 -97.5 -4 t-135.5 -11q-160 -12 -234 -12h-102q-47 0 -94 2l49 -71q68 -18 67 -35q25 -6 37 -37q20 -51 21 -357v-464q0 -283 -41 -324q-27 -12 -48 -20l-38 -15q-60 -18 -60 -51zM430 737q4 477 27 527q5 10 18 10q22 0 68 -29q14 -6 24 -6q14 0 47 29l29 32q246 0 350 -178 q41 -76 41 -137q0 -260 -422 -260q-106 0 -182 12z" />
<glyph unicode="S" horiz-adv-x="1226" d="M-18 221q4 -16 20 -50l41 -89q17 -44 17 -97q0 -6 -1 -12l97 -22q-4 12 0 61l4 47q31 -33 43 -59q104 -23 200.5 -34t182.5 -11q381 0 526 188q72 88 72 199q0 248 -262 346l-222 81l-245 89q-162 55 -162 207q0 94 82 131l243 104q41 23 87 23q96 0 249 -123 q10 -10 22 -18l25 -19q4 -10 9.5 -26.5t9.5 -44.5l98 -64q4 18 0 58t-12 106l22 184q-41 12 -59 13l-16 -9q-31 -16 -66 -16q-6 0 -22.5 2t-38.5 6q-10 2 -43 9.5t-86 21.5q-86 23 -127 22q-14 0 -23.5 -1t-19.5 -3q-29 -12 -76 -25.5t-113 -29.5q-109 -25 -164 -55 q-195 -106 -194 -314q0 -246 338 -358l199 -65q79 -26 120 -37q219 -74 219 -256q0 -133 -92 -170q-109 -45 -209 -45q-123 0 -229 30q-207 53 -256 103q-37 35 -55 88l-41 98l-37 -78q-39 -80 -55 -86z" />
<glyph unicode="T" horiz-adv-x="1605" d="M-57 1360q57 -127 84 -252l110 -12l-11 60q-5 28 -7 50q84 45 307 45q61 0 121.5 -2t120.5 -8q23 -72 22 -528v-312q-12 -33 -16 -70.5t-4 -80.5q1 -35 1 -63v-25q-1 -35 -5 -53q-6 -16 -78 -35q-23 -6 -48.5 -11.5t-50.5 -11.5q-18 -25 -18 -49q0 -49 55 -49q49 0 146 6 q47 2 84 3t61 1q25 0 63 -3t87 -11q53 -8 91 -11.5t62 -3.5q41 0 51 9l13 80q-16 23 -37 36t-49 13l-55 -39q-19 -14 -25 -19v2q4 6 7 15.5t11 25.5q16 33 0 33q-80 0 -98 82q-4 23 -6 62.5t-2 99.5q0 8 17.5 34.5t17.5 49.5q0 53 -39 149q-18 45 -19 99q0 12 2 29.5t5.5 38 l6.5 37.5t3 30q0 135 6 246.5t22 197.5l185 6q28 1 53 1q205 0 291 -44q-2 -23 -6.5 -51.5t-8.5 -60.5l109 12q29 135 82 254q-20 10 -34.5 23.5t-29.5 29.5q-61 -61 -504 -61q-65 0 -139 2l-602 10q-80 2 -133 2h-82l-14 4v-4q-61 0 -113 45q-26 -37 -63 -53z" />
<glyph unicode="U" horiz-adv-x="1824" d="M0 1286q68 -6 105.5 -10t48.5 -8q8 0 12 -13q33 -90 33 -378q0 -37 -37 -129q-18 -47 -27.5 -81t-11.5 -57q0 -41 35 -116q37 -72 37 -76q0 -250 225 -371q184 -94 450 -94q541 0 691 231q92 141 110 619q6 160 6 305q3 32 3 52t-3 28q0 2 -41 49q-39 45 -39 53q0 2 5 2 q47 -2 89 -5t81 -9l16 22q18 25 31 25v92q-15 2 -32 2q-21 0 -46 -3q-45 -5 -105 -15q-131 -23 -184 -23q-14 0 -106 -6l12 -90q106 0 131 -37q41 -57 41 -311q0 -481 -70 -651q-47 -109 -227 -164q-72 -23 -143.5 -33t-149.5 -10q-426 0 -487 243q-14 47 -19.5 156 t-5.5 277q0 424 33 479q29 37 117 55q14 0 22 2l-12 37l4 59q-115 -6 -208 -8t-165 -2h-115q-51 0 -92 2z" />
<glyph unicode="V" horiz-adv-x="1916" d="M10 1393l41 -95q29 0 47.5 -2t28.5 -6q6 -2 14 -9l21 -17q53 -47 176 -251t321 -567l107 -200l111 -206q39 -73 47 -89l145 -156q-49 98 -49 180t90 250l60 104l92 148l286 471l89 144q36 57 57 86q6 8 6 18t-8.5 27.5t-8.5 25.5q0 12 15 21q121 29 211 37v77 q-35 0 -113 -16q-37 -4 -64.5 -8t-45.5 -4q-59 0 -142 16q-47 10 -82 14.5t-59 6.5l-17 -95q147 -10 148 -55q0 -55 -135 -295l-142 -250l-140 -243l-111 -183l-68 117q-471 797 -471 899q25 8 52.5 11.5t60.5 5.5l47 81h-226z" />
<glyph unicode="W" horiz-adv-x="2588" d="M10 1380l6 -98q113 0 148 -16q59 -23 106 -107q10 -16 27.5 -49t42.5 -86q57 -117 116 -253l119 -290l56 -134q20 -50 28 -66l154 -371h72q121 309 147 358l128 238l114 192q2 2 2 7q0 8 -45 10q-43 2 -43 12l131 74l194 -436q47 -104 92 -218l91 -235l73 -2l37 86 q14 35 21 51l39 92l74 163q30 65 47 95l251 582q106 240 199 285q49 23 133 28l10 88q-119 -2 -246.5 -3t-269.5 -1h-172l25 -86q61 -2 108.5 -9t79.5 -17q53 -18 54 -82q0 -74 -158 -443l-106 -234l-101 -214l-81 176l-126 295l-120 304q-42 110 -46 138 q-63 -125 -166 -266l-215 -395q-29 -51 -52 -97.5l-42 -87.5l-28 -63q-403 831 -404 930q0 47 213 57l-10 94h-115q-29 0 -106 -33q-74 -31 -107 -30q-20 -4 -20 12q0 8 7 22.5t7 18.5q0 6 -4 6q-51 0 -142.5 2t-226.5 6z" />
<glyph unicode="X" horiz-adv-x="1837" d="M10 -37l111 4q92 4 147 5q18 0 34 1q30 0 44 -2l316 -8v88q-178 20 -179 64q0 33 95 139l190 208l127 132l165 -178l179 -199q74 -84 74 -123q0 -14 -168 -43l20 -88q125 6 210 9q51 2 86 2q23 0 40 -1l172 -2q53 -4 89 -5t59 -3l-13 90q-88 12 -125 29q-49 18 -122 98 l-519 565l70 79l70 77l145 156q61 63 100 100q76 76 134 105q61 27 163 36v86h-290q-27 0 -65 1t-91 4q-49 2 -88 3t-64 1l-12 -88q53 -2 89 -7.5t59 -11.5q29 -12 28 -37q0 -61 -329 -422q-403 420 -404 455q0 8 16 12h125l-20 95q-57 -4 -125 -6.5t-150 -2.5 q-98 0 -186 4.5t-166 12.5l-6 -90q43 -4 75 -9.5t50 -9.5q82 -31 256 -207q45 -47 45 -82q0 -10 -7 -28.5t-7 -28.5q0 -41 125 -119l231 -143l12 -21q2 -4 4 -7t2 -5q0 -25 -90 -43l-246 -258q-93 -98 -130 -133q-78 -70 -164 -112t-185 -54z" />
<glyph unicode="Y" horiz-adv-x="1746" d="M10 1378l19 -88q53 -2 88 -7t53 -13q53 -16 149 -113l140 -141l103 -115q48 -55 89 -113l125 -178q2 -16 2 -45v-76v-167q0 -68 -2 -111q-4 -115 -28 -133q-20 -16 -66.5 -26.5t-124.5 -12.5v-84q31 0 73 3l99 7q59 4 100 6t70 2h55l254 -12q10 8 11 19q0 6 -5 6l25 24 h-25q2 2 13 2q2 2 16 2v21q-207 37 -223 67l-57 -8q-29 0 -29 25q20 53 38.5 95t39.5 73l-4 336l131 161l196 244q80 96 127 143q70 68 121 84q43 16 146 21l4 96h-60q-33 0 -80 -4q-47 -2 -82 -2h-59q-29 0 -102.5 2t-194.5 8l-12 -96q25 1 47 1q129 0 129 -42 q0 -29 -43 -96.5t-131 -171.5l-125 -153l-66 -81l-123 154l-94 119l-64 81l-87 103q-57 68 -58 74h11q29 8 139 14l14 92l-90 4h-47q-29 0 -76 -2q-14 -143 -39 -143l-80 72q-76 70 -94 69q-31 2 -54.5 3t-41.5 1h-160z" />
<glyph unicode="Z" horiz-adv-x="1683" d="M10 -41q119 6 226.5 10t209.5 4h664q252 0 299 -8q18 14 30.5 25.5t18.5 19.5q2 -4 7 -10t18 -23q23 -41 28 -40q12 27 33 66l49 97l51 102l37 77l-157 -66q-8 -8 -8 -14q-33 -31 -111 -54q-76 -25 -162 -41t-186 -22q-92 -6 -352 -6q-86 0 -157 4t-126 8l179 160l114 94 q10 4 10 18q0 16 -27 50l-30 34q0 2 4 2l186 86q109 51 203 177l139 178l221 227l197 211v55l-498 -8q-244 -4 -485 -4h-143q-68 0 -132 4q-182 2 -210 37q-18 20 -39 21q-57 0 -58 -140q0 -12 2 -31.5t3 -39t3 -38t2 -30.5q0 -29 -6 -49l80 -35q18 33 19 55v43q2 25 18 35 q37 23 108.5 39t176.5 23q29 2 112 2h228q131 0 239.5 -2t198.5 -7q-293 -348 -595 -654t-622 -576q0 -19 -10 -66z" />
<glyph unicode="[" horiz-adv-x="495" d="M10 1513q23 -203 35 -376.5t12 -323.5q0 -27 -2 -63.5t-4 -85.5t-3 -86t-1 -66q-4 -88 6 -242q4 -18 4 -53v-80q0 -119 -11 -307t-34 -455h410v148h-250q2 27 3 55.5t1 63.5q0 29 -1 69.5t-3 95.5q-2 53 -2 97v69q0 121 11.5 230.5t35.5 210.5l8 57q4 29 4 61q0 33 -4 70 t-8 82l-12 99q-4 34 -6 44q-8 203 -14.5 338t-12.5 203h250v145h-412z" />
<glyph unicode="\" horiz-adv-x="1421" d="M10 1626h185l636 -1047q287 -488 517 -919h-181q-217 418 -504 906z" />
<glyph unicode="]" horiz-adv-x="495" d="M10 -477v-148h412q-43 528 -43 762v80q0 35 2 53q4 78 6 138.5t2 103.5q-4 25 -5 63.5t-3 88.5q-2 49 -2 88v61q0 297 43 700h-412v-145h252q-6 -68 -13 -203t-16 -338q0 -10 -3 -43.5t-13 -99.5q-6 -45 -8 -82t-2 -70q0 -63 12 -118q43 -201 43 -441q0 -29 -1 -70.5 t-3 -95.5q-2 -55 -2 -96v-69q0 -35 1 -64t3 -55h-250z" />
<glyph unicode="^" horiz-adv-x="886" d="M10 918q100 229 373 499h63q80 -72 136.5 -129t91.5 -100q80 -106 139 -270h-188q-39 119 -82 167q-20 27 -51 55.5t-78 61.5q-141 -104 -207 -284h-197z" />
<glyph unicode="_" horiz-adv-x="1398" d="M0 -102v-160h1399v160h-1399z" />
<glyph unicode="`" horiz-adv-x="495" d="M10 1341l226 -4q6 -4 61 -110q55 -109 125 -142h-189q-41 18 -102 123q-66 110 -121 133z" />
<glyph unicode="a" d="M61 344q0 -172 129 -270q121 -96 293 -97q305 0 367 224q6 -240 65 -240l31 -6q20 -2 35.5 -3t26.5 -1q143 0 262 100l-17 49q-53 -43 -94 -43q-53 0 -86 76q-6 43 -6 203v170q0 63 2 82q4 68 14.5 138.5t32.5 141.5l-65 21q-94 -57 -177 -86q-4 0 -7 -1t-7 -1v-49 q-90 84 -211 84q-213 0 -393 -138q-195 -145 -195 -354zM258 463q0 106 96 176q41 35 91.5 50.5t105.5 15.5q100 0 178 -27q111 -39 129 -109q0 -31 39 -114q37 -82 37 -116q0 -7 -2 -9q-72 115 -94 123q-2 2 -13 2q-37 0 -37 -74q0 -23 4.5 -65t4.5 -62q0 -45 -17 -66 q-70 -70 -164 -69q-160 0 -258 92q-100 94 -100 252zM866 745q0 6 2 17.5t6 30.5v-17q0 -12 -2 -35q-2 0 -4 2z" />
<glyph unicode="b" horiz-adv-x="1245" d="M10 1104q0 -41 15 -49q10 -8 51 -8q66 0 80 -23q25 -41 24 -250q0 -598 -33 -698l-24 -78l47 -25l35 15q4 2 12 3t21 5q16 0 43.5 -3t40.5 -3l8 69q6 72 18 72q4 -4 4 -6l2 -2q18 -76 115 -119q35 -12 65.5 -19.5t63.5 -7.5q272 0 469 207q104 104 104 258 q0 174 -147 291q-137 102 -313 103q-135 0 -332 -78q8 139 12 219t6 102q6 39 9.5 70t7.5 57q2 49 -47 49q-10 0 -24.5 -5t-31.5 -19q-4 -2 -79 -35t-222 -92zM373 377v29q0 39 2 78l4 81l2 82v6q66 33 125 47.5t112 14.5q76 0 138.5 -25.5t107.5 -72t68.5 -110t23.5 -140.5 q0 -129 -92 -205q-84 -72 -213 -72q-82 0 -155 45q-88 55 -101 158q-22 16 -22 84z" />
<glyph unicode="c" horiz-adv-x="970" d="M49 356q0 -180 92 -262q74 -66 193 -102q55 -16 109.5 -24.5t107.5 -8.5q193 0 385 135q2 6 -16 12l-31 5q0 2 6 19t6 22q0 8 -6 12q-164 -76 -258 -76q-78 0 -166 37q-215 90 -215 319q0 252 233 252q4 0 17.5 -5t27 -12t25.5 -12t16 -5t5 4q2 -2 2 2l-5 10q-3 6 -12 18 q-10 14 -10 21q0 6 4 6t6 -2l17 -8q74 -68 96 -76l-4 92v4q8 -6 139 -121q10 0 16 19q18 72 78 92q27 10 27 14q0 45 -143 82q-117 31 -185 31q-113 0 -246 -64q-68 -31 -122 -74.5t-97 -97.5q-92 -117 -92 -258z" />
<glyph unicode="d" horiz-adv-x="1159" d="M43 344q0 -172 129 -270q121 -96 293 -97q305 0 366 224q12 -283 66 -283q8 0 23.5 -7t25.5 -7q51 0 172 35v94q-23 -10 -43 -10q-23 0 -12 18q6 18 4 20q-10 61 -16 130q-4 41 -4 85q0 29 2 60l8 524q16 135 24 182q6 55 14.5 104.5t18.5 92.5l-65 23 q-113 -66 -365 -154l8 -80q39 10 64.5 13t42.5 3q23 0 35 -4q10 -33 16 -60.5t8 -53.5v-142q-4 8 -4 23q-150 29 -223 29q-16 0 -46 -7l-77 -16q-248 -55 -381 -219q-84 -98 -84 -250zM240 463q0 106 96 176q41 35 91 50.5t105 15.5q8 0 70 -7q72 -10 123 -20t84 -27 q31 -12 31 -20l-6 -160q-2 -51 -4 -92v-26q0 -25 1 -46q-72 -188 -233 -188q-160 0 -258 92q-100 94 -100 252z" />
<glyph unicode="e" horiz-adv-x="948" d="M43 365q0 -182 117 -293q119 -109 299 -109q109 0 248 62q129 55 213 139l-80 16q-158 -90 -277 -90q-172 0 -252 96q-41 43 -43 99l-6 125l86 -13q33 -4 78 -6t102 -2q84 0 179.5 6t205.5 23l-6 121q-78 293 -434 292q-188 0 -313 -143q-117 -135 -117 -323zM266 506 q31 184 217 184q16 0 37 2t45 6q23 4 38 4q10 0 15 -2q80 -41 107 -186q-26 -9 -104 -9q-26 0 -58 1q-41 4 -102 18q-41 8 -47 15zM414 539q0 2 10 2z" />
<glyph unicode="f" horiz-adv-x="819" d="M10 -20q221 0 373 -1.5t242 -3.5v95q-72 2 -117 3t-66 1q-10 2 -16 2q-4 0 -8 2q-12 14 -12 276v154q0 86 2 190q137 -39 184 -39q43 0 92 13l74 149q-49 -8 -95.5 -11t-87.5 -3q-45 0 -84.5 3t-80.5 11q6 190 34 309q51 199 232 199q14 0 16 -24q12 -76 111 -101l18 49 q39 113 172 119q57 4 64 6q0 51 -101 80q-78 18 -145 19q-68 0 -147.5 -23.5t-171.5 -73.5q-170 -92 -238 -227q-31 -61 -45 -144t-16 -188l-173 -2v-117l166 7q20 0 36 1t28 1l-10 -5q-6 -3 -11 -8q-33 -27 -34 -57l-11 -473q-16 -88 -90 -96q-8 -2 -28 -2t-56 -4v-86z" />
<glyph unicode="g" horiz-adv-x="1150" d="M59 346q0 -174 152 -289q139 -109 319 -108q29 0 106 14t200 45q-6 -78 -13.5 -142.5t-21.5 -113.5q-45 -199 -232 -198q-25 0 -92 14t-178 47q-18 0 -37.5 -10.5t-36 -25.5t-27 -35.5t-10.5 -39.5q0 -57 105 -82q35 -10 69.5 -13t71.5 -3q143 0 320 94q172 88 239 230 q61 121 64 329l2 13v96q0 8 -64 125l-51 92l146 -111q4 -4 4 5l-20 133q-6 41 -5 65v12q6 203 39 271q18 33 18 43q0 37 -45 37q-16 0 -65 -33q-20 -14 -45 -80l-16 -43q-5 -14 -7 -18q-16 115 -35 120l-16 9q-86 31 -195 30q-158 0 -302 -58t-236 -161q-105 -115 -105 -260 zM285 389q0 147 83 235.5t230 88.5q51 0 137 -25q98 -31 117 -63q9 -9 9 -135q0 -42 -1 -97q-2 -80 -4 -146.5t-6 -123.5q-106 -53 -213 -53q-147 0 -246 86q-106 86 -106 233z" />
<glyph unicode="h" horiz-adv-x="1236" d="M-10 1114l63 -80q20 6 30.5 8t14.5 5q49 -4 58 -115q18 -197 18 -377q0 -422 -35 -453q-80 -31 -123 -57l37 -78q111 33 248 33q131 0 254 -33l-2 92q-59 16 -100 29.5t-64 24.5l-9 4q-9 4 -28 8q-12 6 -19 10t-11 12q4 0 24 27q25 45 27 70l4 235q80 205 276 207 q150 0 191 -137q20 -59 22 -268q0 -20 1 -39q0 -148 -29 -172q-6 -6 -60 -25q-39 -14 -39 -43q27 -4 51.5 -7t49.5 -3q4 -4 -27 -19q-10 -6 -18.5 -8t-12.5 -4q154 4 269.5 8t193.5 8q-37 12 -37 39q0 23 41 45q-113 0 -164 13l-14 37v51q0 31 2 69v123q0 211 -49 320 q-70 148 -244 147h-10q-131 0 -233 -45q-133 -53 -164 -164q2 74 2 123v78q2 131 12 235.5t27 182.5q-12 -4 -43 -27q-35 -23 -37 -22q-8 0 -8 8t9 27.5t9 33.5q0 6 -4 11q-135 -130 -350 -148z" />
<glyph unicode="i" horiz-adv-x="538" d="M10 -33l15 84l64 6q22 2 24 2q43 14 49 66q0 66 33 145l-27 125q-4 39 -8 96.5t-13 133.5q-6 0 -18 1t-31 3q-84 10 -84 39q0 39 45 47q145 35 297 137q20 0 64 -12q-14 -49 -25.5 -129t-15.5 -191l-4 -82q-2 -41 -2 -80q0 -211 18 -272q8 -12 78 -20h12q-2 -2 -4 -3 q2 -2 10 -2l41 -81zM59 1233l154 72l72 155l71 -155l156 -72l-156 -70l-71 -155l-72 155z" />
<glyph unicode="j" horiz-adv-x="493" d="M-190 -532v-9q0 -6 2 -16q6 -53 147 -53q109 0 158 45q-51 -20 -127 -21q-104 0 -105 45q14 78 123 135q94 47 189 48q94 0 143 -62q33 -39 53 -39q41 0 41 178q0 8 -2 13q-39 147 -39 477q0 463 74 651q-14 8 -27 18l-26 19q-78 -55 -178.5 -103.5t-223.5 -88.5l43 -74 q10 4 38 13t71 30q10 8 22.5 9t20.5 5q-2 -4 -4 -10t-6 -10q-20 -33 -19 -37q49 -49 49 -549q0 -92 -1 -150.5t-3 -87.5q-4 -35 -104 -86q-115 -59 -129 -75l-119 -105q-61 -55 -61 -110zM86 1233l152 -70l73 -155l72 155l154 70l-154 72l-72 155l-73 -155z" />
<glyph unicode="k" horiz-adv-x="1230" d="M10 -29q96 4 179 6.5t155 2.5q88 0 186 -13l7 92q-59 4 -93 10.5t-49 12.5q-14 2 -14 203v112q0 8 -4 13q12 0 57 -41l86 -64q88 -66 156.5 -125t120.5 -108q-45 -8 -68.5 -11.5t-26.5 -3.5v-86q113 6 254 6h101q43 0 83 -2t81 -8v92q-76 8 -138 41q-29 16 -82 54.5 t-131 103.5l-305 242l187 102q106 57 197 90t169 37l-57 70q-14 0 -38 3t-49.5 7t-49 7t-37.5 3l-314 2v-82q94 -6 95 -24q0 -29 -125 -109q-41 -29 -82 -50l-80 -42q12 322 12 356l2 195q0 102 33 188h-88q-12 -12 -25.5 -23t-29.5 -16q-111 -53 -142 -61l-41 -14 q-20 -8 -40.5 -17.5l-41.5 -19.5l21 -47q18 6 35 6q10 0 29 -9l20 -10q27 0 37 -26q23 -68 22 -545q0 -29 41 -98l23 -31l20 -27q-29 25 -56.5 39.5t-55.5 34.5q5 -14 4 -51v-27q-2 -104 -5 -159.5t-8 -61.5q-14 -18 -65 -24l-72 -9v-86z" />
<glyph unicode="l" horiz-adv-x="606" d="M10 -33v84q88 12 123 31q51 27 64 102q4 25 7 64t7 96l20 373q2 56 3 101q0 164 -29 200q-16 16 -70 16q-20 0 -22 -2l6 35v80l143 45q35 10 53.5 16t24.5 6q25 0 25 -20t-23 -61l158 122q-23 -68 -37 -186.5t-25 -292.5q-4 -20 -4 -49v-39q0 -20 -2 -47q-6 -129 -6 -281 q0 -211 18 -260q12 -35 154 -47v-90q-141 10 -221 13.5t-103 3.5q-114 -1 -264 -13z" />
<glyph unicode="m" horiz-adv-x="1832" d="M10 -29l326 4q23 2 52.5 1t70.5 -5q35 -4 59 -4h45q-10 6 -26.5 14.5t-34.5 20.5q-82 49 -94 96q-6 31 -7 199v109q0 39 1 87t4 107q178 76 270 76q125 0 158 -121q4 -76 5 -142v-44q0 -43 -1 -84l22 26q18 25 35 25q5 0 5 -13q0 -21 -19 -63q-10 -23 -15.5 -38t-5.5 -25 q0 -94 -35 -113q-4 -4 -4 -10q16 6 26.5 9t14.5 5q45 14 43 25l27 -68q-2 -3 -19 -3t-49 3q-41 2 -64.5 2t-29.5 -2l18 -70h121q53 -2 82 -2h41h94l19 84q-59 6 -74 25q-4 55 -6 168l-8 225q0 33 -2 65.5t-6 65.5q137 49 241 49q123 0 172 -80q35 -66 35 -196 q0 -260 -43 -291q-29 -23 -104 -39l22 -76h457l-37 76q-61 14 -68 21q-8 8 -16 14v317q0 209 -37 283q-59 111 -248 111q-166 0 -399 -97q-61 125 -233 125q-100 0 -328 -96l-57 -22q0 133 -62 133q-16 0 -37 -11l-45 -21t-39 -15l-79.5 -16.5t-57.5 -10.5l-74 -117 q49 -4 82 -7t45 -9q55 -23 56 -252q0 -254 -56 -291q-27 -18 -123 -37zM563 -33q8 -2 13.5 -3t11.5 -1h2l-4 4h-23z" />
<glyph unicode="n" horiz-adv-x="1232" d="M10 66l6 -78h306q76 0 241 -13l6 86q-150 12 -163 33q-13 15 -14 171q0 39 1 87l8 262q156 66 295 66q145 0 164 -119q4 -29 6 -65.5t2 -85.5q0 -256 -28 -308q-16 -23 -150 -51v-80l161 10.5t124 4.5q63 0 125.5 -4.5t126.5 -10.5l-6 80l-76 19q-35 8 -64 14q-2 2 4 53 q4 29 6.5 54.5t2.5 54.5q0 63 -11 90l-36 110q-2 12 -3.5 23.5t-1.5 22.5q0 10 4 29l6 41l6 41q3 19 3 32q0 98 -98 149q-76 39 -181 39q-143 0 -381 -106q-6 119 -57 119q-14 0 -72 -25q-31 -14 -127 -74q-23 -25 -37 -45t-24 -37q4 -4 4 -6t-2 -6l-2 -4q29 -2 46 -2 q26 0 26 4q33 -10 32 -195q0 -299 -26 -337q-19 -25 -152 -43z" />
<glyph unicode="o" horiz-adv-x="1171" d="M41 395q0 -154 90 -250q166 -182 461 -182q319 0 469 223q68 100 67 222q0 195 -172 315q-152 111 -352 111q-117 0 -217 -33q-152 -43 -244 -146q-102 -113 -102 -260zM262 453q0 129 76 201.5t201 72.5q41 0 73.5 -25.5t65.5 -78.5q39 -66 69.5 -105t59.5 -53l45 -26 q16 -9 22 -13q14 -14 21.5 -28.5t7.5 -37.5q0 -135 -80 -216t-219 -81q-152 0 -252 121q-90 109 -90 269z" />
<glyph unicode="p" horiz-adv-x="1247" d="M10 700l27 -75q109 35 110 34q47 0 64 -65q4 -14 6 -61.5t4 -129.5q2 -119 2 -196v-117l-4 -309q0 -49 -4 -77t-8 -36l-19 -10q-8 -16 -32 -16h-15q-6 0 -10 2l-72 22l9 -42q4 -22 6 -44l276 -91l207 -71q33 -12 53 -12q29 0 29 27q-4 45 -86 78l-85 37q-30 13 -34 18 q-19 14 -19 85q0 13 1 27l4 113l6 201q88 -20 164 -21q29 0 65.5 3t83.5 14q262 49 389 205q76 90 76 227q0 178 -131 293q-123 111 -303 110q-106 0 -190 -39q-123 -57 -160 -172l-14 148q-12 104 -25 139q-33 -35 -123 -88q-96 -59 -133 -59q-14 -4 -44 -18zM420 147 l2 367q49 106 135 154q51 29 96 28q43 0 85 -14t85 -43q184 -123 185 -309q0 -88 -52 -142q-51 -53 -113.5 -78.5t-142.5 -25.5q-27 0 -95 16t-185 47z" />
<glyph unicode="q" horiz-adv-x="1153" d="M51 346q0 -174 152 -289q139 -109 319 -108q39 0 117 14t197 47v-207q0 -160 -33 -237q-14 -43 -78 -74q-33 -10 -53 -12l-10 -37q-4 -14 -5 -29q0 -25 15 -24q4 0 8 2l8 4l99 29l75 22q72 29 127 47l92 31q74 18 90 18q12 33 13 54q0 25 -17 30q-35 -4 -62.5 -6 t-45.5 -2q-2 23 -5 37l-5 25q-2 39 0 57q2 10 2 26v37v357q0 250 13 399.5t36 202.5q18 33 18 43q0 37 -45 37q-6 0 -21 -9l-44 -24l-56 -35q-55 -109 -59 -108l-4 4q-49 86 -74 110q-39 33 -135 45q-23 2 -40 3t-34 1q-35 0 -87 -14t-130 -47q-72 -31 -130 -70t-103 -90 q-105 -115 -105 -260zM276 389q0 147 83 235.5t231 88.5q113 0 160 -33q88 -57 94 -180q9 -9 9 -101q0 -30 -1 -69q-2 -70 -4 -121t-6 -86q-106 -53 -213 -53q-147 0 -246 86q-107 86 -107 233z" />
<glyph unicode="r" horiz-adv-x="821" d="M10 711l53 -117q2 0 9.5 7t14.5 15l13 16q6 7 11 7q47 0 59 -25q14 -31 14 -159q0 -84 -1 -142.5t-3 -93.5q-12 -127 -53 -145q-10 -6 -35.5 -11.5t-66.5 -11.5l-5 -80l443 13q80 2 112 2q33 0 17 0l8 96h-108l-35 -4q-35 -2 -51 10q-24 46 -24 180q0 29 1 62l10 186 l2 57q2 18 31 37q82 61 156 62q4 2 96 78l2 -2l-66 -107q-23 -37 -22 -47q16 4 35.5 11t44.5 24q10 10 27.5 24.5t39.5 34.5q18 8 58 10q29 4 28 25q0 45 -28 74q-29 18 -51 29l-33 18l-25 12l-36 -21q-19 -11 -42 -22l-61 -29l-35 -14l-67 -33l-52 -24q0 84 -6 176 q-154 -178 -379 -178z" />
<glyph unicode="s" horiz-adv-x="886" d="M10 281q4 -16 18 -36l33 -48q27 -43 27 -64l14 -27q18 -29 19 -36q0 -35 -76 -56q121 -29 200 -41t122 -12q82 0 169 23.5t181 74.5q96 45 96 172q0 113 -96 189q-61 53 -199 104q-84 31 -134 54.5t-67 37.5q-23 18 -22 52q0 104 135 104q6 0 48 -16l122 -47q8 -6 23 -7 q18 0 18 23q0 14 -2 23l137 -136q-59 131 -59 211v19q0 8 4 16q-178 18 -244 19q-117 0 -207 -39q-193 -84 -192 -228q0 -90 92 -153q51 -37 164 -78q61 -25 102 -43.5l66 -30.5q98 -59 98 -133q0 -53 -47 -72q-61 -18 -121 -18q-76 0 -151 33q-94 49 -109 59q-33 20 -33 62 q-16 -14 -37 -15q-39 1 -92 60z" />
<glyph unicode="t" horiz-adv-x="645" d="M33 741h188v-77l12 -320q1 -12 1 -26q0 -55 -13 -134q-12 -76 -63 -102q-35 -18 -123 -31v-84q147 12 262 13l303 -17v90q-141 12 -154 47q-18 49 -18 260q0 80 1 151t3 130q-10 72 -24 84l2 16h204q-4 16 -4 23q0 35 29 72q23 31 35 49t14 24h-270q18 195 51 295 l-158 -125q12 23 17.5 38.5t5.5 25.5q0 16 -25 16q-2 0 -6 -4l-4 -4q-27 -14 -45 -10l-53 2v-82l-4 -33h20q12 0 12 -6q0 -2 -20 -29q-16 -25 -14 -30q12 -12 18 -54h-107q6 -16 7 -28q0 -29 -35 -74q-43 -56 -45 -66z" />
<glyph unicode="u" horiz-adv-x="1128" d="M10 625q31 6 39 14h2q18 0 23 -12q4 -16 6 -38t2 -50l-12 -240q-1 -13 -1 -25q0 -124 56 -208q70 -104 209 -105q125 0 416 121q12 -68 41 -145q43 -18 86 -19q106 0 249 109l-55 47q-4 -6 -7 -8.5t-5 -4.5l-2 13q0 12 -13 12l-59 -39q-56 -37 -66 -37h-1q-4 2 -5 4 q4 4 10.5 15.5t22.5 31.5l29 35q-10 31 -13.5 77t-3.5 112q0 23 1.5 57.5t3.5 85.5l30 440l-186 -90q-61 -29 -121 -29q-4 0 -8 1l6 -86q47 -6 41 -13q20 -6 27 -35q6 -18 6 -104.5t-6 -241.5q-2 -10 -3 -32.5t-1 -53.5q-201 -82 -279 -82q-127 0 -154 68q-37 70 -36 184 q0 47 6 158t22 287q2 47 -47 47l-250 -125v-96z" />
<glyph unicode="v" horiz-adv-x="1048" d="M10 729q94 -41 117 -63q6 -4 70 -129q186 -362 258 -613h73l74 148l232 417q70 131 84 146q47 72 126 100v80q-47 -10 -91 -13t-83 -3q-25 0 -55.5 1t-64.5 3l-113 -2l-12 -84q66 0 118 2t88 4v-2q-29 -25 -45 -40t-22 -19q0 -63 -78 -220q-63 -121 -125 -206 q-23 43 -47 101l-57 134q-74 184 -74 227q2 2 8 2q39 8 72 11.5t57 5.5l12 90q-109 -6 -198.5 -8t-161.5 -2h-88q-39 0 -74 2v-70z" />
<glyph unicode="w" horiz-adv-x="1615" d="M10 723q70 -20 96 -39q43 -29 115 -205q74 -186 118 -323.5t56 -225.5l74 4q8 4 17.5 18.5t19.5 35.5l162 276l129 215l18 -53q18 -47 29 -66q59 -152 96 -258t47 -168l98 5q29 86 54.5 145t52.5 90l168 270q49 84 89 142.5t71 93.5q29 39 86 49q6 27 6 78 q-129 -6 -201 -6q-86 0 -184 6l-8 -82q35 10 56 18.5t36 18.5q16 -2 16 -84q0 -78 -221 -430q-80 205 -119 314.5t-39 127.5q-2 -2 -5 -7l-9 -15q-23 -25 -47 -25l-51 29q-47 27 -54 24q-4 -4 -6 -4l-2 -2q-29 -72 -90 -178t-158 -250q-16 35 -38 88l-48 121 q-33 84 -47 137.5t-14 81.5q0 16 110 27l-43 108q-59 -10 -105 -15t-79 -11q-104 -2 -166.5 -3t-85.5 -5v-68z" />
<glyph unicode="x" horiz-adv-x="1067" d="M10 -29q55 4 105.5 6.5t97.5 2.5q59 0 113.5 -2.5t107.5 -6.5l-12 92q-16 0 -54 9.5t-61 9.5q0 20 86 111l56 53l51 47l74 -122l63 -105q-10 0 -36 -1.5t-64 -3.5l20 -96q35 6 91.5 8t135.5 2q86 0 150.5 -2t109.5 -8v94q-117 6 -174 52q-20 16 -49.5 53t-66.5 94 l-105 168l121 122l57 56q131 117 217 119v88q-115 -12 -180 -12q-23 0 -79 2t-146 8l-37 -82l109 -12q29 -4 28 -17q0 -43 -151 -178q-119 164 -119 191q0 2 2 2q10 2 30.5 5t55.5 5l-27 92q-47 -4 -122.5 -8t-184.5 -4h-84q-43 0 -92 4l-12 -86q154 -18 176 -33 q82 -51 229 -303l-250 -226q-84 -77 -92 -81q-10 -4 -29.5 -7t-52.5 -10z" />
<glyph unicode="y" horiz-adv-x="1128" d="M10 698l13 -67q43 16 61 16q23 -4 36 -6l13 -2q20 0 25 -12q5 -28 4 -64v-24l-10 -240q0 -9 -1 -18q0 -131 58 -215q70 -104 209 -105q115 0 403 115q-4 -92 -13 -166t-22 -131q-51 -199 -231 -199q-29 0 -94.5 14.5t-175.5 47.5q-39 0 -75 -36t-36 -75q0 -51 100 -82 q35 -10 72 -13t74 -3q141 0 319 96q162 80 234 221q53 109 63 316l41 759l-366 -75l4 -86l52 -7l17 -2q45 -10 52 -39q6 -18 6 -104.5t-6 -241.5q-2 -10 -3.5 -32.5t-1.5 -53.5q-205 -82 -278 -82q-125 0 -158 68q-35 74 -35 184q0 94 31 445q2 47 -47 47z" />
<glyph unicode="z" horiz-adv-x="1101" d="M10 23l39 -64l126 8q62 4 124 4l471 2q33 0 75 -2t93 -8q10 -2 21.5 -3t27.5 -1q-2 10 -2 18v19q0 129 94 266h-88q-31 -92 -84 -127q-90 -61 -332 -61q-53 0 -101 1t-91 3l365 356q217 211 354 367h-610q-98 0 -161 2t-93 6q-47 4 -70 14l-72 29q1 -10 1 -21 q0 -66 -23 -120q-12 -70 -47 -131h88q35 84 153 108q57 12 197 12h246q-195 -217 -369 -385.5t-332 -291.5z" />
<glyph unicode="{" horiz-adv-x="778" d="M10 291l6 188l119 10q37 6 70 52q27 41 26 82q0 23 -24 155q-14 70 -20.5 114t-6.5 62q0 231 246 359q109 57 279 76l-7 -207q-76 70 -145 69q-63 0 -102 -55q-35 -45 -41 -100q0 2 -2 2v2l-7.5 -38t-11.5 -75q-10 -78 -15 -128t-5 -71q0 -86 34 -86q16 0 41 25 q8 8 13.5 11t7.5 7q0 -242 -318 -364q317 -115 318 -361q0 -39 -25 -176q-31 -141 -30 -163q0 -139 141 -140q61 0 154 41v-209q-324 35 -459 232q-35 47 -50.5 98t-15.5 104l25 29q55 57 39 221q-12 94 -13 88q-2 66 -116 125q-23 15 -105 21z" />
<glyph unicode="|" horiz-adv-x="346" d="M84 -336h176v1962h-176v-1962z" />
<glyph unicode="}" horiz-adv-x="778" d="M10 -418q94 -41 158 -41q139 0 139 140q0 10 -7 51t-21 112q-14 72 -21.5 116t-7.5 60q0 246 319 361q-319 123 -319 364q4 -4 8 -7l14 -11q27 -25 43 -25q33 0 33 86q0 20 -5 70.5t-15 128.5q-12 100 -21 115q-4 25 -14 48.5t-25 45.5q-41 55 -106 55q-70 0 -146 -69 l-4 207q172 -18 281 -76q246 -129 246 -359q0 -16 -8 -60l-19 -116q-14 -66 -21.5 -104.5t-7.5 -50.5q0 -43 31 -82q27 -45 66 -52l120 -10l5 -188q-78 -6 -103 -21q-57 -23 -82 -47q-37 -35 -37 -78q0 4 -2 -18l-6 -70q-18 -164 39 -221l25 -29q0 -109 -68 -202 q-135 -197 -459 -232z" />
<glyph unicode="~" horiz-adv-x="1007" d="M10 782l43 37q35 254 148 254q129 0 184 -88q109 -182 238 -182q6 0 65 53q31 29 48.5 41t23.5 14q2 0 2 -2q0 -6 -7 -18l-20 -35q-23 -35 -24 -43q129 0 190 197q33 92 33 252l-49 -31q-2 -39 -17 -74q-16 -41 -32 -63q-43 -94 -115 -95l-12 -9q-12 -9 -35 -29 q-45 -37 -56 -39l21 34q23 29 23 35q-61 0 -125 101q-117 176 -332 176q-96 0 -164 -138q-16 -39 -27 -169q-2 -49 -2 -95q0 -45 -2 -84z" />
<glyph unicode="&#xa1;" horiz-adv-x="536" d="M10 721l154 -72l72 -155l71 155l156 72l-156 74l-71 151l-72 -151zM106 -424v-10q4 -43 50 -41l158 58q56 22 71 26q47 12 45 47q0 20 -14 70q-14 57 -35 67q-6 2 -39 -43q-35 -49 -37 -49q-6 0 -6 12q10 59 21.5 106.5t23.5 82.5q-10 180 -16 316t-6 235l-150 6 q2 -37 0 -39q-6 -47 -12 -150l-17 -262q-6 -119 -14 -223t-20 -195q-3 -10 -3 -14z" />
<glyph unicode="&#xa2;" horiz-adv-x="970" d="M10 356q0 -180 92 -262q31 -29 68 -49l-100 -184h178l69 125q49 -14 98.5 -20.5t96.5 -6.5q193 0 385 135q2 6 -16 12l-31 5q0 2 6 19t6 22q0 8 -6 12q-164 -76 -258 -76q-88 0 -195 51l295 539l7 -6q23 -18 38 -33.5t31 -26.5q10 0 17 19q18 72 77 92q27 10 27 14 q0 41 -123 76l86 156h-182l-66 -121q-12 2 -22 2h-21q-113 0 -245 -64q-68 -31 -122.5 -74.5t-97.5 -97.5q-92 -117 -92 -258zM217 444q0 252 234 252q8 0 43 -18q8 -2 20 -6l-235 -430q-33 41 -47.5 92t-14.5 110zM516 717q0 6 4 6t6 -2l13 -6l-13 -19q-10 15 -10 21z" />
<glyph unicode="&#xa3;" horiz-adv-x="1206" d="M29 367h268v-50l-3 -90q-1 -31 -1 -34q-12 -74 -43 -93q-43 0 -60.5 -1t-22.5 -3t-3 -3t-2 -3q-16 -4 -49 -11l-80 -18l6 -81h436q172 0 278.5 -1.5t161 -2.5t81 -2t40 -3t37.5 -4q8 14 8 25l-14 20q-14 16 -14 33q0 12 6 31q12 33 69 121q29 43 42.5 70.5t17.5 39.5 l-94 10q-35 -111 -103 -145q-70 -35 -167 -51.5t-230 -22.5q-14 10 -22.5 23.5t-14.5 30.5q-6 25 -13 78t-12 137h449q-2 4 -2 10v14q0 12 6 29.5t23 38.5l32 51q12 18 15 22h-527v168h453q-2 8 -2 23q0 31 29 72l32 48l15 21h-518q12 184 77 277q119 176 394 276 q2 -2 5 -21.5t5 -58.5q2 -74 31 -73q63 0 104 77q35 66 35 117q0 29 -45 51q-35 18 -70 19q-131 0 -260 -111q-104 -76 -164.5 -115.5t-75.5 -48.5q-121 -70 -155 -69q-59 0 -115 86q0 4 -2 5t-2 -1q0 -4 2 -4h2v-406h-201q8 -10 9 -28q0 -33 -33 -72l-33 -42 q-12 -15 -16 -22h274v-168h-201q8 -10 9 -28q0 -33 -33 -72l-33 -42q-12 -15 -16 -23z" />
<glyph unicode="&#xa4;" horiz-adv-x="1226" d="M10 1245q-4 -80 111 -147l43 -25q20 -12 37 -24l30 -19q-80 -96 -79 -221q0 -131 79 -227l-24 -17l-50 -30l-32 -19q-115 -72 -111 -147q2 -53 41 -92t92 -39q86 0 164 133l62 100q96 -45 215 -45q121 0 207 39q41 -72 74.5 -119t60.5 -76q39 -37 90 -37q53 0 92 38 t41 89q2 78 -113 148q-18 12 -39 24l-40 25l-25 18q88 106 88 234q0 139 -88 233l98 64q57 35 87 71.5t26 73.5q-2 53 -40 91t-91 38q-57 -4 -98 -45q-14 -14 -31 -35l-39 -51q-12 -18 -62 -104q-47 20 -96 31.5t-102 11.5q-59 0 -112.5 -13.5t-104.5 -35.5q-47 76 -81 124 t-57 72q-39 39 -90 39q-53 0 -92 -38t-41 -91zM307 809q0 47 37 109q74 129 244 129q45 0 110 -19q80 -27 111 -72q59 -66 59 -147q0 -31 -12 -64.5t-33.5 -62.5t-49.5 -50.5t-58 -29.5q-35 -16 -67 -22.5t-60 -6.5q-178 0 -223 95q-58 63 -58 141z" />
<glyph unicode="&#xa5;" horiz-adv-x="1806" d="M10 1378l19 -88q53 -2 88 -7t53 -13q53 -16 149 -113l140 -141q96 -98 231 -293q-84 2 -152.5 3t-127.5 3q8 -10 8 -29q0 -31 -35 -71l-32 -42q-11 -15 -15 -22q127 -2 236.5 -3t205.5 -1v-131q-115 -2 -212 -6t-175 -8q6 -16 6 -31q0 -27 -32 -70q-45 -53 -48 -67 q98 10 212 16t247 6v-59q-4 -115 -28 -133q-20 -16 -66.5 -26.5t-124.5 -12.5v-84q31 0 73 3l99 7q59 4 100 6t70 2h55l254 -12q10 8 11 19q0 6 -5 6l25 24h-25q2 2 13 2q2 2 16 2v21q-207 37 -223 67l-57 -8q-29 0 -29 25q16 47 32.5 84t32.5 65q88 -2 168 -7t152 -13 q-4 16 -4 24q0 27 28 72q47 61 50 72q-152 8 -381 12l-2 133q100 0 182 1t147 3q-2 6 -3 11.5t-1 11.5q0 31 29 71l35 49q12 17 14 21q-72 -2 -153.5 -3t-174.5 -3l54 61l203.5 253.5t119.5 133.5q70 68 121 84q43 16 146 21l4 96h-60q-33 0 -80 -4q-47 -2 -82 -2h-59 q-29 0 -102.5 2t-194.5 8l-12 -96q176 8 176 -41q0 -29 -43 -96.5t-131 -171.5l-125 -153l-66 -81l-123 154l-94 119l-64 81l-87 103q-57 68 -58 74h11q29 8 139 14l14 92l-90 4h-47q-29 0 -76 -2q-14 -143 -39 -143l-80 72q-76 70 -94 69q-31 2 -54.5 3t-41.5 1h-160z" />
<glyph unicode="&#xa6;" horiz-adv-x="346" d="M84 -336h176v756h-176v-756zM84 911h176v715h-176v-715z" />
<glyph unicode="&#xa7;" horiz-adv-x="1374" d="M-57 -209q6 -16 22.5 -50t38.5 -89q10 -23 15.5 -50.5t3.5 -58.5l96 -22q-6 12 0 61l4 47q12 -16 23.5 -29.5t17.5 -29.5q106 -23 201.5 -34t183.5 -11q379 0 524 188q72 88 72 199q0 98 -43 176q41 23 70.5 57.5t66.5 83.5q72 88 72 199q0 248 -262 346l-222 81l-245 89 q-162 55 -162 207q0 94 82 131l243 104q41 23 86 23q96 0 250 -123q10 -10 22 -18l25 -19q4 -10 9.5 -26.5t9.5 -44.5l98 -64q4 18 0 58t-12 106l22 184q-41 12 -59 13l-16 -9q-31 -16 -66 -16q-6 0 -22.5 2t-38.5 6q-10 2 -43 9.5t-86 21.5q-86 23 -127 22q-14 0 -23.5 -1 t-19.5 -3q-29 -12 -76 -25.5t-113 -29.5q-109 -25 -164 -55q-195 -106 -194 -314q0 -104 63 -186q-10 -4 -18 -8l-16 -8q-195 -109 -195 -314q0 -244 340 -358l200 -65q79 -26 119 -38q219 -74 220 -256q0 -133 -95 -169q-106 -45 -209 -46q-123 0 -227 31q-207 53 -256 103 q-41 37 -57 88l-39 98l-37 -78q-39 -80 -57 -86zM256 635q0 94 80 131l59 25q33 -18 70 -34l80 -32l199 -65q79 -26 120 -37q219 -74 219 -256q0 -129 -86 -168q-23 16 -52.5 31.5t-59.5 27.5l-221 81l-246 89q-162 55 -162 207z" />
<glyph unicode="&#xa8;" horiz-adv-x="722" d="M10 1092q0 -53 39 -89t90 -36q53 0 92 33.5t39 91.5q0 53 -38.5 89t-92.5 36q-53 0 -91 -36t-38 -89zM37 1128l74 5l28 63l29 -66l74 -4l-58 -45l15 -69l-62 37l-63 -33l20 65zM389 1092q0 -57 37 -91t94 -34q53 0 91 35.5t38 89.5q0 53 -38 89t-91 36t-92 -36t-39 -89z M416 1128l73 5l29 63l27 -66l73 -4l-55 -45l17 -69l-64 37l-63 -33l18 65z" />
<glyph unicode="&#xa9;" horiz-adv-x="1679" d="M10 762q0 -180 109 -332q115 -160 303 -246q90 -41 185 -61.5t200 -20.5q207 0 375 78q193 82 303 228q121 162 121 354q0 182 -109 334q-111 156 -305 243q-92 41 -186.5 61.5t-198.5 20.5q-211 0 -397 -90q-400 -188 -400 -569zM119 762q0 152 92 280q96 135 264 211 q152 70 332 70q51 0 89 -2t62 -6q72 -12 183 -62q78 -37 141.5 -85t110.5 -109q104 -133 104 -297q0 -152 -92 -281q-203 -281 -598 -280q-193 0 -348 78q-340 159 -340 483zM248 762q0 -219 186 -348q164 -119 393 -119q59 0 153.5 16.5t225.5 46.5l4 15.5t2 15.5 q0 35 -34 45q20 45 39 78q0 2 -5 6q-4 0 -17 -6t-19 -6q-4 0 -10.5 3t-8.5 3q-10 0 -24 -20q-20 -29 -42 -51.5t-44 -34.5q-72 -47 -189 -48q-135 0 -270 88q-166 106 -166 316q0 231 115 287l137 67q78 39 151 39q55 0 148 -25q100 -25 129 -61q4 -6 6 -18.5t6 -30.5 q0 -25 14 -37q4 -2 13.5 -5t25.5 -5q2 2 2 12q0 14 -2 36.5t-2 35.5q0 70 52 108q-16 16 -29 17q-6 0 -14.5 -1t-18.5 -3q-25 0 -61 12q-127 35 -232 35q-152 0 -282 -47q-332 -121 -332 -416z" />
<glyph unicode="&#xaa;" horiz-adv-x="894" d="M10 1028q0 -59 21.5 -109.5t59.5 -87t90 -57t112 -20.5q195 0 244 153q6 -166 45 -166q49 -6 61 -6q94 0 178 78l-14 39q-37 -33 -62 -33q-37 0 -55 53q-2 16 -3 53.5t-1 96.5v186q2 51 10.5 102.5t24.5 106.5l-47 19q-35 -23 -67 -39.5t-64 -28.5v-31q-59 55 -140 56 q-160 0 -270 -103q-123 -108 -123 -262zM147 1116q0 80 60 127q55 49 133 49q176 0 203 -96q0 -23 24 -86q14 -31 19.5 -52.5t5.5 -35.5q-55 92 -72 92q-25 0 -24 -57q0 -16 2 -48t2 -48q0 -31 -8 -43q-49 -53 -109 -54q-113 0 -174 72q-62 69 -62 180z" />
<glyph unicode="&#xab;" horiz-adv-x="1097" d="M10 586v110l563 457v-221q-129 -49 -208 -111q-61 -47 -189 -180l92 -85l74 -67q57 -51 114.5 -86.5t116.5 -56.5v-221zM463 586v110l561 457v-221q-66 -25 -117 -52.5t-92 -58.5q-35 -29 -80 -72.5t-104 -107.5l91 -85l73 -67q57 -51 113.5 -86.5t115.5 -56.5v-221z" />
<glyph unicode="&#xac;" horiz-adv-x="1298" d="M10 651h963l20 -196q8 4 14.5 6t14.5 2q33 0 72 -33l43 -33q16 -12 22 -16l6 250v53q-2 2 -37 8q-35 12 -34 17q0 2 36 14q39 8 46 22q43 57 49 74h-1141q6 -16 6 -31q0 -33 -31 -71l-32.5 -41.5t-16.5 -24.5z" />
<glyph unicode="&#xad;" horiz-adv-x="845" d="M47 418h688l-4 12q-2 6 -2 12q0 27 31 70q23 31 35 49.5t14 24.5h-688q6 -16 6 -31q0 -33 -31 -72l-32.5 -41t-16.5 -24z" />
<glyph unicode="&#xae;" horiz-adv-x="1679" d="M10 762q0 -180 109 -332q115 -160 303 -246q90 -41 185 -61.5t200 -20.5q207 0 375 78q193 82 303 228q121 162 121 354q0 182 -109 334q-111 156 -305 243q-92 41 -186.5 61.5t-198.5 20.5q-211 0 -397 -90q-400 -188 -400 -569zM119 762q0 152 92 280q35 47 78 87 t94 75l25 -33q41 -10 45 -20q14 -6 22 -23q4 -16 8 -72.5t4 -156.5v-297q0 -184 -24 -209q-16 -8 -31 -13l-26 -9q-37 -10 -37 -31q0 -10 2 -16q-252 157 -252 438zM397 309h6l56 -10h24q8 0 20.5 3t27 7t27.5 7t22 3q51 0 155 -12q29 0 29 33q0 16 -41 29q-8 0 -38 -7 l-83 -16q-2 2 -7 9t-9 22q53 2 55 4q8 14 8 20q-10 23 -15 107t-3 231q70 -6 155 -6q104 -106 171 -191t96 -153q61 -86 100 -86h61q-166 -102 -407 -102q-193 0 -348 78q-31 12 -62 30zM403 1217q16 10 35 18t37 18q152 70 332 70q51 0 89 -2t62 -6q72 -12 183 -62 q78 -37 141.5 -85t110.5 -109q104 -133 104 -297q0 -152 -92 -281q-25 -37 -54.5 -67.5t-60.5 -57.5q-8 6 -22 11q-47 4 -56 16q-27 53 -77 111l-95.5 141t-72.5 119q215 74 215 231q0 25 -5.5 48.5t-19.5 45.5q-90 154 -356 154q-27 0 -65 -2t-87 -6q-51 -4 -88 -6t-59 -2 h-99zM639 811q0 152 3 235.5t11 100.5q10 14 58 -8q6 -8 16 -9q6 0 27 21l20 18q160 0 223 -112q27 -41 27 -88q0 -166 -270 -166q-35 0 -62.5 2t-52.5 6z" />
<glyph unicode="&#xaf;" horiz-adv-x="860" d="M10 1024h776v131h-776v-131z" />
<glyph unicode="&#x2c9;" horiz-adv-x="860" d="M10 1024h776v131h-776v-131z" />
<glyph unicode="&#xb0;" horiz-adv-x="712" d="M10 1004q0 -59 39 -119q29 -47 44.5 -75t19.5 -38q33 -92 108 -92q8 0 22.5 2t30 3t28.5 3t22 2q94 0 168 47q147 92 147 267q0 68 -23.5 125t-65.5 99t-99.5 65.5t-126.5 23.5q-133 0 -224 -90q-90 -88 -90 -223zM127 1006q0 41 15.5 75.5t42 59t62.5 39t75 14.5 q37 0 59 -41q31 -49 94 -68q43 -10 43 -79q0 -84 -56 -138.5t-140 -54.5t-139.5 54.5t-55.5 138.5z" />
<glyph unicode="&#xb1;" horiz-adv-x="1093" d="M47 170h903q-4 12 -4 25q0 27 29 67q45 63 49 74h-903q6 -12 6 -29q0 -35 -31 -71l-33 -42q-12 -16 -16 -24zM72 932q0 -43 27.5 -75t72.5 -32l143 27l116 25q50 10 89 20l-30 -131q-11 -51 -15 -76q-4 -10 -6 -27.5t-10 -44.5q-4 -18 -6 -34.5t-2 -34.5 q0 -45 27.5 -71.5t74.5 -26.5q43 0 71.5 28.5t28.5 71.5q0 68 -12 102l-33 137l-26 107q74 -18 126 -28.5l80 -16.5q12 0 72 -16q18 -4 36.5 -7.5t35.5 -3.5q45 0 72.5 30t27.5 77q0 41 -29.5 70.5t-72.5 29.5q-66 0 -105 -12q-57 -16 -117.5 -29.5t-125.5 -29.5 q72 274 71 346q0 43 -28.5 72.5t-71.5 29.5q-47 0 -74.5 -27.5t-27.5 -70.5q0 -4 5 -41t19 -105q25 -125 43 -204q-51 16 -94 26l-78 19q-51 12 -94 19t-78 7q-41 0 -71.5 -29.5t-30.5 -70.5z" />
<glyph unicode="&#xb2;" horiz-adv-x="776" d="M10 516q0 -2 2 -4q68 55 99 55q6 0 18 -7l21.5 -13t11.5 -8l387 -2q47 0 76 -31h43q8 23 4 63q-6 33 0 41l30 90l-65 25l-14 -49q-4 -2 -7.5 -5t-13.5 -7q-41 -18 -172 -15l-201 2q39 33 45 39l129 111l94 84q38 33 58 53q121 121 121 233q0 104 -84 158q-72 51 -178 51 q-74 0 -129 -20q-86 -33 -185 -121l56 -37q82 74 198 74q178 0 178 -137q0 -104 -204 -308q-70 -70 -305 -268q2 -2 2 -6t-7.5 -19.5t-7.5 -21.5z" />
<glyph unicode="&#xb3;" horiz-adv-x="735" d="M10 662l137 104l15 -88q12 -55 82 -68q18 -8 110 -8q74 0 127 41q59 47 60 117q0 63 -64 121q-33 27 -119 75l-26 29l-70 -14q47 29 77 51l46 35q72 61 72 123q0 53 -49 88q-43 31 -103 30q-76 0 -178 -65l-43 43q154 111 283 110q88 0 147 -36q74 -47 74 -125 q0 -92 -109 -185q182 -102 183 -227q0 -164 -187 -240q-84 -37 -176 -36q-176 0 -289 125z" />
<glyph unicode="&#xb4;" horiz-adv-x="495" d="M10 1085h189q39 18 104 123q63 109 119 133l-225 -4q-6 -4 -62 -110q-55 -109 -125 -142z" />
<glyph unicode="&#xb5;" horiz-adv-x="1159" d="M-47 -307l518 12l-41 82q-8 0 -10 2q2 0 6 2h-12q-70 6 -80 21q-8 23 -11.5 60.5t-5.5 92.5q12 -2 25.5 -3t26.5 -1q125 0 415 121q4 -35 15.5 -72t25.5 -73q39 -18 86 -19q109 0 248 109l-53 47q-4 -6 -7 -8.5t-5 -4.5l-2 13q0 12 -13 12l-59 -39q-61 -39 -70 -37 q-2 2 -2 4q2 8 33 47l29 35q-10 31 -13.5 77t-3.5 112q0 23 1 57.5t3 85.5l31 440l-188 -90q-63 -31 -127 -28l4 -86q49 -6 43 -13q20 -6 26 -35q12 -37 0 -346q-2 -10 -3 -32.5t-1 -53.5q-201 -82 -278 -82q-125 0 -156 68q-10 20 -20.5 47t-10.5 53q-4 18 -5 40t-1 44 q0 94 31 445q2 47 -47 47l-250 -125v-96q16 4 25.5 7t13.5 7h2q18 0 23 -12q6 -35 6 -88l-13 -269h-2l8 -84q3 -37 3 -65l26 -125q-16 -43 -23.5 -79t-7.5 -67q-10 -53 -49 -67q-4 0 -90 -6z" />
<glyph unicode="&#x3bc;" horiz-adv-x="1159" d="M-47 -307l518 12l-41 82q-8 0 -10 2q2 0 6 2h-12q-70 6 -80 21q-8 23 -11.5 60.5t-5.5 92.5q12 -2 25.5 -3t26.5 -1q125 0 415 121q4 -35 15.5 -72t25.5 -73q39 -18 86 -19q109 0 248 109l-53 47q-4 -6 -7 -8.5t-5 -4.5l-2 13q0 12 -13 12l-59 -39q-61 -39 -70 -37 q-2 2 -2 4q2 8 33 47l29 35q-10 31 -13.5 77t-3.5 112q0 23 1 57.5t3 85.5l31 440l-188 -90q-63 -31 -127 -28l4 -86q49 -6 43 -13q20 -6 26 -35q12 -37 0 -346q-2 -10 -3 -32.5t-1 -53.5q-201 -82 -278 -82q-125 0 -156 68q-10 20 -20.5 47t-10.5 53q-4 18 -5 40t-1 44 q0 94 31 445q2 47 -47 47l-250 -125v-96q16 4 25.5 7t13.5 7h2q18 0 23 -12q6 -35 6 -88l-13 -269h-2l8 -84q3 -37 3 -65l26 -125q-16 -43 -23.5 -79t-7.5 -67q-10 -53 -49 -67q-4 0 -90 -6z" />
<glyph unicode="&#xb6;" horiz-adv-x="1433" d="M10 938q0 -125 92 -229q125 -147 177 -179q94 -55 303 -55l45 6l-2 -436v-108q-4 -78 -19 -105q-16 -29 -227 -41l86 -119q143 35 211 35q35 0 90 -6q33 -4 55.5 -6t36.5 -4l-6 897q0 147 5 281.5t15 263.5l5 71q0 10 2 19.5t4 21.5h12q55 0 68 -14q37 -41 28 -299 l-20 -596q-2 -47 -1 -211t5 -449h49q27 0 55 2q76 6 105 7q53 4 97 2t79 -4v92q-72 4 -110 16t-46 29q-16 41 -19 173t3 361l4 187q4 168 6 279.5t2 170.5q0 301 57 479l-155 -122q25 39 24 61q0 18 -24 18q-29 0 -80 -22l-4 -2q-53 -2 -110.5 -3t-116.5 -1q-37 0 -111 -25 q-37 -14 -65.5 -19t-49.5 -5q-16 2 -16 6q4 10 61 53q0 2 -6 2q-160 0 -237 -39q-14 -6 -55 -35l-111 -82q-191 -145 -191 -317zM254 932l154 72l71 153l72 -153l154 -72l-154 -74l-72 -153l-71 153z" />
<glyph unicode="&#xb7;" horiz-adv-x="462" d="M10 651q0 -25 56 -63q68 -51 77 -68q27 -31 58 -31q35 0 59 35q39 49 92 74q37 12 37 49q0 33 -29 45l-46 31q-24 16 -44 37q-14 53 -69 53q-31 0 -54 -29q-6 -6 -26 -23l-55 -46q-56 -44 -56 -64z" />
<glyph unicode="&#xb8;" horiz-adv-x="593" d="M10 -395q98 0 148 6q184 27 184 108q0 72 -291 84q37 47 64.5 87t44.5 81q2 4 9 22.5t19 53.5h131l-20 -113q221 -74 221 -180q0 -82 -67 -139q-145 -129 -265 -129q-23 0 -47 4t-47 10q-18 8 -84 8v97z" />
<glyph unicode="&#xb9;" horiz-adv-x="540" d="M10 1167l2 -57q43 23 74 35t51 18q31 6 33 -8q2 -12 0 -168l-6 -250q-2 -104 -39 -123q-18 -12 -80 -12l2 -59q66 4 129.5 6t128.5 2h10q12 0 50 -2t100 -6l2 59q-43 2 -71.5 7t-43.5 9q-23 12 -34 28t-15 40v4q0 502 37 574q8 18 63 53q2 0 4 1l1 1q-4 0 -7 4 q-8 8 -10 12l55 66l-116 -72q-57 -33 -136.5 -74t-183.5 -88zM303 594v4v-4z" />
<glyph unicode="&#xba;" horiz-adv-x="798" d="M10 1122q-4 -129 115 -200q102 -59 242 -54q133 2 237 76q57 41 88 93.5t33 117.5q2 125 -109 197q-100 61 -227 59q-145 -4 -250 -72q-127 -82 -129 -217zM182 1167q2 66 49.5 107t112.5 43q92 2 151.5 -51.5t57.5 -143.5q-2 -74 -52 -119t-128 -47q-43 0 -79 15.5 t-60.5 44t-38 67.5t-13.5 84z" />
<glyph unicode="&#xbb;" horiz-adv-x="1097" d="M10 125v221q119 39 232 143l73 68q41 37 88 84l-107 111q-46 45 -75 69q-74 57 -211 111v221l563 -457v-110zM463 125v221q119 41 229 143l77 68q42 37 89 84l-109 111q-46 45 -75 69q-74 59 -211 111v221l561 -457v-110z" />
<glyph unicode="&#xbc;" horiz-adv-x="1841" d="M10 1167l2 -57q43 23 74 35t51 18q31 6 33 -8q2 -12 0 -168l-6 -250q-2 -104 -39 -123q-18 -12 -80 -12l2 -59q66 4 129.5 6t128.5 2h10q12 0 50 -2t100 -6l2 59q-43 2 -71.5 7t-43.5 9q-23 12 -34 28t-15 40v27q0 479 37 551q8 18 63 53q2 0 4 1l1 1q-4 0 -7 4 q-8 8 -10 12l55 66l-116 -72q-57 -33 -136.5 -74t-183.5 -88zM303 598q0 -2 1 -3l1 -1q-2 0 -2 4zM393 0h180l842 1427h-182zM1049 268q14 -14 22 -26l82 2q166 6 178 6h158q-2 -31 -2 -62v-61q-6 -47 -53 -64q-25 -6 -48 -6v-65q12 4 35 7t52 13q51 14 88 15 q14 0 35.5 -4.5l44 -9.5t43 -9t32.5 -4v51q-76 12 -92 68q-2 6 -2 129q45 0 81 -1t64 -3l-30 100q-35 -4 -63.5 -6t-49.5 -2v184q2 133 4 219t4 129q-20 -8 -35.5 -12t-25.5 -6q-51 -68 -112.5 -141.5t-139.5 -157.5q-67 -78 -270 -283zM1212 336l105 72q31 49 37 81l88 94 l53 58v-113v-98q0 -47 -4 -94h-279z" />
<glyph unicode="&#xbd;" horiz-adv-x="1921" d="M10 1167l2 -57q43 23 74 35t51 18q31 6 33 -8q2 -12 0 -168l-6 -250q-2 -104 -39 -123q-18 -12 -80 -12l2 -59q66 4 129.5 6t128.5 2h10q12 0 50 -2t100 -6l2 59q-43 2 -71.5 7t-43.5 9q-43 25 -49 70v25q0 479 37 551q8 18 63 53q2 0 4 1l1 1q-4 0 -7 4q-8 8 -10 12 l55 66l-116 -72q-57 -33 -136.5 -74t-183.5 -88zM303 598q0 -2 1 -3l1 -1q-2 0 -2 4zM393 0h180l842 1427h-182zM1157 0v-4q68 55 98 55q10 0 30 -14l20 -14h391q31 0 41 -7q8 -2 15 -8t17 -16l41 -2q10 23 7 63q-4 33 0 43l30 88l-65 25q-4 -12 -7 -24.5t-8 -24.5 q-2 -2 -7 -5t-15 -8q-35 -14 -168 -14l-203 2l174 152q113 100 152 139q121 115 121 229q0 104 -84 158q-72 51 -178 51q-68 0 -129 -18q-86 -33 -185 -121l58 -37q86 74 198 74q178 0 178 -137q0 -104 -206 -308q-72 -72 -306 -268q2 -2 2 -4q0 -8 -6 -22.5t-6 -22.5z" />
<glyph unicode="&#xbe;" horiz-adv-x="1992" d="M10 664q113 -123 289 -123q90 0 176 34q186 76 187 240q0 125 -183 227q109 92 109 185q0 84 -74 125q-59 37 -147 37q-127 0 -283 -109l43 -43q104 63 178 63q59 0 103 -30q49 -31 49 -88q0 -55 -72 -121q-16 -14 -46 -35.5t-77 -50.5l70 12l26 -26q45 -23 74 -43 l45 -33q63 -57 64 -123q0 -72 -60 -115q-49 -41 -127 -41q-39 0 -66.5 2t-43.5 6q-70 14 -82 66l-15 90zM545 0h180l840 1427h-179zM1202 268q14 -14 19 -26l84 2q162 6 178 6h159q-4 -31 -4 -62q0 -29 -2 -61q-4 -49 -51 -64q-23 -6 -47 -6v-65q14 4 34.5 7t51.5 13 q29 8 50.5 11.5t35.5 3.5t35 -4l44 -10l44 -9q20 -4 35 -4v51q-82 12 -90 68q-4 6 -4 129q45 0 80.5 -1t64.5 -3l-31 100q-35 -4 -63.5 -6t-50.5 -2l4 184q0 262 6 348q-39 -14 -64 -18q-47 -68 -109 -141l-138 -158l-102 -109zM1364 336l102 72q31 45 41 81l84 94l54 58 v-305h-281z" />
<glyph unicode="&#xbf;" horiz-adv-x="831" d="M10 -172q0 -147 109 -234q96 -76 252 -75q104 0 233 55q154 70 154 156q0 16 -5 34.5t-16 40.5l-94 -92q-55 -61 -178 -61q-98 0 -157.5 62.5t-59.5 160.5q0 49 147 307q150 256 150 299q0 31 -27 84q-41 -16 -75.5 -22t-61.5 -6q-57 0 -127 28q-29 -35 -46.5 -59.5 t-25.5 -40.5q166 -4 166 -98q0 -57 -88 -146l-112 -118l-50 -52q-88 -108 -88 -223zM176 846l156 -72l71 -156l74 156l154 72l-154 74l-74 151l-71 -151z" />
<glyph unicode="&#xc0;" horiz-adv-x="1722" d="M10 -29q78 4 142.5 6.5t117.5 2.5t122 -3.5t161 -13.5v86q-207 25 -207 78q0 18 150 324q41 4 103.5 8t148.5 4h100q76 0 132 -2t93 -6q145 -303 146 -357q0 -27 -129 -45v-86q129 8 211.5 12.5t119.5 4.5q47 0 104.5 -4.5t123.5 -8.5v90q-119 12 -146 39 q-25 33 -57.5 90.5t-73.5 143.5l-115 239l-117 257l-71 155l-97 223q-44 104 -75 201l-47 -66q0 -2 -4 -2t-9.5 4.5t-15.5 8.5l-18 12q-2 0 -2 -2q-23 -63 -55 -133l-70 -150l-285 -555l-47 -94l-29 -59q-18 -35 -44 -79l-58 -97q-45 -78 -80 -101q-37 -29 -123 -47v-78z M563 578l223 466l111 -221l100 -207l62 -12q66 -10 74 -39l-269 8h-57l-35 -4h-18q-61 0 -109.5 2.5t-81.5 6.5zM623 1810q55 -23 118 -131q63 -106 103 -123h190q-70 31 -125 140t-61 108z" />
<glyph unicode="&#xc1;" horiz-adv-x="1722" d="M10 -29q78 4 142.5 6.5t117.5 2.5t122 -3.5t161 -13.5v86q-207 25 -207 78q0 18 150 324q41 4 103.5 8t148.5 4h100q76 0 132 -2t93 -6q145 -303 146 -357q0 -27 -129 -45v-86q129 8 211.5 12.5t119.5 4.5q47 0 104.5 -4.5t123.5 -8.5v90q-119 12 -146 39 q-25 33 -57.5 90.5t-73.5 143.5l-115 239l-117 257l-71 155l-97 223q-44 104 -75 201l-47 -66q0 -2 -4 -2t-9.5 4.5t-15.5 8.5l-18 12q-2 0 -2 -2q-23 -63 -55 -133l-70 -150l-285 -555l-47 -94l-29 -59q-18 -35 -44 -79l-58 -97q-45 -78 -80 -101q-37 -29 -123 -47v-78z M563 578l223 466l111 -221l100 -207l62 -12q66 -10 74 -39l-269 8h-57l-35 -4h-18q-61 0 -109.5 2.5t-81.5 6.5zM623 1556h188q41 18 100 123q66 106 123 131l-227 -6q-4 0 -59 -108q-55 -109 -125 -140z" />
<glyph unicode="&#xc2;" horiz-adv-x="1722" d="M10 -29q78 4 142.5 6.5t117.5 2.5t122 -3.5t161 -13.5v86q-207 25 -207 78q0 18 150 324q41 4 103.5 8t148.5 4h100q76 0 132 -2t93 -6q145 -303 146 -357q0 -27 -129 -45v-86q129 8 211.5 12.5t119.5 4.5q47 0 104.5 -4.5t123.5 -8.5v90q-119 12 -146 39 q-25 33 -57.5 90.5t-73.5 143.5l-115 239l-117 257l-71 155l-97 223q-44 104 -75 201l-47 -66q0 -2 -4 -2t-9.5 4.5t-15.5 8.5l-18 12q-2 0 -2 -2q-23 -63 -55 -133l-70 -150l-285 -555l-47 -94l-29 -59q-18 -35 -44 -79l-58 -97q-45 -78 -80 -101q-37 -29 -123 -47v-78z M492 1503h194q45 117 59 131q29 20 54 40l53 42q29 -16 54.5 -33.5t54.5 -33.5q41 -80 59 -146h192q-29 72 -79 109l-105 84l-141 184h-66q-70 -76 -108.5 -123t-50.5 -69q-10 -12 -35 -34l-60 -55q-57 -55 -75 -96zM563 578l223 466l111 -221l100 -207l62 -12 q66 -10 74 -39l-269 8h-57l-35 -4h-18q-61 0 -109.5 2.5t-81.5 6.5z" />
<glyph unicode="&#xc3;" horiz-adv-x="1722" d="M10 -29q78 4 142.5 6.5t117.5 2.5t122 -3.5t161 -13.5v86q-207 25 -207 78q0 18 150 324q41 4 103.5 8t148.5 4h100q76 0 132 -2t93 -6q145 -303 146 -357q0 -27 -129 -45v-86q129 8 211.5 12.5t119.5 4.5q47 0 104.5 -4.5t123.5 -8.5v90q-119 12 -146 39 q-25 33 -57.5 90.5t-73.5 143.5l-115 239l-117 257l-71 155l-97 223q-44 104 -75 201l-47 -66q0 -2 -4 -2t-9.5 4.5t-15.5 8.5l-18 12q-2 0 -2 -2q-23 -63 -55 -133l-70 -150l-285 -555l-47 -94l-29 -59q-18 -35 -44 -79l-58 -97q-45 -78 -80 -101q-37 -29 -123 -47v-78z M526 1495h49q23 180 97 180q14 0 20 -2q68 -4 96 -59q63 -109 134 -127q29 -4 69 2q6 2 15 2q86 0 127 141q23 74 22 183h-49q-2 -43 -7 -73t-14 -48q-25 -63 -73 -64h-13l-8 -6q-12 -4 -24 0q-33 2 -74 70q-80 125 -221 125q-66 0 -109 -101q-35 -67 -37 -223zM563 578 l223 466l111 -221l100 -207l62 -12q66 -10 74 -39l-269 8h-57l-35 -4h-18q-61 0 -109.5 2.5t-81.5 6.5z" />
<glyph unicode="&#xc4;" horiz-adv-x="1722" d="M10 -29q78 4 142.5 6.5t117.5 2.5t122 -3.5t161 -13.5v86q-207 25 -207 78q0 18 150 324q41 4 103.5 8t148.5 4h100q76 0 132 -2t93 -6q145 -303 146 -357q0 -27 -129 -45v-86q129 8 211.5 12.5t119.5 4.5q47 0 104.5 -4.5t123.5 -8.5v90q-119 12 -146 39 q-25 33 -57.5 90.5t-73.5 143.5l-115 239l-117 257l-71 155l-97 223q-44 104 -75 201l-47 -66q0 -2 -4 -2t-9.5 4.5t-15.5 8.5l-18 12q-2 0 -2 -2q-23 -63 -55 -133l-70 -150l-285 -555l-47 -94l-29 -59q-18 -35 -44 -79l-58 -97q-45 -78 -80 -101q-37 -29 -123 -47v-78z M528 1647q-2 -127 72 -127q10 0 29.5 1t29.5 1q51 0 89 35.5t38 89.5q0 53 -37.5 90t-89.5 37q-53 0 -92 -37t-39 -90zM553 1686l74 2l28 65l29 -65l74 -7l-58 -45l17 -65l-64 37l-63 -37l20 67zM563 578l223 466l111 -221l100 -207l62 -12q66 -10 74 -39l-269 8h-57l-35 -4 h-18q-61 0 -109.5 2.5t-81.5 6.5zM907 1647q0 -53 38 -89t91 -36t92 35.5t39 89.5q0 127 -131 127q-53 0 -91 -37t-38 -90zM932 1686l74 2l28 65l31 -65l74 -7l-60 -45l17 -65l-62 37l-65 -37l18 67z" />
<glyph unicode="&#xc5;" horiz-adv-x="1722" d="M10 -29q78 4 142.5 6.5t117.5 2.5t122 -3.5t161 -13.5v86q-207 25 -207 78q0 18 150 324q41 4 103.5 8t148.5 4h100q76 0 132 -2t93 -6q145 -303 146 -357q0 -27 -129 -45v-86q129 8 211.5 12.5t119.5 4.5q47 0 104.5 -4.5t123.5 -8.5v90q-119 12 -146 39 q-25 33 -57.5 90.5t-73.5 143.5l-115 239l-117 257l-71 155l-97 223q-44 104 -75 201l-47 -66q0 -2 -4 -2t-9.5 4.5t-15.5 8.5l-18 12q-2 0 -2 -2q-23 -63 -55 -133l-70 -150l-285 -555l-47 -94l-29 -59q-18 -35 -44 -79l-58 -97q-45 -78 -80 -101q-37 -29 -123 -47v-78z M563 578l223 466l111 -221l100 -207l62 -12q66 -10 74 -39l-269 8h-57l-35 -4h-18q-61 0 -109.5 2.5t-81.5 6.5zM606 1647q0 -90 74 -146q35 -23 73 -36t85 -13q131 0 202 96q31 43 31 99q0 88 -76 143q-35 23 -72.5 36t-84.5 13q-45 0 -83 -13.5t-71 -35.5 q-78 -53 -78 -143zM725 1647q0 41 37 65q31 23 76 23q47 0 75 -23q41 -23 41 -65q0 -43 -41 -66q-29 -23 -75 -22q-43 0 -74 24q-39 25 -39 64z" />
<glyph unicode="&#xc6;" horiz-adv-x="2639" d="M10 -37q57 4 112.5 6t113.5 2h116q47 0 116 -2t167 -6v88q-184 18 -184 70q0 27 43 86l182 246q41 2 174 6q147 4 260 1t197 -7q4 -20 4 -41v-41q0 -227 -56 -285q-10 -16 -73 -29l-6 -4q-31 -8 -68 -8l8 -86q190 10 388 15.5t409 5.5h166q98 0 189 -2.5t177 -6.5 q49 96 80 189.5t41 187.5l-92 -4q-76 -170 -217 -225q-49 -16 -130 -25.5t-198 -9.5q-115 0 -206 7t-162 20q-10 66 -16.5 153.5t-6.5 198.5v110q0 45 2 68l164 2h127q213 0 285 -6q82 -12 98 -57q12 -25 18 -123h101q-2 18 -2 61v117v264h-95q-20 -88 -34 -108 q-25 -31 -101 -31h-106h-316q-113 0 -141 2v158q0 221 25 344q203 18 407 18q348 0 348 -100q0 -14 -5 -40t-15 -61q31 -6 49 -9t27 -7q35 33 59 135q25 94 25 152q0 39 -45 39l-811 -5q-188 -2 -337 3.5t-261 19.5v-94q61 -6 147 -25l-52 -71l-38 -52l-172 -233 q-332 -449 -486 -627q-84 -92 -150.5 -148.5t-119.5 -76.5q-35 -12 -123 -31v-88zM772 578l383 526l53 74l66 86q0 -8 2 -19q27 -86 31 -332l6 -278v-55l-51 -2l-144 -4q-47 -1 -49 -1h-123q-47 0 -91 1.5t-83 3.5z" />
<glyph unicode="&#xc7;" horiz-adv-x="1595" d="M10 690q0 -340 293 -547q104 -78 225 -120.5t258 -57.5q-14 -33 -14 -37q-16 -39 -44 -78.5l-64 -87.5q291 -12 290 -84q0 -84 -184 -108q-25 -4 -61.5 -6t-85.5 -2v-94q31 0 51 -2.5t31 -6.5q45 -14 96 -14q123 0 264 127q68 63 68 141q0 104 -222 178l11 68 q92 2 237.5 27.5t349.5 72.5q6 25 7 43q0 39 -27 60q-10 8 -17.5 11t-9.5 7q16 35 30.5 62.5t29.5 52.5q0 12 -9 12q-2 0 -23.5 -10t-31.5 -10q-6 0 -14 5t-14 5q-18 0 -37 -29q-66 -92 -138 -135q-115 -74 -292 -74q-213 0 -424 140q-256 166 -256 491q0 381 176 449 l215 102q119 61 237 62q92 0 232 -35q80 -20 129 -45t71 -54q10 -14 17 -75q4 -41 24 -58q14 -10 64 -16v20q0 20 -4 54t-4 57q0 109 82 166q-33 31 -47 26q-10 0 -21.5 -1t-28.5 -3q-20 0 -44.5 3.5t-53.5 13.5q-188 55 -358 55q-240 0 -443 -74q-117 -43 -209 -102 t-159 -137q-148 -172 -148 -408z" />
<glyph unicode="&#xc8;" horiz-adv-x="1513" d="M10 -41q160 4 291 8t236 4h272q25 0 78 21q29 12 50 17t34 5q8 0 10 -2q-2 -4 -16 -18l-41 -43v-2q35 0 96 2t151 8q72 4 117 5t66 -1q2 57 4 92t4 45q4 72 24.5 130.5t53.5 103.5h-88q-25 -57 -51.5 -96t-55.5 -64q-106 -96 -473 -96q-92 0 -169 7t-144 21 q-18 98 -19 310q0 49 1 102t3 113q39 4 72 6t62 2q319 0 356 -61q10 -16 13 -48t7 -84l107 -4q-41 158 -41 267q0 100 33 174l-80 12q-41 -121 -72 -133q-25 -10 -116 -13.5t-248 -3.5q-10 0 -35 41q-29 45 -33 45q-45 -16 -88 -133l-45 -116q-16 -43 -25 -54q0 -2 -2 -2 l64 367q18 98 53 98q2 0 7 -2t7 -2q4 0 4 6q0 55 5.5 123t15.5 148q190 18 371 18q154 0 262 -20q92 -18 92 -72q0 -16 -5 -41t-5 -39q0 -41 59 -41q68 0 92 324q-154 -4 -266.5 -6.5t-179.5 -2.5h-844q-8 -31 -8 -77q115 -18 129 -31q31 -27 39 -125q4 -16 4 -51 q0 -33 2 -84q4 -193 5 -317t-1 -181l-2 -51q-6 -127 -11 -207t-12 -117q-8 -53 -24 -65q-41 -12 -77 -20.5t-69 -12.5zM520 1810q57 -25 119 -131q59 -102 102 -123h191q-70 31 -125 140t-59 108z" />
<glyph unicode="&#xc9;" horiz-adv-x="1513" d="M10 -41q160 4 291 8t236 4h272q25 0 78 21q29 12 50 17t34 5q8 0 10 -2q-2 -4 -16 -18l-41 -43v-2q35 0 96 2t151 8q72 4 117 5t66 -1q2 57 4 92t4 45q4 72 24.5 130.5t53.5 103.5h-88q-25 -57 -51.5 -96t-55.5 -64q-106 -96 -473 -96q-92 0 -169 7t-144 21 q-18 98 -19 310q0 49 1 102t3 113q39 4 72 6t62 2q319 0 356 -61q10 -16 13 -48t7 -84l107 -4q-41 158 -41 267q0 100 33 174l-80 12q-41 -121 -72 -133q-25 -10 -116 -13.5t-248 -3.5q-10 0 -35 41q-29 45 -33 45q-45 -16 -88 -133l-45 -116q-16 -43 -25 -54q0 -2 -2 -2 l64 367q18 98 53 98q2 0 7 -2t7 -2q4 0 4 6q0 55 5.5 123t15.5 148q190 18 371 18q154 0 262 -20q92 -18 92 -72q0 -16 -5 -41t-5 -39q0 -41 59 -41q68 0 92 324q-154 -4 -266.5 -6.5t-179.5 -2.5h-844q-8 -31 -8 -77q115 -18 129 -31q31 -27 39 -125q4 -16 4 -51 q0 -33 2 -84q4 -193 5 -317t-1 -181l-2 -51q-6 -127 -11 -207t-12 -117q-8 -53 -24 -65q-41 -12 -77 -20.5t-69 -12.5zM520 1556h191q41 18 100 123q63 106 121 131l-227 -6q-6 0 -62 -108q-57 -111 -123 -140z" />
<glyph unicode="&#xca;" horiz-adv-x="1513" d="M10 -41q160 4 291 8t236 4h272q25 0 78 21q29 12 50 17t34 5q8 0 10 -2q-2 -4 -16 -18l-41 -43v-2q35 0 96 2t151 8q72 4 117 5t66 -1q2 57 4 92t4 45q4 72 24.5 130.5t53.5 103.5h-88q-25 -57 -51.5 -96t-55.5 -64q-106 -96 -473 -96q-92 0 -169 7t-144 21 q-18 98 -19 310q0 49 1 102t3 113q39 4 72 6t62 2q319 0 356 -61q10 -16 13 -48t7 -84l107 -4q-41 158 -41 267q0 100 33 174l-80 12q-41 -121 -72 -133q-25 -10 -116 -13.5t-248 -3.5q-10 0 -35 41q-29 45 -33 45q-45 -16 -88 -133l-45 -116q-16 -43 -25 -54q0 -2 -2 -2 l64 367q18 98 53 98q2 0 7 -2t7 -2q4 0 4 6q0 55 5.5 123t15.5 148q190 18 371 18q154 0 262 -20q92 -18 92 -72q0 -16 -5 -41t-5 -39q0 -41 59 -41q68 0 92 324q-154 -4 -266.5 -6.5t-179.5 -2.5h-844q-8 -31 -8 -77q115 -18 129 -31q31 -27 39 -125q4 -16 4 -51 q0 -33 2 -84q4 -193 5 -317t-1 -181l-2 -51q-6 -127 -11 -207t-12 -117q-8 -53 -24 -65q-41 -12 -77 -20.5t-69 -12.5zM367 1503h194q45 117 55 131l111 82q29 -16 54.5 -33.5t54.5 -33.5q41 -80 59 -146h190q-23 51 -77 109q-8 8 -34 28.5l-73 55.5l-139 184h-66 q-70 -76 -108.5 -123t-50.5 -69q-8 -10 -32 -32l-65 -57q-57 -53 -73 -96z" />
<glyph unicode="&#xcb;" horiz-adv-x="1513" d="M10 -41q160 4 291 8t236 4h272q25 0 78 21q29 12 50 17t34 5q8 0 10 -2q-2 -4 -16 -18l-41 -43v-2q35 0 96 2t151 8q72 4 117 5t66 -1q2 57 4 92t4 45q4 72 24.5 130.5t53.5 103.5h-88q-25 -57 -51.5 -96t-55.5 -64q-106 -96 -473 -96q-92 0 -169 7t-144 21 q-18 98 -19 310q0 49 1 102t3 113q39 4 72 6t62 2q319 0 356 -61q10 -16 13 -48t7 -84l107 -4q-41 158 -41 267q0 100 33 174l-80 12q-41 -121 -72 -133q-25 -10 -116 -13.5t-248 -3.5q-10 0 -35 41q-29 45 -33 45q-45 -16 -88 -133l-45 -116q-16 -43 -25 -54q0 -2 -2 -2 l64 367q18 98 53 98q2 0 7 -2t7 -2q4 0 4 6q0 55 5.5 123t15.5 148q190 18 371 18q154 0 262 -20q92 -18 92 -72q0 -16 -5 -41t-5 -39q0 -41 59 -41q68 0 92 324q-154 -4 -266.5 -6.5t-179.5 -2.5h-844q-8 -31 -8 -77q115 -18 129 -31q31 -27 39 -125q4 -16 4 -51 q0 -33 2 -84q4 -193 5 -317t-1 -181l-2 -51q-6 -127 -11 -207t-12 -117q-8 -53 -24 -65q-41 -12 -77 -20.5t-69 -12.5zM406 1647q-2 -127 71 -127q10 0 30.5 1t29.5 1q53 0 91 35.5t38 89.5q0 53 -38 90t-91 37t-91 -37t-40 -90zM432 1686l74 2l31 65l26 -65l74 -7l-57 -45 l14 -65l-62 37l-63 -37l20 67zM784 1647q0 -53 40 -89t94 -36q51 0 88.5 35.5t37.5 89.5q0 127 -126 127q-53 0 -93.5 -37t-40.5 -90zM811 1686l74 2l28 65l29 -65l74 -7l-58 -45l17 -65l-64 37l-63 -37l20 67z" />
<glyph unicode="&#xcc;" horiz-adv-x="864" d="M10 59l6 -88q92 23 187.5 36t199.5 13q102 0 194.5 -13t176.5 -36l12 92q-49 0 -124 19q-96 18 -111 51q-14 35 -14 627v114q-29 -68 -48 -67q-2 0 -6 2q-14 29 -14 51q0 37 33 90q35 59 39 74l28 147q16 72 49 86q80 31 173 31v103q-94 -23 -187.5 -36.5t-187.5 -13.5 t-190.5 13.5t-198.5 36.5v-99q29 0 61.5 -3t71.5 -13q96 -27 114 -59q4 -2 5 -13q0 -18 -4 -46l-7 -62q-4 -35 -6 -62.5t-2 -46.5q0 -76 11.5 -153.5t35.5 -157.5l58 -197v-8q0 -2 -5 -2l-24 31q-23 31 -27 30q-2 0 -2 -2q0 -334 -90 -381l-60 -28q-26 -12 -42 -23 q-66 -35 -105 -37zM197 1810q51 -23 118 -131q59 -102 103 -123h192q-74 31 -129 140q-53 109 -59 108z" />
<glyph unicode="&#xcd;" horiz-adv-x="864" d="M10 59l6 -88q92 23 187.5 36t199.5 13q102 0 194.5 -13t176.5 -36l12 92q-49 0 -124 19q-96 18 -111 51q-14 35 -14 627v114q-29 -68 -48 -67q-2 0 -6 2q-14 29 -14 51q0 37 33 90q35 59 39 74l28 147q16 72 49 86q80 31 173 31v103q-94 -23 -187.5 -36.5t-187.5 -13.5 t-190.5 13.5t-198.5 36.5v-99q29 0 61.5 -3t71.5 -13q96 -27 114 -59q4 -2 5 -13q0 -18 -4 -46l-7 -62q-4 -35 -6 -62.5t-2 -46.5q0 -76 11.5 -153.5t35.5 -157.5l58 -197v-8q0 -2 -5 -2l-24 31q-23 31 -27 30q-2 0 -2 -2q0 -334 -90 -381l-60 -28q-26 -12 -42 -23 q-66 -35 -105 -37zM197 1556h188q39 16 102 123q63 106 123 131l-229 -6q-6 0 -62 -108q-52 -109 -122 -140z" />
<glyph unicode="&#xce;" horiz-adv-x="864" d="M10 59l6 -88q92 23 187.5 36t199.5 13q102 0 194.5 -13t176.5 -36l12 92q-49 0 -124 19q-96 18 -111 51q-14 35 -14 627v114q-29 -68 -48 -67q-2 0 -6 2q-14 29 -14 51q0 37 33 90q35 59 39 74l28 147q16 72 49 86q80 31 173 31v103q-94 -23 -187.5 -36.5t-187.5 -13.5 t-190.5 13.5t-198.5 36.5v-99q29 0 61.5 -3t71.5 -13q96 -27 114 -59q4 -2 5 -13q0 -18 -4 -46l-7 -62q-4 -35 -6 -62.5t-2 -46.5q0 -76 11.5 -153.5t35.5 -157.5l58 -197v-8q0 -2 -5 -2l-24 31q-23 31 -27 30q-2 0 -2 -2q0 -334 -90 -381l-60 -28q-26 -12 -42 -23 q-66 -35 -105 -37zM41 1503h195q49 121 59 131l54 40l54 42q29 -16 54.5 -33.5t54.5 -33.5q20 -39 34.5 -75t26.5 -71h189q-27 72 -78 109l-104 84l-142 184h-65q-137 -152 -160 -192q-20 -25 -94 -89q-60 -53 -78 -96z" />
<glyph unicode="&#xcf;" horiz-adv-x="864" d="M10 59l6 -88q92 23 187.5 36t199.5 13q102 0 194.5 -13t176.5 -36l12 92q-49 0 -124 19q-96 18 -111 51q-14 35 -14 627v114q-29 -68 -48 -67q-2 0 -6 2q-14 29 -14 51q0 37 33 90q35 59 39 74l28 147q16 72 49 86q80 31 173 31v103q-94 -23 -187.5 -36.5t-187.5 -13.5 t-190.5 13.5t-198.5 36.5v-99q29 0 61.5 -3t71.5 -13q96 -27 114 -59q4 -2 5 -13q0 -18 -4 -46l-7 -62q-4 -35 -6 -62.5t-2 -46.5q0 -76 11.5 -153.5t35.5 -157.5l58 -197v-8q0 -2 -5 -2l-24 31q-23 31 -27 30q-2 0 -2 -2q0 -334 -90 -381l-60 -28q-26 -12 -42 -23 q-66 -35 -105 -37zM84 1647q-2 -127 72 -127q10 0 28.5 1t28.5 1q53 0 92 35.5t39 89.5q0 53 -39 90t-92 37t-91 -35t-38 -92zM111 1686l73 2l29 65l29 -65l73 -7l-59 -45l16 -65l-63 37l-62 -37l17 67zM463 1647q0 -53 38 -89t91 -36t92 35.5t39 89.5q0 127 -131 127 q-53 0 -91 -35t-38 -92zM489 1686l74 2l29 65l26 -65l74 -7l-55 -45l14 -65l-61 37l-66 -37l19 67z" />
<glyph unicode="&#xd0;" horiz-adv-x="1875" d="M10 -23l158 -2l348 9h88q16 0 43 -1l56.5 -2t55 -2.5t42.5 -1.5q291 0 526 97q283 115 404 336q72 137 71 282q0 84 -20.5 158t-61.5 141q-131 213 -401 320q-117 47 -243 68.5t-265 21.5q-47 0 -93 -2t-93 -6q-233 -25 -605 -25l5 -92q131 4 151 -39q27 -55 31 -244 q2 -72 2 -133v-115h-199v-116h199q0 -467 -33 -527q-12 -33 -166 -32v-93zM440 629h465v116h-465q2 190 7.5 315.5t15.5 190.5q70 23 146.5 36t162.5 13q190 0 354 -69q53 -20 90 -37.5t60 -34.5q61 -43 139 -139q111 -135 111 -328q0 -303 -221 -469q-195 -145 -510 -145 q-137 0 -349 55z" />
<glyph unicode="&#xd1;" horiz-adv-x="1794" d="M10 12q0 -55 64 -51q111 4 181.5 8t102.5 4q41 2 74 1t60 -3q16 0 16 9q0 12 -43 65l-43 53q0 2 4 2q-78 29 -86 162q-4 16 -2 65.5t4 137.5l16 594q106 -82 185 -187l98 -133l260 -286q127 -141 338 -314q162 -133 199 -188l96 -4q-8 90 -11 206.5t-3 260.5 q0 662 39 811q8 45 65 63q10 2 33.5 5t62.5 10l-8 86q-94 -2 -153 -3h-89q-18 -66 -47 -61q-16 2 -41.5 10t-62.5 25q-37 16 -58.5 24.5t-31.5 8.5h-45q-20 0 -37 -2l-33 -76l112 -18q44 -7 64 -11q35 -12 58 -43q41 -63 41 -350v-203q0 -111 -2.5 -196.5t-6.5 -151.5 l-195 179l-128 120l-285 260q-176 160 -264 279l-111 145l-45 59l-123 -4q-125 -4 -166 0v-94q45 -6 48 -10q8 -6 20 -19q61 -39 76 -172q2 -37 0 -198l-8 -504q-2 -217 -29 -272q-18 -39 -94 -48q-66 -4 -66 -51zM537 1495h49q18 180 92 180h12q8 0 12 -2q63 -2 95 -59 q59 -109 133 -127q12 -2 28 -2q18 0 39 4q8 2 15 2q90 0 131 141q20 76 22 183h-51q-6 -86 -20 -121q-25 -63 -74 -64h-10l-13 -6q-10 -4 -24 0q-33 2 -72 70q-76 125 -221 125q-63 0 -111 -101q-14 -35 -22 -90t-10 -133z" />
<glyph unicode="&#xd2;" horiz-adv-x="1871" d="M10 678q0 -268 228 -490q252 -240 643 -239q72 0 123 2t86 8q98 12 237 76q209 92 336 256q135 172 135 393q0 326 -278 535q-256 193 -594 192q-219 0 -426 -88q-213 -92 -342 -252q-148 -176 -148 -393zM256 760q0 248 174 393q162 129 416 129q76 0 188 -82 q123 -92 187 -104q109 -18 172 -76q55 -53 104 -156q29 -61 41 -127.5t12 -136.5q0 -250 -157 -389q-152 -135 -402 -135q-305 0 -516 186q-219 197 -219 498zM700 1810q51 -23 119 -131q59 -102 103 -123h188q-70 31 -125 140t-59 108z" />
<glyph unicode="&#xd3;" horiz-adv-x="1871" d="M10 678q0 -268 228 -490q252 -240 643 -239q72 0 123 2t86 8q98 12 237 76q209 92 336 256q135 172 135 393q0 326 -278 535q-256 193 -594 192q-219 0 -426 -88q-213 -92 -342 -252q-148 -176 -148 -393zM256 760q0 248 174 393q162 129 416 129q76 0 188 -82 q123 -92 187 -104q109 -18 172 -76q55 -53 104 -156q29 -61 41 -127.5t12 -136.5q0 -250 -157 -389q-152 -135 -402 -135q-305 0 -516 186q-219 197 -219 498zM700 1556h189q39 16 102 123q61 106 119 131l-225 -6q-6 0 -62 -108q-57 -111 -123 -140z" />
<glyph unicode="&#xd4;" horiz-adv-x="1871" d="M10 678q0 -268 228 -490q252 -240 643 -239q72 0 123 2t86 8q98 12 237 76q209 92 336 256q135 172 135 393q0 326 -278 535q-256 193 -594 192q-219 0 -426 -88q-213 -92 -342 -252q-148 -176 -148 -393zM256 760q0 248 174 393q162 129 416 129q76 0 188 -82 q123 -92 187 -104q109 -18 172 -76q55 -53 104 -156q29 -61 41 -127.5t12 -136.5q0 -250 -157 -389q-152 -135 -402 -135q-305 0 -516 186q-219 197 -219 498zM545 1503h194q49 121 60 131l53 40l55 42q29 -16 54.5 -33.5t54.5 -33.5q20 -39 34.5 -75t26.5 -71h189 q-18 53 -78 109q-8 8 -34 28.5l-73 55.5l-139 184h-68l-106 -123q-39 -47 -51 -69q-18 -18 -94 -89q-29 -27 -48.5 -50t-29.5 -46z" />
<glyph unicode="&#xd5;" horiz-adv-x="1871" d="M10 678q0 -268 228 -490q252 -240 643 -239q72 0 123 2t86 8q98 12 237 76q209 92 336 256q135 172 135 393q0 326 -278 535q-256 193 -594 192q-219 0 -426 -88q-213 -92 -342 -252q-148 -176 -148 -393zM256 760q0 248 174 393q162 129 416 129q76 0 188 -82 q123 -92 187 -104q109 -18 172 -76q55 -53 104 -156q29 -61 41 -127.5t12 -136.5q0 -250 -157 -389q-152 -135 -402 -135q-305 0 -516 186q-219 197 -219 498zM590 1503h49q23 182 96 183h23q66 -4 94 -62q63 -109 133 -127q14 -2 31.5 -1t38.5 5q6 2 14 2q86 0 127 142 q12 35 17.5 81t5.5 101h-50q-2 -43 -7 -74t-11 -49q-29 -66 -74 -66h-12l-10 -2q-6 -2 -11.5 -3t-13.5 1q-33 2 -74 70q-78 125 -221 125q-66 0 -108 -98q-35 -72 -37 -228z" />
<glyph unicode="&#xd6;" horiz-adv-x="1871" d="M10 678q0 -268 228 -490q252 -240 643 -239q72 0 123 2t86 8q98 12 237 76q209 92 336 256q135 172 135 393q0 326 -278 535q-256 193 -594 192q-219 0 -426 -88q-213 -92 -342 -252q-148 -176 -148 -393zM256 760q0 248 174 393q162 129 416 129q76 0 188 -82 q123 -92 187 -104q109 -18 172 -76q55 -53 104 -156q29 -61 41 -127.5t12 -136.5q0 -250 -157 -389q-152 -135 -402 -135q-305 0 -516 186q-219 197 -219 498zM588 1647q-2 -127 71 -127q10 0 29 1t29 1q53 0 91 35.5t38 89.5q0 53 -38 90t-91 37t-91 -37t-38 -90zM612 1686 l74 2l29 65l26 -65l74 -7l-55 -45l16 -65l-63 37l-64 -37l19 67zM967 1647q0 -53 37.5 -89t91.5 -36q53 0 92 35.5t39 89.5q0 127 -131 127q-53 0 -91 -37t-38 -90zM991 1686l74 2l29 65l28 -65l74 -7l-57 -45l16 -65l-61 37l-66 -37l19 67z" />
<glyph unicode="&#xd7;" horiz-adv-x="1028" d="M10 395q0 49 39 88q16 16 41 37t66 47q20 10 87 54l183 114q-59 33 -225 146l-62 40l-92 62q-35 41 -35 88q0 53 39 93t92 40q49 0 90 -37q16 -16 36 -40.5t46 -65.5q20 -43 166 -270l89 144l77 126q14 25 33.5 51.5t48.5 54.5q43 37 92 37q53 0 91 -40t38 -93 q0 -78 -106 -141q-35 -23 -54.5 -34t-27.5 -15l-90 -62q-55 -37 -133 -84l145 -92l125 -76q27 -14 51.5 -34.5t52.5 -49.5q41 -35 41 -88q0 -55 -41 -94t-94 -39q-82 0 -143 111q-39 70 -49 82q-25 31 -60 86l-86 137q-14 -27 -50 -82l-95 -141l-50 -80q-26 -39 -55 -76 q-37 -37 -86 -37q-57 0 -96 38t-39 95z" />
<glyph unicode="&#xd8;" horiz-adv-x="1871" d="M10 678q0 -272 228 -490q41 -35 82.5 -66.5t89.5 -60.5l-138 -231h183l98 168q150 -49 328 -49q72 0 123 2t86 8q98 12 237 76q209 92 336 256q135 172 135 393q0 326 -278 535q-47 33 -93.5 59.5t-95.5 48.5l123 211h-178l-94 -160q-117 33 -256 33q-219 0 -426 -88 q-213 -92 -342 -252q-148 -176 -148 -393zM256 760q0 248 174 393q162 129 416 129q76 0 188 -82l31 -22l-551 -936q-258 209 -258 518zM647 158l553 944q4 -4 10 -4t11 -2q113 -23 172 -76q55 -49 104 -156q29 -61 41 -127.5t12 -136.5q0 -250 -157 -389 q-152 -135 -402 -135q-188 0 -344 82z" />
<glyph unicode="&#xd9;" horiz-adv-x="1902" d="M10 1286q68 -6 106 -10t48 -8q8 0 12 -13q33 -90 33 -378q0 -37 -37 -129q-18 -47 -27.5 -81t-11.5 -57q0 -41 35 -116q37 -72 37 -76q0 -250 225 -371q184 -94 451 -94q541 0 690 231q92 141 110 619q6 160 7 305q6 63 0 80q0 2 -41 49q-39 45 -39 53q0 2 4 2 q47 -2 89 -5t81 -9l16 22q18 25 31 25v92q-33 4 -78 -1t-104 -15q-131 -23 -185 -23q-14 0 -106 -6l12 -90q106 0 131 -37q41 -57 41 -311q0 -481 -70 -651q-47 -109 -227 -164q-72 -23 -143.5 -33t-149.5 -10q-426 0 -487 243q-14 47 -19.5 156t-5.5 277q0 424 33 479 q29 37 117 55q14 0 22 2l-12 37l4 59q-115 -6 -208 -8t-165 -2h-114q-51 0 -92 2zM729 1810q57 -23 121 -131q63 -104 104 -123h189q-70 31 -125 140t-62 108z" />
<glyph unicode="&#xda;" horiz-adv-x="1902" d="M10 1286q68 -6 106 -10t48 -8q8 0 12 -13q33 -90 33 -378q0 -37 -37 -129q-18 -47 -27.5 -81t-11.5 -57q0 -41 35 -116q37 -72 37 -76q0 -250 225 -371q184 -94 451 -94q541 0 690 231q92 141 110 619q6 160 7 305q6 63 0 80q0 2 -41 49q-39 45 -39 53q0 2 4 2 q47 -2 89 -5t81 -9l16 22q18 25 31 25v92q-33 4 -78 -1t-104 -15q-131 -23 -185 -23q-14 0 -106 -6l12 -90q106 0 131 -37q41 -57 41 -311q0 -481 -70 -651q-47 -109 -227 -164q-72 -23 -143.5 -33t-149.5 -10q-426 0 -487 243q-14 47 -19.5 156t-5.5 277q0 424 33 479 q29 37 117 55q14 0 22 2l-12 37l4 59q-115 -6 -208 -8t-165 -2h-114q-51 0 -92 2zM729 1556h191q43 20 102 123q68 109 121 131l-225 -6q-6 0 -62 -108q-55 -109 -127 -140z" />
<glyph unicode="&#xdb;" horiz-adv-x="1902" d="M10 1286q68 -6 106 -10t48 -8q8 0 12 -13q33 -90 33 -378q0 -37 -37 -129q-18 -47 -27.5 -81t-11.5 -57q0 -41 35 -116q37 -72 37 -76q0 -250 225 -371q184 -94 451 -94q541 0 690 231q92 141 110 619q6 160 7 305q6 63 0 80q0 2 -41 49q-39 45 -39 53q0 2 4 2 q47 -2 89 -5t81 -9l16 22q18 25 31 25v92q-33 4 -78 -1t-104 -15q-131 -23 -185 -23q-14 0 -106 -6l12 -90q106 0 131 -37q41 -57 41 -311q0 -481 -70 -651q-47 -109 -227 -164q-72 -23 -143.5 -33t-149.5 -10q-426 0 -487 243q-14 47 -19.5 156t-5.5 277q0 424 33 479 q29 37 117 55q14 0 22 2l-12 37l4 59q-115 -6 -208 -8t-165 -2h-114q-51 0 -92 2zM575 1503h195q23 59 38 92t19 39l55 40l54 42l111 -67q41 -80 59 -146h188q-18 51 -75 109q-16 16 -105 84l-143 184h-64q-70 -76 -108.5 -123t-50.5 -69q-10 -10 -34 -32l-63 -57 q-29 -27 -47.5 -50t-28.5 -46z" />
<glyph unicode="&#xdc;" horiz-adv-x="1902" d="M10 1286q68 -6 106 -10t48 -8q8 0 12 -13q33 -90 33 -378q0 -37 -37 -129q-18 -47 -27.5 -81t-11.5 -57q0 -41 35 -116q37 -72 37 -76q0 -250 225 -371q184 -94 451 -94q541 0 690 231q92 141 110 619q6 160 7 305q6 63 0 80q0 2 -41 49q-39 45 -39 53q0 2 4 2 q47 -2 89 -5t81 -9l16 22q18 25 31 25v92q-33 4 -78 -1t-104 -15q-131 -23 -185 -23q-14 0 -106 -6l12 -90q106 0 131 -37q41 -57 41 -311q0 -481 -70 -651q-47 -109 -227 -164q-72 -23 -143.5 -33t-149.5 -10q-426 0 -487 243q-14 47 -19.5 156t-5.5 277q0 424 33 479 q29 37 117 55q14 0 22 2l-12 37l4 59q-115 -6 -208 -8t-165 -2h-114q-51 0 -92 2zM616 1647q-2 -127 72 -127q10 0 29.5 1t30.5 1q51 0 90 35.5t39 89.5q0 53 -39 90t-90 37q-53 0 -92.5 -37t-39.5 -90zM643 1686l74 2l31 65l26 -65l74 -7l-57 -45l16 -65l-62 37l-65 -37 l18 67zM995 1647q0 -53 39 -89t92 -36t91 35.5t38 89.5q0 127 -129 127q-53 0 -92 -37t-39 -90zM1022 1686l74 2l30 65l27 -65l74 -7l-58 -45l15 -65l-62 37l-63 -37l20 67z" />
<glyph unicode="&#xdd;" horiz-adv-x="1806" d="M10 1378l19 -88q53 -2 88 -7t53 -13q53 -16 149 -113l140 -141l103 -115q48 -55 89 -113l125 -178q2 -16 2 -45v-76v-167q0 -68 -2 -111q-4 -115 -28 -133q-20 -16 -66.5 -26.5t-124.5 -12.5v-84q31 0 73 3l99 7q59 4 100 6t70 2h55l254 -12q10 8 11 19q0 6 -5 6l25 24 h-25q2 2 13 2q2 2 16 2v21q-207 37 -223 67l-57 -8q-29 0 -29 25q20 53 38.5 95t39.5 73l-4 336l131 161l196 244q80 96 127 143q70 68 121 84q43 16 146 21l4 96h-60q-33 0 -80 -4q-47 -2 -82 -2h-59q-29 0 -102.5 2t-194.5 8l-12 -96q176 8 176 -41q0 -29 -43 -96.5 t-131 -171.5l-125 -153l-66 -81l-123 154l-94 119l-64 81l-87 103q-57 68 -58 74h11q29 8 139 14l14 92l-90 4h-47q-29 0 -76 -2q-14 -143 -39 -143l-80 72q-76 70 -94 69q-31 2 -54.5 3t-41.5 1h-160zM788 1556h191q37 16 100 123q61 104 123 131l-229 -6q-4 0 -60 -108 q-55 -109 -125 -140z" />
<glyph unicode="&#xde;" horiz-adv-x="1458" d="M10 59l6 -88q92 23 187.5 36t199.5 13q102 0 194.5 -13t176.5 -36l12 92q-49 0 -124 19q-96 18 -111 51q-8 18 -12 211q12 -14 53 -35q127 -72 280 -71q274 0 420 168q123 143 123 249q0 168 -190 308q-168 127 -559 127q-20 0 -49 -2.5t-64 -4.5l16 88q16 72 49 86 q80 31 173 31v103q-94 -23 -187.5 -36.5t-187.5 -13.5t-190.5 13.5t-198.5 36.5v-99q29 0 61.5 -3t71.5 -13q96 -27 114 -59q4 -2 5 -13q0 -18 -4 -46l-7 -62q-4 -35 -6 -62.5t-2 -46.5q0 -76 11.5 -153.5t35.5 -157.5l58 -197v-8q0 -2 -5 -2l-24 31q-23 31 -27 30 q-2 0 -2 -2q0 -334 -90 -381l-60 -28q-26 -12 -42 -23q-66 -35 -105 -37zM532 870l7 97q41 6 77.5 10t71.5 4q313 0 414 -162q51 -92 51 -172q0 -111 -98 -221q-63 -70 -205 -70q-135 0 -215 64l-48 34q-26 17 -50 38q-2 27 -2 77v111v108q-1 53 -3 82z" />
<glyph unicode="&#xdf;" horiz-adv-x="1255" d="M10 -2h195q-12 -221 -31 -223q-12 -6 -42 -12.5t-81 -10.5q14 -20 19.5 -29.5t5.5 -7.5q0 -6 -6 -6l63 -57q55 12 102.5 19t86.5 7q20 0 43 -4l45 -8q31 -10 50 -14l29 -6l99 96l-86 19q-39 9 -74 16q-2 10 -2 65q0 53 -4 156h119q-4 12 -4 22q0 33 28 70l35 50 q12 17 14 22h-192q-2 72 -2 135v121q0 166 2 294t6 220q4 129 20.5 212t40.5 118q55 74 187 73h106q49 -10 78 -45q90 -104 90 -188q0 -166 -155 -234q-18 -10 -56 -12q-27 -6 -26 -16q0 -12 35 -54l-70 -49q25 -2 27 -10l-11 -7q-10 -7 -10 -9l4 -4q2 -2 8 -5q20 -6 41 -79 q18 -72 39 -72q8 0 10 2q37 14 70 14q45 0 68 -41l14 -43q6 -18 10 -32q35 -109 35 -177q0 -45 -22 -112q-29 -80 -74 -80l-17 -19q-16 -16 -36 -16q-10 0 -19 2q-16 6 -24.5 8t-12.5 4h-2q-41 0 -49 -16q-4 -12 -4 -59q0 -16 -18 -43q12 6 55 6q33 0 67.5 5t69.5 19 q137 47 211 158q74 104 74 252q0 299 -314 401q125 39 197 123q80 92 80 211q0 98 -53 180q-115 178 -387 179q-485 0 -486 -664q0 -4 2 -6l-2 -4q2 -10 7 -21.5t10 -27.5q18 -41 18 -45q-55 -12 -55 -21v-4q18 -29 18 -278q0 -55 -2 -117l-4 -127h-127q6 -16 6 -29 q0 -35 -31 -72l-32 -43q-13 -16 -17 -20z" />
<glyph unicode="&#xe0;" d="M10 344q0 -172 129 -270q121 -96 293 -97q305 0 367 224q6 -240 65 -240l31 -6q20 -2 35.5 -3t25.5 -1q143 0 263 100l-17 49q-53 -43 -94 -43q-53 0 -86 76q-6 43 -6 203v170q0 63 2 82q4 68 14 138.5t33 141.5l-66 21q-94 -57 -176 -86q-4 0 -7 -1t-7 -1v-49 q-90 84 -211 84q-213 0 -393 -138q-195 -145 -195 -354zM207 463q0 106 96 176q41 35 91 50.5t106 15.5q100 0 178 -27q111 -39 129 -109q0 -31 39 -114q39 -86 37 -119q0 -4 -2 -6q-72 115 -95 123q-2 2 -12 2q-37 0 -37 -74q0 -23 4 -65t4 -62q0 -45 -16 -66 q-70 -70 -164 -69q-160 0 -258 92q-100 94 -100 252zM410 1337q59 -31 118 -133t103 -123h190q-68 33 -125 140q-53 104 -59 110zM815 745q0 6 2 17.5t6 30.5v-17q0 -12 -2 -35q-2 0 -4 2z" />
<glyph unicode="&#xe1;" d="M10 344q0 -172 129 -270q121 -96 293 -97q305 0 367 224q6 -240 65 -240l31 -6q20 -2 35.5 -3t25.5 -1q143 0 263 100l-17 49q-53 -43 -94 -43q-53 0 -86 76q-6 43 -6 203v170q0 63 2 82q4 68 14 138.5t33 141.5l-66 21q-94 -55 -190 -88v-49q-90 84 -211 84 q-213 0 -393 -138q-195 -145 -195 -354zM207 463q0 106 96 176q41 35 91 50.5t106 15.5q100 0 178 -27q111 -39 129 -109q0 -31 39 -114q39 -86 37 -119q0 -4 -2 -6q-72 115 -95 123q-2 2 -12 2q-37 0 -37 -74q0 -23 4 -65t4 -62q0 -45 -16 -66q-70 -70 -164 -69 q-160 0 -258 92q-100 94 -100 252zM410 1081h190q41 18 100 123q59 104 121 133l-227 -6q-6 -4 -62 -110q-29 -53 -58 -88.5t-64 -51.5zM815 745q0 6 2 17.5t6 30.5v-17q0 -12 -2 -35q-2 0 -4 2z" />
<glyph unicode="&#xe2;" d="M10 344q0 -172 129 -270q121 -96 293 -97q305 0 367 224q6 -240 65 -240l31 -6q20 -2 35.5 -3t25.5 -1q143 0 263 100l-17 49q-53 -43 -94 -43q-53 0 -86 76q-6 43 -6 203v170q0 63 2 82q4 68 14 138.5t33 141.5l-66 21q-94 -57 -176 -86q-4 0 -7 -1t-7 -1v-49 q-90 84 -211 84q-213 0 -393 -138q-195 -145 -195 -354zM207 463q0 106 96 176q41 35 91 50.5t106 15.5q100 0 178 -27q111 -39 129 -109q0 -31 39 -114q39 -86 37 -119q0 -4 -2 -6q-72 115 -95 123q-2 2 -12 2q-37 0 -37 -74q0 -23 4 -65t4 -62q0 -45 -16 -66 q-70 -70 -164 -69q-160 0 -258 92q-100 94 -100 252zM256 1032h195q47 119 55 127l110 82q29 -16 54.5 -32.5t54.5 -32.5q39 -82 59 -144h191q-12 31 -30.5 57.5t-47.5 49.5l-106 86l-140 180h-65q-70 -76 -109 -123t-51 -68q-12 -14 -35.5 -35.5t-60.5 -52.5 q-56 -55 -74 -94zM815 745q0 6 2 17.5t6 30.5v-17q0 -12 -2 -35q-2 0 -4 2z" />
<glyph unicode="&#xe3;" d="M10 344q0 -172 129 -270q121 -96 293 -97q305 0 367 224q6 -240 65 -240l31 -6q20 -2 35.5 -3t25.5 -1q143 0 263 100l-17 49q-53 -43 -94 -43q-53 0 -86 76q-6 43 -6 203v170q0 63 2 82q4 68 14 138.5t33 141.5l-66 21q-94 -57 -176 -86q-4 0 -7 -1t-7 -1v-49 q-90 84 -211 84q-213 0 -393 -138q-195 -145 -195 -354zM207 463q0 106 96 176q41 35 91 50.5t106 15.5q100 0 178 -27q111 -39 129 -109q0 -31 39 -114q39 -86 37 -119q0 -4 -2 -6q-72 115 -95 123q-2 2 -12 2q-37 0 -37 -74q0 -23 4 -65t4 -62q0 -45 -16 -66 q-70 -70 -164 -69q-160 0 -258 92q-100 94 -100 252zM299 1020h49q25 182 96 182h23q63 -2 96 -61q61 -111 133 -129q12 -2 28.5 -1t39.5 7q8 2 12 2q90 0 131 139q23 74 23 182h-49q-4 -41 -9.5 -72.5t-13.5 -49.5q-14 -31 -30.5 -47.5t-41.5 -16.5h-12l-10 -2 q-4 -2 -10 -4t-15 2q-31 2 -73 68q-76 125 -222 124q-63 0 -108 -98q-31 -67 -37 -225zM815 745q0 6 2 17.5t6 30.5v-17q0 -12 -2 -35q-2 0 -4 2z" />
<glyph unicode="&#xe4;" d="M10 344q0 -172 129 -270q121 -96 293 -97q305 0 367 224q6 -240 65 -240l31 -6q20 -2 35.5 -3t25.5 -1q143 0 263 100l-17 49q-53 -43 -94 -43q-53 0 -86 76q-6 43 -6 203v170q0 63 2 82q4 68 14 138.5t33 141.5l-66 21q-94 -57 -176 -86q-4 0 -7 -1t-7 -1v-49 q-90 84 -211 84q-213 0 -393 -138q-195 -145 -195 -354zM207 463q0 106 96 176q41 35 91 50.5t106 15.5q100 0 178 -27q111 -39 129 -109q0 -31 39 -114q39 -86 37 -119q0 -4 -2 -6q-72 115 -95 123q-2 2 -12 2q-37 0 -37 -74q0 -23 4 -65t4 -62q0 -45 -16 -66 q-70 -70 -164 -69q-160 0 -258 92q-100 94 -100 252zM295 1176q-4 -131 72 -132q10 0 30.5 1.5t28.5 1.5q53 0 91 37.5t38 91.5q0 51 -38 87.5t-91 36.5t-91 -35.5t-40 -88.5zM322 1212l73 5l31 61l27 -64l73 -6l-57 -43l14 -69l-61 37l-64 -35l21 67zM676 1176 q0 -59 36 -94t95 -35q51 0 89 37.5t38 91.5q0 125 -127 124q-59 0 -95 -35.5t-36 -88.5zM700 1212l74 5l29 61l28 -64l74 -6l-57 -43l16 -69l-63 37l-64 -35l21 67zM815 745q0 6 2 17.5t6 30.5v-17q0 -12 -2 -35q-2 0 -4 2z" />
<glyph unicode="&#xe5;" d="M10 344q0 -172 129 -270q121 -96 293 -97q305 0 367 224q6 -240 65 -240l31 -6q20 -2 35.5 -3t25.5 -1q143 0 263 100l-17 49q-53 -43 -94 -43q-53 0 -86 76q-6 43 -6 203v170q0 63 2 82q4 68 14 138.5t33 141.5l-66 21q-94 -57 -176 -86q-4 0 -7 -1t-7 -1v-49 q-90 84 -211 84q-213 0 -393 -138q-195 -145 -195 -354zM207 463q0 106 96 176q41 35 91 50.5t106 15.5q100 0 178 -27q111 -39 129 -109q0 -31 39 -114q39 -86 37 -119q0 -4 -2 -6q-72 115 -95 123q-2 2 -12 2q-37 0 -37 -74q0 -23 4 -65t4 -62q0 -45 -16 -66 q-70 -70 -164 -69q-160 0 -258 92q-100 94 -100 252zM383 1171q0 -88 74 -143q68 -49 157 -49q135 0 199 94q33 45 33 98q0 88 -74 144q-68 49 -158 49q-88 0 -157 -49q-74 -56 -74 -144zM502 1171q0 39 37 68q35 23 75 23q41 0 76 -23q37 -29 37 -68q0 -43 -37 -63 q-35 -23 -76 -23q-39 0 -73 23q-39 26 -39 63zM815 745q0 6 2 17.5t6 30.5v-17q0 -12 -2 -35q-2 0 -4 2z" />
<glyph unicode="&#xe6;" horiz-adv-x="1980" d="M10 344q0 -172 129 -270q121 -96 293 -97q305 0 367 224q6 -240 65 -240l31 -6q20 -2 35.5 -3t25.5 -1q135 0 252 94q51 -33 110.5 -47t129.5 -14q57 0 118.5 14t129.5 47q66 29 118 62.5t93 76.5l-80 15q-152 -88 -275 -88q-170 0 -254 96q-35 41 -41 98l-6 125l86 -12 q33 -6 78 -8t105 -2q164 0 383 30l-7 119q-78 293 -436 293q-186 0 -309 -141q-119 -137 -119 -326q0 -195 135 -307q-31 -18 -59 -19q-53 0 -86 76q-6 43 -6 203v170q0 63 2 82q4 68 14 138.5t33 141.5l-66 21q-90 -55 -176 -82l-14 -6v-29q0 -12 2 -22q-90 86 -213 86 q-213 0 -393 -138q-195 -145 -195 -354zM207 463q0 106 96 176q41 35 91 50.5t106 15.5q100 0 178 -27q111 -39 129 -109q0 -31 39 -114q39 -86 37 -119q0 -4 -2 -6q-72 115 -95 123q-2 2 -12 2q-37 0 -37 -74q0 -23 4 -65t4 -62q0 -45 -16 -66q-70 -70 -164 -69 q-160 0 -258 92q-100 94 -100 252zM815 748q4 8 8 26v-12q0 -6 -2 -21zM1253 526q31 182 220 183q37 0 83 8q35 8 52 4q78 -45 108 -191q-18 -4 -59 -5t-105 1q-20 2 -45.5 5.5t-56.5 11.5q-45 12 -47 14zM1403 557l10 4q-8 0 -10 -4z" />
<glyph unicode="&#xe7;" horiz-adv-x="970" d="M10 356q0 -180 92 -262q74 -66 193 -102q29 -6 54.5 -13.5t53.5 -11.5q-10 -20 -10 -24q-16 -39 -43.5 -79t-64.5 -87q291 -12 290 -84q0 -82 -184 -109q-49 -6 -147 -6v-96q31 0 52 -2t32 -6q43 -14 94 -15q123 0 264 127q68 61 68 142q0 104 -222 178l9 55 q174 6 356 133q2 6 -16 12l-31 5q0 2 6 19t6 22q0 8 -6 12q-164 -76 -258 -76q-78 0 -166 37q-215 90 -215 319q0 252 234 252q4 0 17 -5t26.5 -12t25.5 -12t17 -5q4 0 4 4q2 -2 2 2l-5 10q-3 6 -12 18q-10 14 -10 21q0 6 4 6t6 -2l17 -8q74 -68 96 -76l-4 92v4 q8 -6 139 -121q10 0 17 19q18 72 77 92q27 10 27 14q0 45 -143 82q-117 31 -185 31q-113 0 -245 -64q-68 -31 -122.5 -74.5t-97.5 -97.5q-92 -117 -92 -258z" />
<glyph unicode="&#xe8;" horiz-adv-x="960" d="M10 365q0 -182 117 -293q119 -109 299 -109q109 0 248 62q129 55 213 139l-80 16q-158 -90 -277 -90q-172 0 -251 96q-41 43 -43 99l-7 125l86 -13q33 -4 78 -6t103 -2q84 0 179 6t206 23l-7 121q-78 293 -434 292q-188 0 -313 -143q-117 -135 -117 -323zM233 506 q31 184 218 184q16 0 36.5 2t44.5 6q39 6 54 2q80 -41 106 -186q-35 -12 -162 -8q-41 4 -102 18q-41 8 -47 15zM244 1337q57 -29 116 -133q33 -53 58.5 -82.5t46.5 -40.5h188q-35 16 -64.5 51t-58.5 89q-55 109 -61 110zM381 539q0 2 10 2z" />
<glyph unicode="&#xe9;" horiz-adv-x="960" d="M10 365q0 -182 117 -293q119 -109 299 -109q109 0 248 62q129 55 213 139l-80 16q-158 -90 -277 -90q-172 0 -251 96q-41 43 -43 99l-7 125l86 -13q33 -4 78 -6t103 -2q84 0 179 6t206 23l-7 121q-78 293 -434 292q-188 0 -313 -143q-117 -135 -117 -323zM233 506 q31 184 218 184q16 0 36.5 2t44.5 6q39 6 54 2q80 -41 106 -186q-35 -12 -162 -8q-41 4 -102 18q-41 8 -47 15zM244 1081h188q41 18 100 123q61 104 121 133l-225 -6q-6 -6 -59 -110q-57 -107 -125 -140zM381 539q0 2 10 2z" />
<glyph unicode="&#xea;" horiz-adv-x="960" d="M10 365q0 -182 117 -293q119 -109 299 -109q109 0 248 62q129 55 213 139l-80 16q-158 -90 -277 -90q-172 0 -251 96q-41 43 -43 99l-7 125l86 -13q33 -4 78 -6t103 -2q84 0 179 6t206 23l-7 121q-78 293 -434 292q-188 0 -313 -143q-117 -135 -117 -323zM88 1032h197 q47 119 57 127l54 42l55 40l55 -33l51 -32q23 -41 37 -77t24 -67h191q-18 51 -80 107q-6 6 -31.5 28.5t-70.5 57.5l-144 180h-63l-107 -123q-39 -47 -53 -68q-12 -14 -37 -35l-59 -53q-58 -55 -76 -94zM233 506q31 184 218 184q16 0 36.5 2t44.5 6q39 6 54 2 q80 -41 106 -186q-35 -12 -162 -8q-41 4 -102 18q-41 8 -47 15zM381 539q0 2 10 2z" />
<glyph unicode="&#xeb;" horiz-adv-x="960" d="M10 365q0 -182 117 -293q119 -109 299 -109q109 0 248 62q129 55 213 139l-80 16q-158 -90 -277 -90q-172 0 -251 96q-41 43 -43 99l-7 125l86 -13q33 -4 78 -6t103 -2q84 0 179 6t206 23l-7 121q-78 293 -434 292q-188 0 -313 -143q-117 -135 -117 -323zM131 1176 q-6 -131 70 -132q10 0 29.5 1.5t29.5 1.5q53 0 91 37.5t38 91.5q0 51 -38 87.5t-91 36.5t-91 -36.5t-38 -87.5zM156 1212l73 5l29 61l27 -64l73 -6l-55 -43l16 -69l-63 37l-63 -35l18 67zM233 506q31 184 218 184q16 0 36.5 2t44.5 6q39 6 54 2q80 -41 106 -186 q-35 -12 -162 -8q-41 4 -102 18q-41 8 -47 15zM381 539q0 2 10 2zM508 1176q0 -53 39 -91t92 -38t92 37.5t39 91.5q0 125 -131 124q-53 0 -92 -36.5t-39 -87.5zM537 1212l73 5l29 61l27 -64l73 -6l-55 -43l14 -69l-61 37l-64 -35l17 67z" />
<glyph unicode="&#xec;" horiz-adv-x="602" d="M10 -33l518 13l-41 81q-8 0 -10 2q2 0 4 3h-12q-72 10 -78 20q-18 61 -18 272q0 39 2 80l4 82q4 111 15.5 191t25.5 129q-43 12 -64 12q-154 -104 -297 -137q-45 -8 -45 -47q0 -31 84 -39q18 -2 30.5 -3t18.5 -1q8 -76 12.5 -133.5t8.5 -96.5l27 -125q-33 -84 -33 -145 q-6 -49 -49 -66q-2 0 -24 -2l-64 -6zM57 1337q57 -29 117 -133q63 -104 105 -123h190q-70 33 -127 140q-51 106 -59 110z" />
<glyph unicode="&#xed;" horiz-adv-x="602" d="M10 -33l15 84l64 6q22 2 24 2q43 14 49 66q0 66 33 145l-27 125q-4 39 -8 96.5t-13 133.5q-6 0 -18 1t-31 3q-84 10 -84 39q0 39 45 47q145 35 297 137q20 0 64 -12q-14 -49 -25.5 -129t-15.5 -191l-4 -82q-2 -41 -2 -80q0 -211 18 -272q8 -12 78 -20h12q-2 -2 -4 -3 q2 -2 10 -2l41 -81zM57 1081q68 33 125 140q55 106 62 110l225 6q-57 -27 -123 -133q-57 -102 -100 -123h-189z" />
<glyph unicode="&#xee;" horiz-adv-x="802" d="M10 1032q20 39 76 94l61 53q25 22 35 35q12 20 51 67.5t109 123.5h64l143 -180l104 -86q47 -37 76 -107h-188q-20 57 -62 144q-29 16 -54.5 32.5t-53.5 32.5l-55 -40l-54 -42q-10 -10 -55 -127h-197zM119 -33l14 84q41 4 63.5 6t24.5 2q43 14 49 66q0 66 33 145l-29 125 q-2 78 -18 230q-6 0 -18.5 1t-30.5 3q-82 8 -82 39q0 37 43 47q143 33 297 137q20 0 63 -12q-16 -51 -26 -130t-15 -190q-6 -84 -6 -162q0 -211 19 -272q8 -12 78 -20h12q-2 -2 -4 -3q2 -2 8 -2l43 -81z" />
<glyph unicode="&#xef;" horiz-adv-x="722" d="M10 1176q-4 -131 72 -132q10 0 30.5 1.5t26.5 1.5q53 0 92 37.5t39 91.5q0 51 -38.5 87.5t-92.5 36.5q-51 0 -89 -36.5t-40 -87.5zM37 1212l74 5l28 61l29 -64l74 -6l-58 -43l15 -69l-62 37l-63 -35l20 67zM78 -33l520 13l-43 81q-10 0 -12 2q2 0 6 3h-12q-70 6 -78 20 q-18 61 -19 272q0 47 1 87t3 75q16 223 45 320q-47 12 -67 12q-154 -104 -297 -137q-41 -10 -41 -47q0 -31 84 -39q16 -2 28.5 -3t16.5 -1q8 -76 13 -133.5t10 -96.5l26 -125q-10 -39 -16 -67.5t-10 -50.5q-18 -84 -54 -93q-6 0 -27.5 -2t-60.5 -6zM389 1176q0 -53 39 -91 t92 -38t91 37.5t38 91.5q0 125 -129 124q-53 0 -92 -36.5t-39 -87.5zM416 1212l73 5l29 61l27 -64l73 -6l-55 -43l17 -69l-64 37l-63 -35l18 67z" />
<glyph unicode="&#xf0;" horiz-adv-x="1175" d="M10 432q0 -127 78 -239q160 -233 453 -234q242 0 403 152q158 154 158 403q0 401 -352 662l147 69q-29 27 -20 96q12 74 12 86l-307 -149q-80 41 -177.5 74.5t-211.5 62.5l-43 -84q168 -55 290 -125l-168 -80q39 -29 21 -102q-14 -57 -14 -80l319 158q37 -35 68 -70 l59 -69q139 -190 139 -412q0 -311 -205 -440q-86 -53 -167 -54q-123 0 -197 80q-72 78 -72 199q0 143 88 254q92 115 238 115q66 0 131 -91q29 -39 49.5 -75.5t30.5 -75.5q45 2 49 90l-18 27q-4 8 -20 36l-44 82q-63 98 -158 129q-41 12 -123 13q-184 0 -307 -111 q-129 -115 -129 -297z" />
<glyph unicode="&#xf1;" horiz-adv-x="1300" d="M10 66l6 -78h306q76 0 241 -13l6 86q-150 12 -163 33q-16 18 -13 258l8 262q156 66 295 66q145 0 164 -119q4 -29 6 -65.5t2 -85.5q0 -256 -28 -308q-16 -23 -150 -51v-80l161 10.5t124 4.5q63 0 125.5 -4.5t126.5 -10.5l-6 80l-76 19q-35 8 -64 14q-2 2 4 53 q4 29 6.5 54.5t2.5 54.5q0 63 -11 90l-36 110q-2 12 -3.5 23.5t-1.5 22.5q0 10 4 29l6 41l6 41q3 19 3 32q0 98 -98 149q-76 39 -181 39q-143 0 -381 -106q-6 119 -57 119q-14 0 -72 -25q-31 -14 -127 -74q-23 -25 -37 -45t-24 -37q4 -4 4 -6t-2 -6l-2 -4q72 -4 72 2 q33 -10 32 -195q0 -299 -26 -337q-19 -25 -152 -43zM303 1020h49q23 182 94 182h23q63 -2 96 -61q61 -111 133 -129q12 -2 29.5 -1t38.5 7q8 2 16 2q86 0 127 139q23 74 23 182h-49q-2 -82 -21 -122q-25 -63 -74 -64h-12l-10 -2q-4 -2 -10 -4t-15 2q-29 2 -73 68 q-76 125 -222 124q-66 0 -106 -98q-35 -67 -37 -225z" />
<glyph unicode="&#xf2;" horiz-adv-x="1171" d="M10 395q0 -154 90 -250q166 -182 461 -182q319 0 469 223q68 100 68 222q0 195 -172 315q-152 111 -353 111q-117 0 -217 -33q-152 -43 -243 -146q-103 -113 -103 -260zM231 453q0 129 76 201.5t201 72.5q41 0 73.5 -25.5t65.5 -78.5q39 -66 70 -105t59 -53l45 -26 l23 -13q14 -14 21 -28.5t7 -37.5q0 -135 -79.5 -216t-219.5 -81q-152 0 -251 121q-91 109 -91 269zM348 1337q59 -31 119 -133q59 -102 106 -123h189q-68 33 -125 140q-55 106 -62 110z" />
<glyph unicode="&#xf3;" horiz-adv-x="1171" d="M10 395q0 -154 90 -250q166 -182 461 -182q319 0 469 223q68 100 68 222q0 195 -172 315q-152 111 -353 111q-117 0 -217 -33q-152 -43 -243 -146q-103 -113 -103 -260zM231 453q0 129 76 201.5t201 72.5q41 0 73.5 -25.5t65.5 -78.5q39 -66 70 -105t59 -53l45 -26 l23 -13q14 -14 21 -28.5t7 -37.5q0 -135 -79.5 -216t-219.5 -81q-152 0 -251 121q-91 109 -91 269zM348 1081h191q41 18 100 123q31 53 62.5 86t60.5 47l-230 -6l-57 -110q-55 -105 -127 -140z" />
<glyph unicode="&#xf4;" horiz-adv-x="1171" d="M10 395q0 -154 90 -250q166 -182 461 -182q319 0 469 223q68 100 68 222q0 195 -172 315q-152 111 -353 111q-117 0 -217 -33q-152 -43 -243 -146q-103 -113 -103 -260zM195 1032h194q45 115 57 127l55 42l54 40q29 -16 54.5 -32.5t54.5 -32.5q20 -41 35.5 -77t25.5 -67 h188q-12 31 -30.5 57.5t-46.5 49.5l-103 86l-143 180h-64q-139 -152 -159 -191q-10 -14 -35 -35l-62 -53q-29 -29 -47 -51.5t-28 -42.5zM231 453q0 129 76 201.5t201 72.5q41 0 73.5 -25.5t65.5 -78.5q39 -66 70 -105t59 -53l45 -26l23 -13q14 -14 21 -28.5t7 -37.5 q0 -135 -79.5 -216t-219.5 -81q-152 0 -251 121q-91 109 -91 269z" />
<glyph unicode="&#xf5;" horiz-adv-x="1171" d="M10 395q0 -154 90 -250q166 -182 461 -182q319 0 469 223q68 100 68 222q0 195 -172 315q-152 111 -353 111q-117 0 -217 -33q-152 -43 -243 -146q-103 -113 -103 -260zM231 453q0 129 76 201.5t201 72.5q41 0 73.5 -25.5t65.5 -78.5q39 -66 70 -105t59 -53l45 -26 l23 -13q14 -14 21 -28.5t7 -37.5q0 -135 -79.5 -216t-219.5 -81q-152 0 -251 121q-91 109 -91 269zM242 1020h49q18 182 92 182h25q61 -2 94 -61q61 -111 133 -129q12 -2 29.5 -1t40.5 7q6 2 12 2q90 0 131 139q10 35 15 80t7 102h-51q-4 -41 -8 -72.5t-12 -49.5 q-25 -63 -72 -64h-12l-10 -2q-4 -2 -11.5 -4t-15.5 2q-33 2 -72 68q-76 125 -221 124q-66 0 -111 -98q-14 -35 -22 -90t-10 -135z" />
<glyph unicode="&#xf6;" horiz-adv-x="1171" d="M10 395q0 -154 90 -250q166 -182 461 -182q319 0 469 223q68 100 68 222q0 195 -172 315q-152 111 -353 111q-117 0 -217 -33q-152 -43 -243 -146q-103 -113 -103 -260zM231 453q0 129 76 201.5t201 72.5q41 0 73.5 -25.5t65.5 -78.5q39 -66 70 -105t59 -53l45 -26 l23 -13q14 -14 21 -28.5t7 -37.5q0 -135 -79.5 -216t-219.5 -81q-152 0 -251 121q-91 109 -91 269zM236 1176q-4 -131 71 -132q10 0 29.5 1.5t30.5 1.5q51 0 90 37.5t39 91.5q0 51 -39 87.5t-90 36.5q-53 0 -92 -35.5t-39 -88.5zM262 1212l74 5l31 61l26 -64l74 -6l-57 -43 l16 -69l-61 37l-66 -35l18 67zM614 1176q0 -59 39 -94t92 -35t91 37.5t38 91.5q0 125 -129 124q-53 0 -92 -35.5t-39 -88.5zM641 1212l74 5l30 61l27 -64l74 -6l-58 -43l15 -69l-62 37l-63 -35l20 67z" />
<glyph unicode="&#xf7;" horiz-adv-x="1024" d="M10 651h867q-4 16 -5 25q0 25 29 69q45 61 49 74h-866q6 -16 6 -31q0 -33 -31 -71l-32.5 -41.5t-16.5 -24.5zM256 328l154 -74l71 -154l72 154l156 74l-156 69l-72 156l-71 -156zM256 1139l154 -74l71 -156l72 156l156 74l-156 69l-72 156l-71 -156z" />
<glyph unicode="&#xf8;" horiz-adv-x="1191" d="M10 14l78 -65l131 108q160 -94 354 -94q319 0 469 223q66 106 66 222q0 158 -115 268l125 100l-82 68l-127 -103q-141 92 -323 93q-221 0 -379 -109q-184 -123 -184 -332q0 -162 114 -272zM244 453q0 129 75.5 201.5t200.5 72.5q145 0 250 -100l-473 -379 q-29 47 -41 98.5t-12 106.5zM358 168l473 377q51 -86 52 -187q0 -133 -81 -214t-216 -81q-128 1 -228 105z" />
<glyph unicode="&#xf9;" horiz-adv-x="1200" d="M10 625q31 6 39 14h2q18 0 23 -12q4 -16 6 -38t2 -50l-12 -240q-6 -141 55 -233q70 -104 209 -105q125 0 416 121q12 -68 41 -145q43 -18 86 -19q106 0 249 109l-55 47q-4 -6 -7 -8.5t-5 -4.5l-2 13q0 12 -13 12l-59 -39q-61 -41 -67 -37q-4 2 -5 4q4 4 10.5 15.5 t22.5 31.5l29 35q-10 31 -13.5 77t-3.5 112q0 23 1.5 57.5t3.5 85.5l30 440l-186 -90q-66 -31 -129 -28l6 -86q47 -6 41 -13q20 -6 27 -35q12 -37 0 -346q-2 -10 -3 -32.5t-1 -53.5q-201 -82 -279 -82q-127 0 -154 68q-37 70 -36 184q0 47 6 158t22 287q2 47 -47 47 l-250 -125v-96zM322 1337q55 -29 118 -133q59 -102 103 -123h192q-74 33 -129 140q-49 106 -57 110z" />
<glyph unicode="&#xfa;" horiz-adv-x="1200" d="M10 625q31 6 39 14h2q18 0 23 -12q4 -16 6 -38t2 -50l-12 -240q-6 -141 55 -233q70 -104 209 -105q125 0 416 121q12 -68 41 -145q43 -18 86 -19q106 0 249 109l-55 47q-4 -6 -7 -8.5t-5 -4.5l-2 13q0 12 -13 12l-59 -39q-61 -41 -67 -37q-4 2 -5 4q4 4 10.5 15.5 t22.5 31.5l29 35q-10 31 -13.5 77t-3.5 112q0 23 1.5 57.5t3.5 85.5l30 440l-186 -90q-66 -31 -129 -28l6 -86q47 -6 41 -13q20 -6 27 -35q12 -37 0 -346q-2 -10 -3 -32.5t-1 -53.5q-201 -82 -279 -82q-127 0 -154 68q-37 70 -36 184q0 47 6 158t22 287q2 47 -47 47 l-250 -125v-96zM322 1081h190q37 16 100 123q31 53 63 86t60 47l-229 -6q-6 -4 -62 -110q-52 -107 -122 -140z" />
<glyph unicode="&#xfb;" horiz-adv-x="1200" d="M10 625q31 6 39 14h2q18 0 23 -12q4 -16 6 -38t2 -50l-12 -240q-6 -141 55 -233q70 -104 209 -105q125 0 416 121q12 -68 41 -145q43 -18 86 -19q106 0 249 109l-55 47q-4 -6 -7 -8.5t-5 -4.5l-2 13q0 12 -13 12l-59 -39q-61 -41 -67 -37q-4 2 -5 4q4 4 10.5 15.5 t22.5 31.5l29 35q-10 31 -13.5 77t-3.5 112q0 23 1.5 57.5t3.5 85.5l30 440l-186 -90q-66 -31 -129 -28l6 -86q47 -6 41 -13q20 -6 27 -35q12 -37 0 -346q-2 -10 -3 -32.5t-1 -53.5q-201 -82 -279 -82q-127 0 -154 68q-37 70 -36 184q0 47 6 158t22 287q2 47 -47 47 l-250 -125v-96zM168 1032h192q49 117 60 127l54 42l54 40q29 -16 54.5 -32.5t54.5 -32.5q20 -41 35.5 -77t25.5 -67h189q-12 31 -30.5 57.5t-47.5 49.5l-104 86l-142 180h-63q-70 -76 -110 -123t-54 -68q-18 -25 -92 -88q-58 -55 -76 -94z" />
<glyph unicode="&#xfc;" horiz-adv-x="1200" d="M10 625q31 6 39 14h2q18 0 23 -12q4 -16 6 -38t2 -50l-12 -240q-6 -141 55 -233q70 -104 209 -105q125 0 416 121q12 -68 41 -145q43 -18 86 -19q106 0 249 109l-55 47q-4 -6 -7 -8.5t-5 -4.5l-2 13q0 12 -13 12l-59 -39q-61 -41 -67 -37q-4 2 -5 4q4 4 10.5 15.5 t22.5 31.5l29 35q-10 31 -13.5 77t-3.5 112q0 23 1.5 57.5t3.5 85.5l30 440l-186 -90q-66 -31 -129 -28l6 -86q47 -6 41 -13q20 -6 27 -35q12 -37 0 -346q-2 -10 -3 -32.5t-1 -53.5q-201 -82 -279 -82q-127 0 -154 68q-37 70 -36 184q0 47 6 158t22 287q2 47 -47 47 l-250 -125v-96zM209 1176q-4 -131 72 -132q10 0 29.5 1.5t29.5 1.5q51 0 90 37.5t39 91.5q0 51 -39 87.5t-90 36.5q-53 0 -92 -35.5t-39 -88.5zM236 1212l71 5l29 61l31 -64l73 -6l-59 -43l16 -69l-61 37l-66 -35l21 67zM588 1176q0 -59 38 -94t91 -35t92 37.5t39 91.5 q0 125 -131 124q-53 0 -91 -35.5t-38 -88.5zM614 1212l74 5l29 61l28 -64l74 -6l-57 -43l14 -69l-61 37l-64 -35l17 67z" />
<glyph unicode="&#xfd;" horiz-adv-x="1150" d="M10 698l13 -67q43 16 61 16q23 -4 36 -6l13 -2q20 0 25 -12q6 -37 4 -88l-10 -240q-4 -143 57 -233q70 -104 209 -105q115 0 403 115q-4 -92 -13 -166t-22 -131q-51 -199 -231 -199q-29 0 -94.5 14.5t-175.5 47.5q-39 0 -75 -36t-36 -75q0 -51 100 -82q35 -10 72 -13 t74 -3q141 0 319 96q162 80 234 221q53 109 63 316l41 759l-399 -75l6 -86q47 -2 78 -4.5t47 -8.5q20 -6 27 -35q12 -37 0 -346q-2 -10 -3.5 -32.5t-1.5 -53.5q-205 -82 -278 -82q-125 0 -158 68q-35 74 -35 184q0 94 31 445q2 47 -47 47zM336 1081h192q41 18 101 123 q63 106 121 133l-226 -6q-6 -2 -61 -110q-55 -105 -127 -140z" />
<glyph unicode="&#xfe;" horiz-adv-x="1277" d="M8 1264l27 -76l79 24q28 8 31 9q49 0 64 -64q0 -4 2 -54t3 -125t2 -164l2 -171q1 -82 2 -147.5t1 -92.5q2 -119 2 -196v-117l-4 -309q0 -49 -4 -77t-8 -36l-19 -10q-8 -16 -32 -16h-15q-6 0 -10 2l-72 22l9 -42q4 -22 6 -44l276 -91l207 -71q33 -12 53 -12q29 0 29 27 q-4 45 -86 78l-85 37q-30 13 -34 18q-23 16 -18 112l4 113l6 201q88 -20 164 -21q29 0 65.5 3t83.5 14q262 49 389 205q76 90 76 227q0 178 -131 293q-123 111 -303 110q-106 0 -190 -39q-123 -57 -160 -172l-17 711q-6 53 -13 88t-11 51q-33 -35 -123 -88q-96 -59 -133 -59 q-16 -6 -45 -18.5t-70 -32.5zM420 147l2 367q49 106 135 154q51 29 96 28q43 0 85 -14t85 -43q184 -123 185 -309q0 -88 -52 -142q-51 -53 -113.5 -78.5t-142.5 -25.5q-27 0 -95 16t-185 47z" />
<glyph unicode="&#xff;" horiz-adv-x="1150" d="M10 698l13 -67q43 16 61 16q23 -4 36 -6l13 -2q20 0 25 -12q6 -37 4 -88l-10 -240q-4 -143 57 -233q70 -104 209 -105q115 0 403 115q-4 -92 -13 -166t-22 -131q-51 -199 -231 -199q-29 0 -94.5 14.5t-175.5 47.5q-39 0 -75 -36t-36 -75q0 -51 100 -82q35 -10 72 -13 t74 -3q141 0 319 96q162 80 234 221q53 109 63 316l41 759l-399 -75l6 -86q47 -2 78 -4.5t47 -8.5q20 -6 27 -35q12 -37 0 -346q-2 -10 -3.5 -32.5t-1.5 -53.5q-205 -82 -278 -82q-125 0 -158 68q-35 74 -35 184q0 94 31 445q2 47 -47 47zM223 1176q-4 -131 72 -132 q10 0 29.5 1.5t29.5 1.5q53 0 91 37.5t38 91.5q0 51 -37.5 87.5t-91.5 36.5q-53 0 -91 -36.5t-40 -87.5zM250 1212l74 5l30 61l27 -64l74 -6l-58 -43l17 -69l-62 37l-65 -35l20 67zM602 1176q0 -53 40 -91t93 -38q51 0 89 37.5t38 91.5q0 125 -127 124q-53 0 -93 -36.5 t-40 -87.5zM629 1212l73 5l31 61l27 -64l74 -6l-58 -43l15 -69l-62 37l-63 -35l20 67z" />
<glyph unicode="&#x152;" horiz-adv-x="2187" d="M10 678q0 -268 228 -490q252 -240 643 -239q72 0 123 2t86 8q29 4 57 12h387q25 0 78 21q29 12 51.5 17t34.5 5q8 0 8 -2q-4 -8 -57 -61q0 -2 2 -2q35 0 96 2t154 8q70 4 113.5 5t64.5 -1q2 57 4 92t4 45v121q-4 78 27 113h-89q-16 -35 -24 -96q-10 -47 -27 -64 q-113 -96 -477 -96h-80q150 88 246 213q57 76 90 151l14 29q0 14 1 19.5t4 9.5q27 82 26 184q0 49 -5 95t-19 93l4 11h-9q-59 190 -249 336l-47 31q-23 15 -48 28q35 2 68 3t68 1q76 0 141 -5t125 -15q88 -18 88 -72q0 -16 -4 -41t-4 -39q0 -41 57 -41q70 0 92 324 q-154 -4 -264.5 -6.5t-179.5 -2.5h-449q-59 12 -117.5 19.5t-119.5 7.5q-219 0 -426 -88q-213 -92 -342 -252q-148 -176 -148 -393zM256 760q0 248 174 393q162 129 416 129h16q8 0 19 -2l8 -4q27 -18 37 -125q4 -16 4 -49t2 -86q4 -193 7 -317t-1 -181l-2 -51 q-8 -250 -25 -324q-6 -45 -18 -61q-233 29 -414 186q-223 203 -223 492zM1036 526l68 213q66 221 65 254q0 55 7 117l23 -8q11 -4 22 -6q190 -37 276 -232q25 -57 37 -114q-47 -2 -114.5 -3.5t-157.5 -1.5q-6 0 -35 41q-29 45 -33 45q-14 -59 -53 -133.5t-101 -169.5z M1167 416q0 49 1 102t3 113q41 4 73 6t61 2q162 0 245 -14v-25q0 -244 -159 -387q-82 -76 -195 -111l-8 4q-10 49 -15.5 126.5t-5.5 183.5z" />
<glyph unicode="&#x153;" horiz-adv-x="1847" d="M10 395q0 -154 90 -250q166 -182 461 -182q264 0 412 156q10 -16 21 -28l22 -21q117 -111 297 -111q57 0 118.5 14.5t129.5 46.5q131 59 213 142l-80 14q-154 -90 -277 -90q-172 0 -252 96q-37 39 -43 99l-6 127l88 -13q31 -4 76 -7t104 -3q164 0 383 31l-6 121 q-78 289 -434 288q-190 0 -323 -170q-16 16 -36 34t-42 34q-154 111 -353 111q-117 0 -217 -33q-152 -43 -243 -146q-103 -113 -103 -260zM231 453q0 129 76 201.5t201 72.5q41 0 73.5 -25.5t65.5 -78.5q39 -66 70 -105t59 -53l45 -26l23 -13q14 -14 21 -28.5t7 -37.5 q0 -135 -79.5 -216t-219.5 -81q-152 0 -251 121q-91 109 -91 269zM1120 502q31 184 217 184q16 0 37 2t47 8q39 6 52 0q78 -43 108 -188q-37 -10 -164 -6q-20 2 -45.5 5t-56.5 13q-45 12 -47 17z" />
<glyph unicode="&#x178;" horiz-adv-x="1806" d="M10 1378l19 -88q53 -2 88 -7t53 -13q53 -16 149 -113l140 -141l103 -115q48 -55 89 -113l125 -178q2 -16 2 -45v-76v-167q0 -68 -2 -111q-4 -115 -28 -133q-20 -16 -66.5 -26.5t-124.5 -12.5v-84q31 0 73 3l99 7q59 4 100 6t70 2h55l254 -12q10 8 11 19q0 6 -5 6l25 24 h-25q2 2 13 2q2 2 16 2v21q-207 37 -223 67l-57 -8q-29 0 -29 25q20 53 38.5 95t39.5 73l-4 336l131 161l196 244q80 96 127 143q70 68 121 84q43 16 146 21l4 96h-60q-33 0 -80 -4q-47 -2 -82 -2h-59q-29 0 -102.5 2t-194.5 8l-12 -96q176 8 176 -41q0 -29 -43 -96.5 t-131 -171.5l-125 -153l-66 -81l-123 154l-94 119l-64 81l-87 103q-57 68 -58 74h11q29 8 139 14l14 92l-90 4h-47q-29 0 -76 -2q-14 -143 -39 -143l-80 72q-76 70 -94 69q-31 2 -54.5 3t-41.5 1h-160zM629 1681q0 -53 39 -89t92 -36t91 34t38 91q0 53 -38 89t-91 36 t-92 -36t-39 -89zM655 1718l74 4l31 64l26 -66l74 -4l-57 -45l16 -69l-61 36l-66 -32l21 65zM1008 1681q0 -57 37.5 -91t95.5 -34q51 0 89 36t38 89t-38 89t-89 36q-53 0 -93 -36t-40 -89zM1034 1718l74 4l31 64l26 -66l74 -4l-57 -45l18 -69l-65 36l-64 -32l21 65z" />
<glyph unicode="&#x2c6;" horiz-adv-x="802" d="M10 1110q14 35 76 94l61 57q25 22 35 33q25 45 160 193h64l143 -184l104 -84q47 -39 76 -109h-188q-20 68 -62 143q-29 16 -54.5 35t-53.5 35l-55 -42l-54 -40q-10 -14 -55 -131h-197z" />
<glyph unicode="&#x2dc;" horiz-adv-x="712" d="M10 864h49q23 182 97 183h20q68 -2 96 -62q80 -139 162 -127h4l-57 68q-53 68 -53 80q0 2 4 6l157 -150q86 0 127 142q23 72 23 184h-49q-4 -45 -9.5 -76t-11.5 -47q-25 -66 -73 -66q-6 0 -13 -2h-8q-20 -4 -29 -2q-29 2 -69 70q-82 125 -221 125q-68 0 -111 -98 q-16 -35 -24.5 -91.5t-10.5 -136.5z" />
<glyph unicode="&#x2000;" horiz-adv-x="940" />
<glyph unicode="&#x2001;" horiz-adv-x="1880" />
<glyph unicode="&#x2002;" horiz-adv-x="940" />
<glyph unicode="&#x2003;" horiz-adv-x="1880" />
<glyph unicode="&#x2004;" horiz-adv-x="626" />
<glyph unicode="&#x2005;" horiz-adv-x="468" />
<glyph unicode="&#x2006;" horiz-adv-x="313" />
<glyph unicode="&#x2007;" horiz-adv-x="313" />
<glyph unicode="&#x2008;" horiz-adv-x="233" />
<glyph unicode="&#x2009;" horiz-adv-x="374" />
<glyph unicode="&#x200a;" horiz-adv-x="104" />
<glyph unicode="&#x2010;" horiz-adv-x="845" d="M47 418h688l-4 12q-2 6 -2 12q0 27 31 70q23 31 35 49.5t14 24.5h-688q6 -16 6 -31q0 -33 -31 -72l-32.5 -41t-16.5 -24z" />
<glyph unicode="&#x2011;" horiz-adv-x="845" d="M47 418h688l-4 12q-2 6 -2 12q0 27 31 70q23 31 35 49.5t14 24.5h-688q6 -16 6 -31q0 -33 -31 -72l-32.5 -41t-16.5 -24z" />
<glyph unicode="&#x2012;" horiz-adv-x="845" d="M47 418h688l-4 12q-2 6 -2 12q0 27 31 70q23 31 35 49.5t14 24.5h-688q6 -16 6 -31q0 -33 -31 -72l-32.5 -41t-16.5 -24z" />
<glyph unicode="&#x2013;" horiz-adv-x="1298" d="M10 651h1141q-6 12 -6 25q0 27 31 69q43 61 49 74h-1141q6 -16 6 -31q0 -33 -31 -71l-32.5 -41.5t-16.5 -24.5z" />
<glyph unicode="&#x2014;" horiz-adv-x="1740" d="M10 651h1583q-6 12 -6 25q0 27 31 69q43 61 49 74h-1583q6 -16 6 -31q0 -33 -31 -71l-32.5 -41.5t-16.5 -24.5z" />
<glyph unicode="&#x2018;" horiz-adv-x="458" d="M10 1182q37 233 312 331l63 -71q-186 -94 -186 -160q0 -45 39 -63l24 -7l8 -6l4 -2q78 -41 78 -127q0 -68 -48 -109.5t-118 -41.5q-90 0 -135 67q-43 105 -41 189z" />
<glyph unicode="&#x2019;" horiz-adv-x="458" d="M10 997q94 49 115 62q72 49 72 98q0 45 -39 64q-10 6 -23 10h-10l-2 6q-78 43 -78 127q0 66 49 107.5t115 41.5q92 0 135 -65q23 -51 34 -97t7 -89q-37 -233 -311 -336z" />
<glyph unicode="&#x201a;" horiz-adv-x="458" d="M10 -223l74 38q29 15 41 25q72 49 72 99q0 45 -39 63l-23 8l-10 2l-2 4q-78 47 -78 129q0 66 49 108t115 42q92 0 135 -66q23 -51 34 -97t7 -93q-37 -229 -311 -332z" />
<glyph unicode="&#x201c;" horiz-adv-x="911" d="M10 1182q37 233 312 331l63 -71q-186 -94 -186 -160q0 -45 39 -63l24 -7l8 -6l4 -2q78 -41 78 -127q0 -68 -48 -109.5t-118 -41.5q-90 0 -135 67q-43 97 -41 189zM463 1182q37 233 311 331l64 -71q-186 -94 -187 -160q0 -45 39 -63l25 -7l8 -6l4 -2q80 -47 80 -127 q0 -68 -50 -109.5t-118 -41.5q-92 0 -135 67q-23 47 -34 94.5t-7 94.5z" />
<glyph unicode="&#x201d;" horiz-adv-x="911" d="M10 997q188 96 189 160q0 45 -39 64q-8 4 -14.5 6t-10.5 4h-10l-2 6q-78 43 -78 127q0 68 51 111q45 39 113 38q92 0 135 -65q23 -51 34 -97t7 -89q-37 -233 -311 -336zM463 997q188 96 188 160q0 45 -39 64q-16 8 -24 10h-8l-5 6q-80 45 -79 127q0 68 53 111 q45 39 113 38q94 0 137 -65q43 -96 39 -186q-37 -236 -310 -336z" />
<glyph unicode="&#x201e;" horiz-adv-x="901" d="M10 -223l74 38q29 15 41 25q72 49 72 99q0 45 -39 63l-23 8l-10 2l-2 4q-78 47 -78 129q0 66 49 108t115 42q92 0 135 -66q23 -51 34 -97t7 -93q-37 -229 -311 -332zM453 -223q47 23 74.5 39t37.5 24q74 49 74 99q0 45 -39 63l-22 8l-11 2l-2 4q-78 47 -78 129 q0 66 49.5 108t114.5 42q92 0 135 -66q23 -51 34 -97t7 -93q-37 -229 -311 -332z" />
<glyph unicode="&#x2022;" horiz-adv-x="825" d="M10 883q31 -2 58.5 -4t52.5 -2q104 0 158 28q45 51 102 248q12 -57 19.5 -88t9.5 -35q31 -88 73 -125q63 -31 160 -31q25 0 52.5 2.5t56.5 6.5q-94 -51 -145.5 -93t-57.5 -81q-10 -133 61 -263q-102 96 -229 142q-57 -14 -113.5 -48t-115.5 -94q49 133 61 263 q-47 70 -90 98q-17 6 -113 76z" />
<glyph unicode="&#x2026;" horiz-adv-x="2187" d="M10 63l154 72l72 156l71 -156l156 -72l-156 -71l-71 -154l-72 154zM844 76l153 71l74 156l72 -156l155 -71l-155 -72l-72 -154l-74 154zM1661 76l156 71l71 156l70 -156l156 -71l-156 -72l-70 -154l-71 154z" />
<glyph unicode="&#x202f;" horiz-adv-x="374" />
<glyph unicode="&#x2039;" horiz-adv-x="647" d="M10 586v110l563 457v-221q-129 -49 -208 -111q-61 -47 -189 -180l92 -85l74 -67q57 -51 114.5 -86.5t116.5 -56.5v-221z" />
<glyph unicode="&#x203a;" horiz-adv-x="647" d="M10 125v221q119 39 232 143l73 68q41 37 88 84l-107 111q-46 45 -75 69q-74 57 -211 111v221l563 -457v-110z" />
<glyph unicode="&#x205f;" horiz-adv-x="468" />
<glyph unicode="&#x20ac;" horiz-adv-x="1595" d="M10 690q0 -340 293 -547q260 -184 615 -184q188 0 591 100q6 25 7 43q0 39 -27 60q-10 8 -17.5 11t-9.5 7q16 35 30.5 62.5t29.5 52.5q0 12 -9 12q-2 0 -23.5 -10t-31.5 -10q-6 0 -14 5t-14 5q-18 0 -37 -29q-66 -92 -138 -135q-115 -74 -292 -74q-213 0 -424 140 q-129 84 -191 202h682q-2 4 -2 11v14q0 12 6 29.5t23 38.5l33 51q12 18 14 22h-811q-6 29 -8 59.5t-2 63.5v45h843q-4 6 -4 23q0 29 31 69l32 51q11 17 15 21h-901q37 188 160 240l215 102q119 61 237 62q92 0 232 -35q80 -20 129 -45t71 -54q10 -14 17 -75q4 -41 24 -58 q14 -10 64 -16v20q0 20 -4 54t-4 57q0 109 82 166q-33 31 -47 26q-10 0 -21.5 -1t-28.5 -3q-20 0 -44.5 3.5t-53.5 13.5q-188 55 -358 55q-240 0 -443 -74q-117 -43 -209 -102t-159 -137q-148 -172 -148 -408z" />
<glyph unicode="&#x2122;" horiz-adv-x="1961" d="M10 1378q16 -29 27.5 -58.5t21.5 -62.5l62 -6q-4 16 -6 29.5t-4 24.5q51 23 176 22q35 0 69.5 -1t69.5 -3q4 -16 8 -79.5t4 -174.5v-147q0 -86 -16 -146q-25 -10 -50.5 -15t-49.5 -9q-10 -10 -11 -25q0 -23 33 -22q29 0 82 3t82 3q14 0 38.5 -2t49.5 -5.5t48.5 -5.5 t39.5 -2q20 0 29 4l8 37q-18 25 -49 25q-43 -25 -45 -27h-2q4 12 8 20.5t4 10.5q0 4 -2 4q-43 0 -55 39q-2 10 -3.5 29.5t-1.5 48.5v45q0 29 -2 65q-4 39 -4 66v47q0 129 19 215l104 2q72 2 122 -3t75 -19q-2 -10 -3 -22.5t-5 -29.5l63 4l21 63q10 30 26 58q-12 6 -21 11.5 t-16 15.5q-45 -31 -366 -29l-346 4q-35 4 -66 4h-55h-10q-39 0 -64 19q-8 -8 -17 -13zM823 713h256q27 -2 45 -2h29l-72 30l-2 4q-20 2 -30 27q-2 6 -2 96v52v41q0 23 2 51q104 37 155 37q70 0 88 -58l4 -67q2 -33 2 -62l13 10q8 14 16 15q4 0 4 -4q4 -10 -8 -34t-12 -30 q0 -41 -21 -55l-2 -2q20 4 23 4q25 8 24 12l15 -33q-4 -6 -37 0q-25 2 -39 3h-17l11 -35h192l13 39q-33 2 -43 10q-2 12 -3 33q0 23 -2 51l-2 104q-2 25 -2 41t-4 25q80 25 139 24q117 0 117 -133q0 -127 -24 -141q-8 -8 -72 -18l12 -35h299l-22 35q-25 2 -39.5 4t-22.5 6 q-2 2 -5 3t-5 3v154q0 100 -22 135q-33 53 -142 53q-49 0 -105.5 -11.5t-121.5 -35.5q-33 61 -135 61q-29 0 -75 -11t-112 -36l-32 -12q0 68 -33 67q-8 0 -23 -8q-25 -10 -56.5 -17t-72.5 -11l-41 -58q55 0 74 -6q33 -12 33 -121q0 -123 -33 -141q-10 -4 -26.5 -7t-43.5 -9z M1073 748l6 -3q23 -10 60 7q-8 0 -17 -2z" />
<glyph unicode="&#xe000;" horiz-adv-x="815" d="M0 815h815v-815h-815v815z" />
<glyph unicode="&#xfb01;" horiz-adv-x="1224" d="M10 -20q221 0 373 -1.5t242 -3.5v95q-72 2 -117 3t-66 1q-10 2 -16 2q-4 0 -8 2q-12 14 -12 276v154q0 86 2 190q137 -39 184 -39q43 0 92 13l4 2v-2q0 -33 84 -41q18 -2 30.5 -3t18.5 -1q16 -152 19 -230l28 -125q-33 -80 -32 -145q-6 -49 -50 -66q-2 0 -24.5 -2 t-63.5 -6l-14 -82l518 13l-43 79q-6 0 -8 3q2 0 4 4h-12q-70 6 -78 18q-18 63 -18 272q0 78 6 164q4 111 14 190t27 130q-23 4 -38.5 8t-25.5 4q-41 -31 -74 -47q-55 -10 -114.5 -11t-112.5 1t-94 5t-60 3q-45 0 -84.5 3t-80.5 11q6 190 34 309q51 199 232 199q14 0 16 -24 q12 -76 111 -101l18 49q39 113 172 119q57 4 64 6q0 51 -101 80q-78 18 -145 19q-68 0 -147.5 -23.5t-171.5 -73.5q-170 -92 -238 -227q-31 -61 -45 -144t-16 -188l-173 -2v-117l166 7q20 0 36 1t28 1l-10 -5q-6 -3 -11 -8q-33 -27 -34 -57l-11 -473q-16 -88 -90 -96 q-8 -2 -28 -2t-56 -4v-86z" />
<glyph unicode="&#xfb02;" horiz-adv-x="1343" d="M10 -20q221 0 373 -1.5t242 -3.5v95q-72 2 -117 3t-66 1q-10 2 -16 2q-4 0 -8 2q-12 14 -12 276v154q0 86 2 190q137 -39 184 -39q43 0 92 13l74 149q-49 -8 -95.5 -11t-87.5 -3q-45 0 -84.5 3t-80.5 11q6 190 34 309q51 199 232 199q8 0 16 -24q29 -59 55.5 -81 t49.5 -22q25 0 45 10.5t36.5 11.5t28 -14.5t17.5 -68.5q2 -16 8 -57.5t11 -97.5t7 -120.5t0 -128.5l-18 -372q-4 -59 -7 -98.5t-7 -61.5q-12 -74 -66 -105q-33 -20 -123 -28v-84q154 12 266 12q23 0 103 -3t219 -13v90q-141 12 -152 47q-10 23 -15 87t-5 173q0 76 2 145.5 t6 135.5q0 25 1 62.5t1 72.5q0 37 1 65.5t1 36.5q18 344 62 479l-158 -123q-4 29 9 46.5t13 15.5q0 6 -8 25.5t-18 35.5q0 51 -101 80q-78 18 -145 19q-68 0 -147.5 -23.5t-171.5 -73.5q-170 -92 -238 -227q-31 -61 -45 -144t-16 -188l-173 -2v-117l166 7q20 0 36 1t28 1 l-10 -5q-6 -3 -11 -8q-33 -27 -34 -57l-11 -473q-16 -88 -90 -96q-8 -2 -28 -2t-56 -4v-86z" />
<glyph unicode="&#xfb03;" horiz-adv-x="1849" d="M10 -20q221 0 373 -1.5t242 -3.5v95q-72 2 -117 3t-66 1q-10 2 -16 2q-4 0 -8 2q-12 14 -12 276v154q0 86 2 190q137 -39 184 -39q43 0 92 13q55 25 94 35t64.5 11t42.5 -4l28 -9l-10 -6q-6 -3 -10 -7q-33 -27 -35 -57l-10 -473q-16 -88 -90 -96q-8 -2 -29 -3 q-20 0 -55 -4v-86q221 0 372.5 -1t241.5 -3v94q-72 2 -117 3.5t-65 1.5q-10 2 -16 2q-4 0 -9 2q-12 14 -12 276v154q0 86 2 190q137 -39 184 -39q41 0 80 9q2 -27 84 -35q18 -2 30.5 -3t18.5 -1q8 -76 12.5 -133.5t8.5 -96.5l27 -125q-33 -84 -33 -145q-6 -49 -49 -66 q-2 0 -24 -2l-64 -6l-15 -84l518 12l-41 82q-8 0 -10 2q2 0 4 2h-12q-72 10 -78 21q-18 61 -18 272q0 39 2 80l4 82q4 111 15 190.5t26 129.5q-43 12 -64 12q-35 -31 -99.5 -42t-133 -12t-126.5 2t-79 3q-45 0 -85 3t-81 11q6 190 35 309q51 199 231 199q14 0 17 -25 q12 -76 110 -100l19 49q39 113 172 119q57 4 63 6q0 51 -100 80q-78 18 -145 18q-68 0 -148 -23.5t-172 -72.5q-170 -92 -237 -227q-31 -61 -45.5 -144t-16.5 -188h-74h-43q-16 0 -25 -1t-18 -1q-39 -4 -67.5 -5t-53.5 -1q-45 0 -84.5 3t-80.5 11q6 190 34 309 q51 199 232 199q14 0 16 -24q12 -76 111 -101l18 49q39 113 172 119q57 4 64 6q0 51 -101 80q-78 18 -145 19q-68 0 -147.5 -23.5t-171.5 -73.5q-170 -92 -238 -227q-31 -61 -45 -144t-16 -188l-173 -2v-117l166 7q20 0 36 1t28 1l-10 -5q-6 -3 -11 -8q-33 -27 -34 -57 l-11 -473q-16 -88 -90 -96q-8 -2 -28 -2t-56 -4v-86z" />
<glyph unicode="&#xfb04;" horiz-adv-x="1974" d="M10 -20q221 0 373 -1.5t242 -3.5v95q-72 2 -117 3t-66 1q-10 2 -16 2q-4 0 -8 2q-12 14 -12 276v154q0 86 2 190q137 -39 184 -39q43 0 92 13q55 25 94 35t64.5 11t42.5 -4l28 -9l-10 -6q-6 -3 -10 -7q-33 -27 -35 -57l-10 -473q-16 -88 -90 -96q-8 -2 -29 -3 q-20 0 -55 -4v-86q221 0 372.5 -1t241.5 -3v94q-72 2 -117 3.5t-65 1.5q-10 2 -16 2q-4 0 -9 2q-12 14 -12 276v154q0 86 2 190q137 -39 184 -39q43 0 93 13l73 149q-49 -8 -95 -11t-87 -3q-45 0 -85 3t-81 11q6 190 35 309q51 199 231 199q14 0 17 -25q6 -37 35.5 -60.5 t91.5 -23.5q55 0 69 -16q37 -45 27 -301l-20 -553q-4 -57 -7.5 -96t-7.5 -64q-12 -76 -63 -102q-35 -18 -123 -31v-84q150 12 264 13q23 0 103.5 -3.5t220.5 -13.5v90q-141 12 -154 47q-18 49 -18 260q0 152 6 281q0 27 1 76t1 98q0 51 1 92t3 49q10 174 24.5 293t36.5 187 l-157 -123q14 18 16 36.5t14 22.5q0 51 -100 80q-78 18 -145 18q-68 0 -148 -23.5t-172 -72.5q-170 -92 -237 -227q-31 -61 -45.5 -144t-16.5 -188h-74h-43q-16 0 -25 -1t-18 -1q-39 -4 -67.5 -5t-53.5 -1q-45 0 -84.5 3t-80.5 11q6 190 34 309q51 199 232 199q14 0 16 -24 q12 -76 111 -101l18 49q39 113 172 119q57 4 64 6q0 51 -101 80q-78 18 -145 19q-68 0 -147.5 -23.5t-171.5 -73.5q-170 -92 -238 -227q-31 -61 -45 -144t-16 -188l-173 -2v-117l166 7q20 0 36 1t28 1l-10 -5q-6 -3 -11 -8q-33 -27 -34 -57l-11 -473q-16 -88 -90 -96 q-8 -2 -28 -2t-56 -4v-86z" />
</font>
</defs>
</svg>
